<svg xmlns="http://www.w3.org/2000/svg" xmlns:xlink="http://www.w3.org/1999/xlink" viewBox="0 0 1163 350" preserveAspectRatio="xMidYMid meet" xmlns:v="https://vecta.io/nano"><style><![CDATA[.B{opacity:1}.C{opacity:0}.D{fill:#fae406}.E{stroke-linecap:round}.F{stroke-linejoin:round}.G{fill-opacity:0}.H{stroke-dasharray: 0.1 3.41}.I{stroke:#060506}.J{fill:#fefefe}]]></style><defs><clipPath id="A"><path d="M0 0h1163v350H0z"/></clipPath><clipPath ><path d="M0 0h201v223H0z"/></clipPath><path id="C" d="M195.856 322.558c0-1.179-.956-2.136-2.136-2.136s-2.136.957-2.136 2.136.957 2.136 2.136 2.136 2.136-.956 2.136-2.136z"/><path id="D" d="M199.648 296.799a5.93 5.93 0 0 0-5.928-5.928 5.93 5.93 0 0 0-5.928 5.928 5.93 5.93 0 0 0 5.928 5.928 5.93 5.93 0 0 0 5.928-5.928z"/><path id="E" d="M196.22 296.799a2.5 2.5 0 1 0-5 0 2.5 2.5 0 1 0 5 0z"/><path id="F" d="M136.842 337.06c-.35.15-.65.36-.89.63s-.43.59-.56.96-.2.76-.2 1.19c0 .52.08.99.22 1.39a2.87 2.87 0 0 0 .6 1.02c.26.27.57.48.92.62a3.11 3.11 0 0 0 1.16.21c.22 0 .44-.02.67-.05.22-.04.44-.1.65-.17.21-.08.41-.18.59-.29a2.11 2.11 0 0 0 .47-.42l-.3-.39c-.04-.07-.11-.1-.2-.1-.07 0-.15.03-.24.09l-.35.2c-.14.07-.31.14-.51.2a2.31 2.31 0 0 1-.69.09c-.29 0-.55-.04-.78-.14a1.56 1.56 0 0 1-.6-.42c-.17-.19-.3-.43-.39-.71-.1-.29-.15-.62-.16-1.01h4.04c.1 0 .17-.02.21-.08.03-.06.05-.17.05-.34 0-.43-.06-.81-.19-1.15-.12-.34-.3-.62-.52-.85-.23-.23-.49-.41-.8-.53a2.75 2.75 0 0 0-1.01-.18c-.44 0-.83.07-1.19.23zm1.87.68c.19.08.35.19.48.34s.23.33.3.54c.07.2.1.43.1.68h-3.3c.07-.53.25-.94.55-1.24.29-.3.7-.45 1.22-.45a1.51 1.51 0 0 1 .65.13z"/><path id="G" d="M134.086 336.92v3.88c0 .34.04.66.13.94s.22.53.39.73a1.67 1.67 0 0 0 .64.46c.25.11.54.17.88.17.42 0 .8-.09 1.12-.27a3.17 3.17 0 0 0 .89-.71l.09.66a.26.26 0 0 0 .28.22h.64v-6.08h-1.07v4.48c-.23.27-.48.47-.76.62s-.57.22-.88.22c-.43 0-.75-.12-.96-.37-.21-.26-.32-.61-.32-1.07v-3.88h-1.07z"/><path id="H" d="M139.628 337.53c-.24-.22-.51-.39-.83-.51-.32-.13-.68-.19-1.08-.19-.34 0-.65.04-.91.14a2.13 2.13 0 0 0-.68.39c-.19.16-.33.35-.42.56-.1.22-.15.44-.15.67 0 .26.05.48.14.66.09.19.21.34.36.46.14.13.31.23.5.31l.58.22.59.18c.19.06.36.13.5.21.15.08.27.17.36.28s.14.25.14.42c0 .13-.03.26-.08.38a.9.9 0 0 1-.23.32c-.1.09-.23.16-.39.22a1.82 1.82 0 0 1-.55.08c-.24 0-.44-.03-.61-.09a1.74 1.74 0 0 1-.41-.18l-.29-.19c-.08-.05-.16-.08-.23-.08s-.13.01-.17.04c-.05.03-.08.07-.12.12l-.25.41a3.03 3.03 0 0 0 .88.53 3.02 3.02 0 0 0 1.15.21c.37 0 .7-.05.98-.15a2.09 2.09 0 0 0 .72-.41c.2-.18.35-.38.45-.62s.15-.5.15-.78c0-.24-.05-.45-.14-.63-.09-.17-.21-.32-.35-.44a2.14 2.14 0 0 0-.51-.3l-.58-.22-.58-.18a4.73 4.73 0 0 1-.5-.2c-.15-.08-.27-.17-.36-.27-.09-.11-.13-.24-.13-.39 0-.13.02-.24.08-.35a.86.86 0 0 1 .23-.28 1.29 1.29 0 0 1 .37-.19 1.87 1.87 0 0 1 .49-.07c.21 0 .39.03.54.07l.39.15.28.15c.08.04.14.07.2.07.1 0 .18-.05.23-.14l.24-.39z"/><path id="I" d="M138.464 343v-3.87c.17-.41.38-.73.63-.94.25-.22.56-.33.93-.33.21 0 .37.02.49.06s.2.06.26.06c.09 0 .16-.05.18-.15l.14-.8c-.11-.07-.24-.12-.38-.16-.13-.04-.28-.06-.45-.06-.41 0-.77.12-1.08.36s-.56.57-.77.99l-.07-.94c-.02-.11-.05-.19-.09-.23-.05-.05-.13-.07-.24-.07h-.61V343h1.06z"/><path id="J" d="M134.97 337.05a2.56 2.56 0 0 0-.91.63 2.7 2.7 0 0 0-.58.99c-.14.38-.21.81-.21 1.29s.07.91.21 1.29a2.7 2.7 0 0 0 .58.99 2.56 2.56 0 0 0 .91.63c.36.14.76.21 1.21.21.44 0 .84-.07 1.2-.21a2.56 2.56 0 0 0 .91-.63c.25-.27.44-.6.58-.99a3.97 3.97 0 0 0 .2-1.29 3.97 3.97 0 0 0-.2-1.29c-.14-.39-.33-.72-.58-.99a2.56 2.56 0 0 0-.91-.63 3.09 3.09 0 0 0-1.2-.22c-.45 0-.85.07-1.21.22zm.41 5.04c-.22-.1-.41-.25-.56-.44a1.99 1.99 0 0 1-.33-.72c-.08-.28-.11-.61-.11-.97s.03-.68.11-.96c.07-.29.18-.53.33-.73a1.64 1.64 0 0 1 .56-.45c.23-.1.49-.15.8-.15.6 0 1.04.2 1.34.6.3.41.44.97.44 1.69s-.14 1.29-.44 1.69-.74.6-1.34.6c-.31 0-.57-.05-.8-.16z"/><path id="K" d="M135.276 345.06v-2.69c.21.23.44.4.71.53.26.12.59.18.96.18.41 0 .78-.08 1.1-.24a2.43 2.43 0 0 0 .83-.66 3.2 3.2 0 0 0 .51-1.01 4.15 4.15 0 0 0 .18-1.25c0-.5-.05-.95-.16-1.34-.11-.38-.26-.71-.46-.97s-.44-.46-.73-.59c-.28-.14-.6-.21-.94-.21-.44 0-.83.1-1.16.29s-.63.45-.89.76l-.09-.72a.28.28 0 0 0-.29-.22h-.63v8.14h1.06zm2.3-7.26a1.23 1.23 0 0 1 .48.4c.13.19.23.42.3.7.07.29.11.63.11 1.02 0 .75-.15 1.33-.46 1.73-.3.4-.73.61-1.3.61-.29 0-.55-.06-.78-.17-.24-.1-.45-.29-.65-.55v-2.94a2.45 2.45 0 0 1 .73-.68c.26-.16.56-.24.91-.24.25 0 .46.04.66.12z"/><path id="L" d="M140.3 339.11c0-.34-.05-.65-.14-.93-.09-.29-.23-.53-.41-.73a1.85 1.85 0 0 0-.66-.47 2.38 2.38 0 0 0-.91-.17c-.47 0-.9.08-1.29.24s-.75.41-1.08.73l.19.34c.03.06.07.11.13.14.05.04.11.06.19.06.09 0 .18-.03.27-.1l.34-.22a2.19 2.19 0 0 1 .46-.22c.18-.07.4-.1.66-.1.4 0 .69.12.9.36.2.24.3.6.3 1.07v.48c-.69.01-1.27.08-1.75.19-.47.11-.86.25-1.15.42-.3.17-.51.37-.64.59s-.2.45-.2.69c0 .28.05.52.14.72s.21.37.36.5.33.23.54.3c.2.06.42.1.66.1.23 0 .44-.02.63-.06s.37-.1.54-.18a2.36 2.36 0 0 0 .48-.29 5.09 5.09 0 0 0 .47-.39l.12.57c.02.1.06.17.12.2.07.03.15.05.26.05h.47v-3.89zm-3.16 3.19c-.12-.04-.23-.09-.31-.17a.74.74 0 0 1-.21-.28c-.06-.12-.08-.26-.08-.42a.8.8 0 0 1 .14-.45c.1-.14.26-.26.48-.36.21-.1.49-.18.84-.24.34-.06.76-.1 1.25-.12v1.27a2.92 2.92 0 0 1-.37.34c-.13.1-.26.19-.4.26-.13.07-.28.12-.44.16-.15.04-.32.06-.51.06a1.6 1.6 0 0 1-.39-.05z"/><path id="M" d="M138.034 336.96a2.08 2.08 0 0 0-.72.39c-.21.17-.37.38-.48.62-.12.24-.17.51-.17.81 0 .37.08.69.25.97s.41.5.71.67c-.13.06-.24.14-.34.22-.09.09-.18.17-.24.27a.85.85 0 0 0-.15.28c-.03.09-.05.18-.05.27 0 .22.05.4.16.54.1.13.24.24.41.32-.33.12-.6.29-.79.5s-.28.46-.28.76a1.21 1.21 0 0 0 .16.61c.11.19.28.37.5.51.22.15.5.27.83.36s.72.13 1.17.13c.44 0 .84-.06 1.19-.17.35-.12.65-.27.9-.46.24-.19.43-.4.56-.65a1.55 1.55 0 0 0 .19-.75c0-.28-.06-.51-.17-.69a1.3 1.3 0 0 0-.46-.41 2.56 2.56 0 0 0-.66-.22l-.75-.09-.74-.04c-.25-.01-.46-.03-.66-.06-.19-.03-.34-.08-.46-.16-.11-.07-.17-.18-.17-.33 0-.08.03-.17.1-.27a.92.92 0 0 1 .29-.25c.25.06.52.1.8.1.33 0 .64-.05.92-.14.27-.09.51-.22.72-.4.2-.17.36-.37.47-.62a1.91 1.91 0 0 0 .17-.8 1.92 1.92 0 0 0-.2-.87l.69-.1c.17-.04.25-.12.25-.25v-.4h-1.65a2.51 2.51 0 0 0-.63-.25c-.23-.06-.47-.09-.74-.09a3.12 3.12 0 0 0-.93.14zm2.7 6.81c-.08.13-.2.24-.36.34a1.8 1.8 0 0 1-.58.22c-.23.05-.49.08-.77.08-.3 0-.56-.03-.78-.08a1.9 1.9 0 0 1-.54-.2c-.14-.09-.25-.19-.32-.31-.07-.11-.1-.24-.1-.38 0-.21.07-.4.21-.55.14-.16.33-.29.55-.4l.62.07.64.03.59.05a2.18 2.18 0 0 1 .5.11c.14.05.26.12.34.21.09.1.13.22.13.37 0 .16-.04.31-.13.44zm-2.33-3.83c-.17-.06-.3-.14-.42-.25-.11-.11-.19-.24-.25-.39s-.09-.31-.09-.49c0-.38.11-.67.34-.89s.55-.33.98-.33.76.11.99.33c.22.22.34.51.34.89 0 .18-.03.34-.09.49-.05.15-.14.28-.25.39s-.25.19-.42.25c-.16.06-.35.09-.57.09-.21 0-.4-.03-.56-.09z"/><path id="N" d="M398.01 302.67l-1.6.65.08.21c.18-.06.31-.09.4-.09.1 0 .18.02.24.07s.11.15.13.29c.03.14.05.52.05 1.13v4.86c0 .33-.02.56-.07.67-.05.1-.11.18-.19.22-.14.07-.32.11-.56.11v.21h2.66v-.21c-.28 0-.47-.03-.58-.09a.51.51 0 0 1-.23-.23c-.04-.09-.06-.32-.06-.68v-2.84c.29-.31.54-.51.75-.61a1.22 1.22 0 0 1 .59-.16c.19 0 .35.05.48.14.14.09.23.23.29.41.06.19.09.57.09 1.16v1.9l-.01.55a.56.56 0 0 1-.21.33c-.1.08-.27.12-.52.12h-.12v.21h2.63v-.21c-.25 0-.42-.03-.51-.08-.1-.06-.16-.13-.2-.23-.06-.12-.08-.35-.08-.69v-1.9c0-.67-.04-1.12-.11-1.37-.11-.36-.27-.63-.49-.79a1.25 1.25 0 0 0-.79-.26c-.25 0-.5.07-.76.21-.25.13-.6.44-1.03.91v-3.92h-.27z"/><path id="O" d="M402.32 307.65c0-.66-.2-1.19-.58-1.59-.39-.39-.88-.59-1.49-.59a2.31 2.31 0 0 0-1.77.77c-.47.51-.7 1.23-.7 2.15 0 .84.22 1.52.68 2.02s1.01.75 1.66.75a1.9 1.9 0 0 0 1.48-.66c.4-.43.63-.92.72-1.46l-.19-.11c-.17.46-.39.8-.65.99s-.56.29-.92.29c-.52 0-.98-.23-1.37-.68s-.59-1.08-.58-1.88h3.71zm-3.26-1.39c.25-.25.54-.38.87-.38.21 0 .41.07.6.19.2.13.34.3.44.52.06.14.1.38.12.72h-2.48c.04-.44.19-.8.45-1.05z"/><path id="P" d="M399.595 305.47h-.25l-1.62.66.09.21c.15-.06.28-.09.39-.09.1 0 .18.03.24.08s.11.15.14.29.04.53.04 1.17v2c0 .39-.05.65-.14.79-.1.14-.28.21-.55.21h-.12v.21h2.65v-.21c-.29 0-.48-.03-.58-.08s-.17-.14-.23-.25c-.04-.08-.06-.31-.06-.67v-2.83c.46-.51.92-.76 1.39-.76.3 0 .51.11.64.33s.19.57.19 1.06v2.2l-.02.55a.56.56 0 0 1-.21.33c-.1.08-.28.12-.53.12h-.11v.21h2.66v-.21c-.26 0-.44-.03-.53-.08-.1-.06-.17-.13-.21-.23-.06-.12-.08-.35-.08-.69v-2.29c0-.49-.05-.85-.13-1.08-.13-.34-.29-.58-.51-.73-.21-.14-.46-.22-.75-.22-.57 0-1.17.38-1.8 1.14v-1.14z"/><path id="Q" d="M398.405 303.87l-.37.81c-.18.28-.38.53-.6.73-.23.21-.45.35-.66.44v.19h.85v3.61c0 .39.04.68.12.86.08.19.21.33.38.43a1.04 1.04 0 0 0 .53.15c.26 0 .52-.1.77-.29.25-.2.44-.48.58-.87h-.23c-.06.16-.16.28-.28.36a.65.65 0 0 1-.37.12c-.16 0-.29-.06-.39-.18s-.15-.36-.15-.71v-3.48h1.26v-.41h-1.26v-1.76h-.18z"/><path id="R" d="M396.384 305.85c.2.05.34.1.43.16.07.05.15.14.24.28.13.18.23.33.29.45l1.92 4.05-.38.93c-.14.35-.28.58-.42.7s-.26.19-.38.19c-.04 0-.14-.03-.29-.09-.23-.09-.4-.13-.53-.13-.19 0-.34.05-.44.15-.11.1-.16.23-.16.39a.58.58 0 0 0 .22.46c.15.13.34.2.57.2.31 0 .64-.13.98-.4.35-.26.62-.66.83-1.18l2.19-5.35.2-.45c.09-.13.18-.22.26-.27.07-.04.19-.07.33-.09v-.22h-1.75v.22c.17 0 .29.01.36.04.06.02.11.06.14.1s.04.09.04.16a1.17 1.17 0 0 1-.1.47l-1.2 2.97-1.3-2.71c-.13-.27-.2-.48-.2-.63 0-.12.05-.21.13-.29.09-.07.22-.11.4-.11h.12v-.22h-2.5v.22z"/><path id="S" d="M397.014 305.47l-1.62.66.05.21c.16-.06.29-.09.41-.09.11 0 .19.03.26.09.07.05.11.14.14.26s.04.49.04 1.11v2.08c0 .32-.01.51-.03.57-.04.14-.11.24-.21.3-.13.09-.33.13-.61.13v.21h2.75v-.21c-.24 0-.42-.04-.55-.11s-.22-.15-.27-.26c-.08-.15-.11-.38-.11-.67v-2.58c.18-.36.36-.63.54-.79.08-.08.16-.11.23-.11.08 0 .21.06.38.2.17.13.32.2.46.2s.26-.05.36-.16a.52.52 0 0 0 .15-.38c0-.18-.07-.33-.21-.46s-.32-.2-.53-.2c-.47 0-.94.41-1.38 1.21v-1.21h-.25z"/><path id="T" d="M398.226 310.91c.12.13.27.2.46.2.4 0 .82-.3 1.25-.88v-.33l-.47.43c-.05.02-.1.04-.17.04a.22.22 0 0 1-.15-.06c-.05-.04-.08-.12-.1-.23-.02-.12-.03-.43-.03-.94v-1.83c0-.52-.03-.86-.1-1.03-.11-.25-.28-.44-.51-.57-.31-.16-.7-.24-1.17-.24-.63 0-1.11.15-1.45.43-.35.28-.52.59-.52.92 0 .18.05.32.14.42s.21.15.35.15c.15 0 .27-.05.37-.15.09-.09.13-.23.13-.41l-.01-.34a.63.63 0 0 1 .22-.46c.15-.13.34-.2.59-.2.32 0 .57.1.74.3s.26.57.26 1.1v.21c-.93.34-1.59.62-1.98.86-.4.23-.68.48-.84.75-.11.19-.17.42-.17.68 0 .41.12.75.36 1s.54.38.92.38a1.56 1.56 0 0 0 .67-.15c.14-.06.49-.31 1.04-.73 0 .32.06.54.17.68zm-1.35-.48c-.21 0-.41-.09-.58-.28-.16-.18-.25-.42-.25-.7 0-.22.07-.42.2-.61s.35-.37.66-.54c.18-.1.56-.26 1.15-.5v2.05c-.49.39-.88.58-1.18.58z"/><path id="U" d="M399.132 311.16h.27l1.59-.66-.07-.2c-.17.06-.31.1-.42.1a.31.31 0 0 1-.22-.09c-.07-.05-.11-.15-.14-.29-.03-.13-.05-.52-.05-1.15v-6.2h-.26l-1.6.65.08.21c.16-.06.3-.09.4-.09.09 0 .17.02.23.07.07.05.11.15.14.29s.05.52.05 1.13v.99c-.31-.3-.7-.45-1.18-.45-.76 0-1.38.32-1.87.96a3.43 3.43 0 0 0-.72 2.11c0 .77.22 1.4.65 1.89.44.49.95.73 1.54.73a1.99 1.99 0 0 0 .81-.17c.25-.12.5-.32.77-.59v.76zm-1.04-.64c-.42 0-.8-.21-1.14-.63-.35-.42-.52-1.02-.52-1.81 0-.78.18-1.38.53-1.79.27-.3.58-.46.92-.46.19 0 .38.06.57.17s.35.28.47.49c.11.22.18.47.21.73v2.77c-.34.35-.68.53-1.04.53z"/><path id="V" d="M392.937 302.84c-.12.12-.18.26-.18.42s.06.3.18.42.26.18.42.18.3-.06.42-.18c.11-.12.17-.26.17-.42s-.06-.3-.17-.42c-.12-.11-.26-.17-.42-.17-.17 0-.31.06-.42.17zm.65 2.63l-1.62.66.08.21c.16-.06.29-.09.4-.09.1 0 .18.03.24.08s.1.13.13.26c.04.17.05.55.05 1.13v2.07c0 .33-.02.55-.08.67-.05.12-.12.2-.21.25s-.26.08-.53.08v.21h2.61v-.21c-.25 0-.43-.03-.52-.08-.1-.06-.17-.14-.22-.25s-.07-.34-.07-.67v-4.32h-.26z"/><path id="W" d="M394.71 308.88c-.2.47-.41.8-.62.98-.31.26-.65.39-1.03.39-.54 0-.96-.25-1.28-.74-.31-.49-.47-1.05-.47-1.69 0-.63.16-1.14.47-1.52.24-.29.56-.43.95-.43.24 0 .43.06.57.17.13.12.21.3.23.53s.07.39.13.47c.12.15.3.22.53.22.17 0 .3-.04.4-.14a.49.49 0 0 0 .14-.36c0-.3-.17-.59-.51-.87s-.77-.42-1.3-.42c-.7 0-1.31.27-1.81.8-.5.52-.75 1.21-.75 2.05 0 .87.23 1.56.68 2.08.45.51.98.76 1.59.76.52 0 .98-.19 1.4-.57.43-.38.71-.92.85-1.63l-.17-.08z"/><path id="X" d="M392.585 305.47c-.05.1-.09.16-.12.19-.04.02-.09.04-.15.04-.07 0-.2-.03-.4-.09-.3-.09-.55-.14-.77-.14-.48 0-.87.15-1.17.45s-.45.67-.45 1.11c0 .34.08.62.26.84.18.23.55.48 1.11.76.57.28.95.52 1.14.7s.28.41.28.68a.75.75 0 0 1-.25.57c-.17.16-.39.24-.66.24-.39 0-.73-.14-1.04-.42-.31-.27-.52-.69-.63-1.23h-.19v1.91h.19c.05-.1.12-.15.21-.15a1.1 1.1 0 0 1 .32.06c.42.12.8.17 1.13.17a1.93 1.93 0 0 0 1.23-.44 1.46 1.46 0 0 0 .56-1.18c0-.64-.4-1.15-1.19-1.53l-.86-.42c-.37-.18-.61-.35-.74-.51-.12-.16-.18-.34-.18-.56 0-.18.08-.34.25-.48.17-.15.39-.22.66-.22.36 0 .66.1.89.31s.42.6.57 1.17h.19v-1.83h-.19z"/><path id="Y" d="M386.991 306.35c.14-.05.26-.08.36-.08.11 0 .21.02.27.07.07.05.12.12.15.21.03.1.05.32.05.66v5.08c0 .39-.02.63-.06.73a.51.51 0 0 1-.17.21c-.16.08-.34.12-.55.12h-.15v.22h2.81v-.22c-.29 0-.49-.03-.6-.09-.12-.06-.19-.14-.24-.24-.04-.1-.07-.33-.07-.7v-1.63c.2.18.37.29.53.35.21.08.46.12.75.12.66 0 1.22-.24 1.65-.74.53-.61.8-1.37.8-2.3 0-.83-.22-1.5-.66-2.01-.36-.42-.81-.64-1.35-.64-.31 0-.6.1-.88.29s-.56.52-.84.99v-1.25h-.22l-1.65.67.07.18zm2.5.11c.18-.09.37-.14.56-.14.34 0 .64.16.89.46.36.44.54 1.07.54 1.89 0 .73-.16 1.29-.48 1.69a1.16 1.16 0 0 1-.95.45c-.32 0-.59-.08-.8-.26-.22-.17-.35-.37-.4-.59-.04-.14-.06-.42-.06-.86v-2c.33-.35.56-.56.7-.64z"/><path id="Z" d="M594.404 271.82c-.39.24-.72.6-.96 1.08-.24.49-.37.98-.37 1.47 0 .67.21 1.28.61 1.83.47.64 1.12.96 1.93.96a2.54 2.54 0 0 0 1.35-.37c.4-.25.72-.62.95-1.11a3.45 3.45 0 0 0 .34-1.46c0-.69-.2-1.29-.62-1.82a2.39 2.39 0 0 0-1.96-.93c-.45 0-.87.12-1.27.35zm2.15.6c.41.54.61 1.29.61 2.25 0 .76-.12 1.3-.37 1.61-.24.31-.55.47-.93.47-.51 0-.92-.29-1.23-.85-.31-.57-.47-1.24-.47-2.02 0-.49.07-.88.2-1.19s.3-.53.5-.65a1.26 1.26 0 0 1 .63-.18c.43 0 .78.18 1.06.56z"/><path id="a" d="M595.644 271.47h-.25l-1.62.66.09.21c.15-.06.28-.09.39-.09.1 0 .18.03.24.08s.1.13.13.26c.03.18.05.56.05 1.15v2.05c0 .33-.02.55-.07.67a.51.51 0 0 1-.23.25c-.09.05-.27.08-.51.08v.21h2.65v-.21c-.29 0-.49-.03-.58-.08a.47.47 0 0 1-.22-.24c-.05-.1-.07-.33-.07-.68v-2.88c.17-.21.42-.41.75-.58.21-.11.41-.17.63-.17.3 0 .54.13.72.38.13.19.19.5.19.94v2.31c0 .32-.01.51-.03.58-.04.14-.12.24-.23.31s-.32.11-.61.11v.21h2.71v-.21c-.27 0-.47-.03-.58-.09a.51.51 0 0 1-.23-.23c-.04-.09-.06-.32-.06-.68v-2.56l-.02-.26.02-.06c.29-.28.55-.47.76-.58a1.38 1.38 0 0 1 .62-.15c.34 0 .58.12.73.37.11.18.16.49.16.93v2.31l-.02.57c-.04.13-.11.23-.2.29-.13.09-.31.14-.54.14h-.11v.21h2.65v-.21c-.24 0-.41-.03-.51-.09-.11-.06-.18-.14-.22-.22-.05-.13-.08-.36-.08-.69v-2.31c0-.49-.04-.84-.13-1.07-.13-.33-.3-.57-.52-.72-.22-.14-.47-.22-.76-.22s-.58.08-.85.22c-.28.15-.62.46-1.02.93-.09-.37-.25-.66-.49-.85-.24-.2-.53-.3-.87-.3a1.62 1.62 0 0 0-.6.13 2.1 2.1 0 0 0-.57.34c-.07.06-.3.29-.69.68v-1.15z"/><path id="b" d="M599.991 271.63v.22c.35.01.58.07.7.17.11.11.16.32.16.62v3.04c-.29.3-.54.5-.76.61-.21.1-.4.15-.57.15a.91.91 0 0 1-.63-.23c-.17-.16-.26-.49-.26-.99v-3.59h-1.88v.22c.28 0 .48.02.58.07a.62.62 0 0 1 .25.23c.05.1.08.27.08.53v2.39c0 .5.04.89.13 1.16.08.28.24.5.46.67.22.18.48.26.78.26.27 0 .53-.06.77-.19s.59-.44 1.05-.94v1.13h.27l1.6-.66-.08-.2c-.15.06-.29.1-.41.1-.09 0-.16-.03-.23-.09-.06-.05-.11-.15-.14-.29-.03-.13-.04-.51-.04-1.14v-3.25h-1.83z"/><path id="c" d="M893.772 287.95c.26-.1.48-.23.67-.41l-.31-.51c-.05-.06-.1-.1-.15-.1-.04 0-.07.02-.12.05-.04.03-.09.06-.15.1l-.21.1c-.08.03-.18.04-.29.04-.2 0-.36-.06-.48-.19-.13-.12-.19-.31-.19-.57v-3.64h1.74v-.78h-1.74v-2.09h-.54c-.07 0-.12.02-.17.06-.04.03-.07.08-.07.14l-.25 1.88-1 .13v.42c0 .08.03.14.07.18s.1.06.16.06h.73v3.72c0 .5.13.89.39 1.15.26.27.63.41 1.11.41.27 0 .54-.05.8-.15z"/><path id="d" d="M899.434 281.92h-.85c-.07 0-.14.02-.19.07-.06.04-.1.09-.13.15l-1.57 3.83a2.95 2.95 0 0 0-.1.27 1.73 1.73 0 0 0-.08.27c-.02-.1-.05-.19-.07-.27l-.1-.27-1.62-3.83c-.03-.05-.06-.1-.12-.15a.33.33 0 0 0-.21-.07h-.93l2.51 5.73-1.11 2.41h.79c.12 0 .2-.03.25-.07.06-.05.1-.12.14-.2l3.39-7.87z"/><path id="e" d="M894.54 288v-4.48c.24-.26.49-.46.76-.61a1.74 1.74 0 0 1 .89-.23c.43 0 .75.13.96.38s.32.61.32 1.07V288h1.06v-3.87c0-.34-.04-.66-.13-.94a2.04 2.04 0 0 0-.39-.73 1.74 1.74 0 0 0-.63-.47c-.26-.11-.55-.16-.88-.16-.43 0-.81.09-1.13.27a3.48 3.48 0 0 0-.89.7l-.08-.66a.28.28 0 0 0-.29-.22h-.63V288h1.06z"/><path id="f" d="M897.608 288v-3.87c.17-.41.38-.73.63-.94.25-.22.56-.33.93-.33.21 0 .37.02.49.06s.2.06.26.06c.09 0 .16-.05.18-.15l.14-.8c-.11-.07-.24-.12-.38-.16-.13-.04-.28-.06-.45-.06-.41 0-.77.12-1.08.36s-.56.57-.77.99l-.07-.94c-.02-.11-.05-.19-.09-.23-.05-.05-.13-.07-.24-.07h-.61V288h1.06z"/><path id="g" d="M901.04 282.53c-.24-.22-.51-.39-.83-.51-.32-.13-.68-.19-1.08-.19-.34 0-.65.04-.91.14a2.13 2.13 0 0 0-.68.39c-.19.16-.33.35-.42.56-.1.22-.15.44-.15.67 0 .26.05.48.14.66.09.19.21.34.36.46.14.13.31.23.5.31l.58.22.59.18c.19.06.36.13.5.21.15.08.27.17.36.28s.14.25.14.42c0 .13-.03.26-.08.38a.9.9 0 0 1-.23.32c-.1.09-.23.16-.39.22a1.82 1.82 0 0 1-.55.08c-.24 0-.44-.03-.61-.09a1.74 1.74 0 0 1-.41-.18l-.29-.19c-.08-.05-.16-.08-.23-.08s-.13.01-.17.04c-.05.03-.08.07-.12.12l-.25.41a3.03 3.03 0 0 0 .88.53 3.02 3.02 0 0 0 1.15.21c.37 0 .7-.05.98-.15a2.09 2.09 0 0 0 .72-.41c.2-.18.35-.38.45-.62s.15-.5.15-.78c0-.24-.05-.45-.14-.63-.09-.17-.21-.32-.35-.44a2.14 2.14 0 0 0-.51-.3l-.58-.22-.58-.18a4.73 4.73 0 0 1-.5-.2c-.15-.08-.27-.17-.36-.27-.09-.11-.13-.24-.13-.39 0-.13.02-.24.08-.35a.86.86 0 0 1 .23-.28 1.29 1.29 0 0 1 .37-.19 1.87 1.87 0 0 1 .49-.07c.21 0 .39.03.54.07l.39.15.28.15a.48.48 0 0 0 .2.07c.1 0 .18-.05.23-.14l.24-.39z"/></defs><g clip-path="url(#A)"><g class="C D"><use xlink:href="#C"/></g><g class="C E F G H I"><path d="M193.72 306.584v10.672"/></g><g class="C D"><use xlink:href="#D"/></g><g class="C J"><use xlink:href="#E"/></g><g class="C D"><path d="M466.356 291.558c0-1.179-.956-2.136-2.136-2.136s-2.136.957-2.136 2.136.957 2.136 2.136 2.136 2.136-.956 2.136-2.136z"/></g><g class="C E F G H I"><path d="M464.22 275.584v10.672"/></g><g class="C D"><path d="M470.148 265.799a5.93 5.93 0 0 0-5.928-5.928 5.93 5.93 0 0 0-5.928 5.928 5.93 5.93 0 0 0 5.928 5.928 5.93 5.93 0 0 0 5.928-5.928z"/></g><g class="C J"><path d="M466.72 265.799a2.5 2.5 0 1 0-5 0 2.5 2.5 0 1 0 5 0z"/></g><g class="C D"><path d="M732.856 260.058c0-1.179-.956-2.136-2.136-2.136s-2.136.957-2.136 2.136.957 2.136 2.136 2.136 2.136-.956 2.136-2.136z"/></g><g class="C E F G H I"><path d="M730.72 244.084v10.672"/></g><g class="C D"><path d="M736.648 234.299a5.93 5.93 0 0 0-5.928-5.928 5.93 5.93 0 0 0-5.928 5.928 5.93 5.93 0 0 0 5.928 5.928 5.93 5.93 0 0 0 5.928-5.928z"/></g><g class="C J"><path d="M733.22 234.299a2.5 2.5 0 1 0-5 0 2.5 2.5 0 1 0 5 0z"/></g><g class="C"><path d="M131.17 334.4v.98h2.79V343h1.16v-7.62h2.78v-.98h-6.73z" class="B"/><path d="M135.02 343v-4.48c.24-.26.49-.46.76-.61a1.74 1.74 0 0 1 .89-.23c.43 0 .75.13.96.38s.32.61.32 1.07V343h1.06v-3.87c0-.34-.04-.66-.13-.94a2.04 2.04 0 0 0-.39-.73 1.74 1.74 0 0 0-.63-.47c-.26-.11-.55-.16-.88-.16-.41 0-.78.08-1.09.25a3.04 3.04 0 0 0-.87.66v-3.58h-1.06V343h1.06z" class="B"/><use xlink:href="#F" class="B"/><use xlink:href="#G" class="B"/><use xlink:href="#H" class="B"/><path d="M137.326 337.06c-.35.15-.65.36-.89.63s-.43.59-.56.96-.2.76-.2 1.19c0 .52.08.99.22 1.39a2.87 2.87 0 0 0 .6 1.02c.26.27.57.48.92.62a3.11 3.11 0 0 0 1.16.21c.22 0 .44-.02.67-.05.22-.04.44-.1.65-.17.21-.08.41-.18.59-.29a2.11 2.11 0 0 0 .47-.42l-.3-.39c-.04-.07-.11-.1-.2-.1-.07 0-.15.03-.24.09l-.35.2c-.14.07-.31.14-.51.2a2.31 2.31 0 0 1-.69.09c-.29 0-.55-.04-.78-.14a1.56 1.56 0 0 1-.6-.42c-.17-.19-.3-.43-.39-.71-.1-.29-.15-.62-.16-1.01h4.04c.1 0 .17-.02.21-.08.03-.06.05-.17.05-.34 0-.43-.06-.81-.19-1.15-.12-.34-.3-.62-.52-.85-.23-.23-.49-.41-.8-.53a2.75 2.75 0 0 0-1.01-.18c-.44 0-.83.07-1.19.23zm1.87.68c.19.08.35.19.48.34s.23.33.3.54c.07.2.1.43.1.68h-3.3c.07-.53.25-.94.55-1.24.29-.3.7-.45 1.22-.45a1.51 1.51 0 0 1 .65.13z" class="B"/><use xlink:href="#I" class="B"/><path d="M140.96 337.53c-.24-.22-.51-.39-.83-.51-.32-.13-.68-.19-1.08-.19-.34 0-.65.04-.91.14a2.13 2.13 0 0 0-.68.39c-.19.16-.33.35-.42.56-.1.22-.15.44-.15.67 0 .26.05.48.14.66.09.19.21.34.36.46.14.13.31.23.5.31l.58.22.59.18c.19.06.36.13.5.21.15.08.27.17.36.28s.14.25.14.42c0 .13-.03.26-.08.38a.9.9 0 0 1-.23.32c-.1.09-.23.16-.39.22a1.82 1.82 0 0 1-.55.08c-.24 0-.44-.03-.61-.09a1.74 1.74 0 0 1-.41-.18l-.29-.19c-.08-.05-.16-.08-.23-.08s-.13.01-.17.04c-.05.03-.08.07-.12.12l-.25.41a3.03 3.03 0 0 0 .88.53 3.02 3.02 0 0 0 1.15.21c.37 0 .7-.05.98-.15a2.09 2.09 0 0 0 .72-.41c.2-.18.35-.38.45-.62s.15-.5.15-.78c0-.24-.05-.45-.14-.63-.09-.17-.21-.32-.35-.44a2.14 2.14 0 0 0-.51-.3l-.58-.22-.58-.18a4.73 4.73 0 0 1-.5-.2c-.15-.08-.27-.17-.36-.27-.09-.11-.13-.24-.13-.39 0-.13.02-.24.08-.35a.86.86 0 0 1 .23-.28 1.29 1.29 0 0 1 .37-.19 1.87 1.87 0 0 1 .49-.07c.21 0 .39.03.54.07l.39.15.28.15c.08.04.14.07.2.07.1 0 .18-.05.23-.14l.24-.39z" class="B"/><path d="M136.074 343v-5.18h1.72v-.78h-1.76v-.56c0-.26.03-.47.09-.65s.14-.32.25-.43a1.09 1.09 0 0 1 .39-.23 1.55 1.55 0 0 1 .5-.07h.18a.91.91 0 0 0 .27-.03c.07-.01.1-.06.11-.14l.02-.53c-.23-.08-.48-.12-.76-.12-.32 0-.6.04-.86.14s-.48.24-.66.42c-.18.19-.32.42-.42.69s-.14.58-.14.92v.59h-.96v.44c0 .08.02.14.08.18a.42.42 0 0 0 .2.1l.68.07V343h1.07z" class="B"/><path d="M133.928 336.92V343h1.06v-6.08h-1.06zm1.24-2.2a.74.74 0 0 0-.17-.25c-.07-.07-.15-.12-.24-.16s-.19-.06-.29-.06a.73.73 0 0 0-.3.06c-.09.04-.17.09-.24.16s-.12.15-.16.25c-.04.09-.06.19-.06.29a.73.73 0 0 0 .06.3c.04.09.09.17.16.24s.15.12.24.16a.73.73 0 0 0 .3.06c.1 0 .2-.02.29-.06s.17-.09.24-.16.13-.15.17-.24a.73.73 0 0 0 .06-.3c0-.1-.02-.2-.06-.29z" class="B"/><path d="M132.94 343v-4.48c.24-.26.49-.46.76-.61a1.74 1.74 0 0 1 .89-.23c.43 0 .75.13.96.38s.32.61.32 1.07V343h1.06v-3.87c0-.34-.04-.66-.13-.94a2.04 2.04 0 0 0-.39-.73 1.74 1.74 0 0 0-.63-.47c-.26-.11-.55-.16-.88-.16-.43 0-.81.09-1.13.27a3.48 3.48 0 0 0-.89.7l-.08-.66a.28.28 0 0 0-.29-.22h-.63V343h1.06z" class="B"/><path d="M138.462 343v-8.84h-1.07v3.37c-.21-.22-.44-.4-.71-.53-.26-.12-.58-.19-.95-.19a2.44 2.44 0 0 0-1.1.25c-.33.16-.6.38-.83.67-.23.28-.4.62-.52 1-.12.39-.18.8-.18 1.25a5.35 5.35 0 0 0 .16 1.34 2.83 2.83 0 0 0 .47.97c.2.26.44.46.72.59a2.13 2.13 0 0 0 .95.2c.43 0 .81-.09 1.15-.28a3.19 3.19 0 0 0 .89-.76l.1.74a.26.26 0 0 0 .28.22h.64zm-3.37-.91c-.19-.08-.35-.21-.48-.39-.13-.19-.23-.42-.3-.7s-.1-.62-.1-1.02c0-.75.15-1.32.45-1.73.31-.4.74-.6 1.31-.6.28 0 .54.05.78.16.23.1.45.29.64.55v2.94c-.22.29-.46.52-.72.68s-.57.24-.92.24c-.24 0-.46-.04-.66-.13z" class="B"/><path d="M137.746 336.92h-.85c-.07 0-.14.02-.19.07-.06.04-.1.09-.13.15l-1.57 3.83c-.04.09-.07.18-.1.27a1.73 1.73 0 0 0-.08.27c-.02-.1-.05-.19-.07-.27l-.1-.27-1.62-3.83c-.03-.05-.06-.1-.12-.15a.33.33 0 0 0-.21-.07h-.93l2.51 5.73-1.11 2.41h.79c.12 0 .2-.03.25-.07.06-.05.1-.12.14-.2l3.39-7.87z" class="B"/><use xlink:href="#J" class="B"/><path d="M135.242 336.92v3.88c0 .34.04.66.13.94s.22.53.39.73a1.67 1.67 0 0 0 .64.46c.25.11.54.17.88.17.42 0 .8-.09 1.12-.27a3.17 3.17 0 0 0 .89-.71l.09.66a.26.26 0 0 0 .28.22h.64v-6.08h-1.07v4.48c-.23.27-.48.47-.76.62s-.57.22-.88.22c-.43 0-.75-.12-.96-.37-.21-.26-.32-.61-.32-1.07v-3.88h-1.07z" class="B"/><path d="M138.124 343v-3.87c.17-.41.38-.73.63-.94.25-.22.56-.33.93-.33.21 0 .37.02.49.06s.2.06.26.06c.09 0 .16-.05.18-.15l.14-.8c-.11-.07-.24-.12-.38-.16-.13-.04-.28-.06-.45-.06-.41 0-.77.12-1.08.36s-.56.57-.77.99l-.07-.94c-.02-.11-.05-.19-.09-.23-.05-.05-.13-.07-.24-.07h-.61V343h1.06z" class="B"/><use xlink:href="#K" class="B"/><use xlink:href="#L" class="B"/><use xlink:href="#M" class="B"/><path d="M139.266 337.06c-.35.15-.65.36-.89.63s-.43.59-.56.96-.2.76-.2 1.19c0 .52.08.99.22 1.39a2.87 2.87 0 0 0 .6 1.02c.26.27.57.48.92.62a3.11 3.11 0 0 0 1.16.21c.22 0 .44-.02.67-.05.22-.04.44-.1.65-.17.21-.08.41-.18.59-.29a2.11 2.11 0 0 0 .47-.42l-.3-.39c-.04-.07-.11-.1-.2-.1-.07 0-.15.03-.24.09l-.35.2c-.14.07-.31.14-.51.2a2.31 2.31 0 0 1-.69.09c-.29 0-.55-.04-.78-.14a1.56 1.56 0 0 1-.6-.42c-.17-.19-.3-.43-.39-.71-.1-.29-.15-.62-.16-1.01h4.04c.1 0 .17-.02.21-.08.03-.06.05-.17.05-.34 0-.43-.06-.81-.19-1.15-.12-.34-.3-.62-.52-.85-.23-.23-.49-.41-.8-.53a2.75 2.75 0 0 0-1.01-.18c-.44 0-.83.07-1.19.23zm1.87.68c.19.08.35.19.48.34s.23.33.3.54c.07.2.1.43.1.68h-3.3c.07-.53.25-.94.55-1.24.29-.3.7-.45 1.22-.45a1.51 1.51 0 0 1 .65.13z" class="B"/><path d="M394.46 303.05l-.1 1.87h.23c.02-.36.11-.65.25-.86.15-.21.32-.35.53-.43.15-.05.42-.08.79-.08h.95v6.07c0 .45-.04.73-.13.86-.14.2-.38.3-.71.3h-.28v.22h3.37v-.22h-.28c-.31 0-.54-.08-.69-.24-.1-.12-.15-.43-.15-.92v-6.07h1.12c.32 0 .59.06.79.16a1.22 1.22 0 0 1 .48.5c.08.15.14.38.18.71h.22l-.09-1.87h-6.48z" class="B"/><use xlink:href="#N" class="B"/><use xlink:href="#O" class="B"/><use xlink:href="#P" class="B"/><use xlink:href="#Q" class="B"/><path d="M396.669 302.67l-1.6.65.08.21c.18-.06.31-.09.4-.09.1 0 .18.02.24.07s.11.15.13.29c.03.14.05.52.05 1.13v4.86c0 .33-.02.56-.07.67-.05.1-.11.18-.19.22-.14.07-.32.11-.56.11v.21h2.66v-.21c-.28 0-.47-.03-.58-.09a.51.51 0 0 1-.23-.23c-.04-.09-.06-.32-.06-.68v-2.84c.29-.31.54-.51.75-.61a1.22 1.22 0 0 1 .59-.16c.19 0 .35.05.48.14.14.09.23.23.29.41.06.19.09.57.09 1.16v1.9l-.01.55a.56.56 0 0 1-.21.33c-.1.08-.27.12-.52.12h-.12v.21h2.63v-.21c-.25 0-.42-.03-.51-.08-.1-.06-.16-.13-.2-.23-.06-.12-.08-.35-.08-.69v-1.9c0-.67-.04-1.12-.11-1.37-.11-.36-.27-.63-.49-.79a1.25 1.25 0 0 0-.79-.26c-.25 0-.5.07-.76.21-.25.13-.6.44-1.03.91v-3.92h-.27z" class="B"/><path d="M400.979 307.65c0-.66-.2-1.19-.58-1.59-.39-.39-.88-.59-1.49-.59a2.31 2.31 0 0 0-1.77.77c-.47.51-.7 1.23-.7 2.15 0 .84.22 1.52.68 2.02s1.01.75 1.66.75a1.9 1.9 0 0 0 1.48-.66c.4-.43.63-.92.72-1.46l-.19-.11c-.17.46-.39.8-.65.99s-.56.29-.92.29c-.52 0-.98-.23-1.37-.68s-.59-1.08-.58-1.88h3.71zm-3.26-1.39c.25-.25.54-.38.87-.38.21 0 .41.07.6.19.2.13.34.3.44.52.06.14.1.38.12.72h-2.48c.04-.44.19-.8.45-1.05z" class="B"/><use xlink:href="#R" class="B"/><use xlink:href="#S" class="B"/><path d="M399.3 307.65c0-.66-.2-1.19-.58-1.59-.39-.39-.88-.59-1.49-.59a2.31 2.31 0 0 0-1.77.77c-.47.51-.7 1.23-.7 2.15 0 .84.22 1.52.68 2.02s1.01.75 1.66.75a1.9 1.9 0 0 0 1.48-.66c.4-.43.63-.92.72-1.46l-.19-.11c-.17.46-.39.8-.65.99s-.56.29-.92.29c-.52 0-.98-.23-1.37-.68s-.59-1.08-.58-1.88h3.71zm-3.26-1.39c.25-.25.54-.38.87-.38.21 0 .41.07.6.19.2.13.34.3.44.52.06.14.1.38.12.72h-2.48c.04-.44.19-.8.45-1.05z" class="B"/><use xlink:href="#T" class="B"/><use xlink:href="#U" class="B"/><path d="M397.552 310.91c.12.13.27.2.46.2.4 0 .82-.3 1.25-.88v-.33l-.47.43c-.05.02-.1.04-.17.04a.22.22 0 0 1-.15-.06c-.05-.04-.08-.12-.1-.23-.02-.12-.03-.43-.03-.94v-1.83c0-.52-.03-.86-.1-1.03-.11-.25-.28-.44-.51-.57-.31-.16-.7-.24-1.17-.24-.63 0-1.11.15-1.45.43-.35.28-.52.59-.52.92 0 .18.05.32.14.42s.21.15.35.15c.15 0 .27-.05.37-.15.09-.09.13-.23.13-.41l-.01-.34a.63.63 0 0 1 .22-.46c.15-.13.34-.2.59-.2.32 0 .57.1.74.3s.26.57.26 1.1v.21c-.93.34-1.59.62-1.98.86-.4.23-.68.48-.84.75-.11.19-.17.42-.17.68 0 .41.12.75.36 1s.54.38.92.38a1.56 1.56 0 0 0 .67-.15c.14-.06.49-.31 1.04-.73 0 .32.06.54.17.68zm-1.35-.48c-.21 0-.41-.09-.58-.28-.16-.18-.25-.42-.25-.7 0-.22.07-.42.2-.61s.35-.37.66-.54c.18-.1.56-.26 1.15-.5v2.05c-.49.39-.88.58-1.18.58z" class="B"/><path d="M395.987 305.47l-1.62.66.05.21c.16-.06.29-.09.41-.09.11 0 .19.03.26.09.07.05.11.14.14.26s.04.49.04 1.11v2.08c0 .32-.01.51-.03.57-.04.14-.11.24-.21.3-.13.09-.33.13-.61.13v.21h2.75v-.21c-.24 0-.42-.04-.55-.11s-.22-.15-.27-.26c-.08-.15-.11-.38-.11-.67v-2.58c.18-.36.36-.63.54-.79.08-.08.16-.11.23-.11.08 0 .21.06.38.2.17.13.32.2.46.2s.26-.05.36-.16a.52.52 0 0 0 .15-.38c0-.18-.07-.33-.21-.46s-.32-.2-.53-.2c-.47 0-.94.41-1.38 1.21v-1.21h-.25z" class="B"/><path d="M395.033 303.87l-.37.81c-.18.28-.38.53-.6.73-.23.21-.45.35-.66.44v.19h.85v3.61c0 .39.04.68.12.86.08.19.21.33.38.43a1.04 1.04 0 0 0 .53.15c.26 0 .52-.1.77-.29.25-.2.44-.48.58-.87h-.23c-.06.16-.16.28-.28.36a.65.65 0 0 1-.37.12c-.16 0-.29-.06-.39-.18s-.15-.36-.15-.71v-3.48h1.26v-.41h-1.26v-1.76h-.18z" class="B"/><use xlink:href="#V" class="B"/><use xlink:href="#W" class="B"/><path d="M392.236 302.67l-1.6.65.1.21c.15-.06.28-.09.38-.09a.38.38 0 0 1 .24.07c.06.05.1.15.13.29.02.13.04.51.04 1.11v4.88c0 .33-.03.55-.08.67s-.12.2-.21.25-.26.08-.5.08v.21h2.63v-.21c-.28 0-.47-.03-.57-.09-.1-.05-.18-.14-.23-.24-.04-.11-.07-.34-.07-.67v-7.12h-.26z" class="B"/><path d="M393.6 307.65c0-.66-.2-1.19-.58-1.59-.39-.39-.88-.59-1.49-.59a2.31 2.31 0 0 0-1.77.77c-.47.51-.7 1.23-.7 2.15 0 .84.22 1.52.68 2.02s1.01.75 1.66.75a1.9 1.9 0 0 0 1.48-.66c.4-.43.63-.92.72-1.46l-.19-.11c-.17.46-.39.8-.65.99s-.56.29-.92.29c-.52 0-.98-.23-1.37-.68s-.59-1.08-.58-1.88h3.71zm-3.26-1.39c.25-.25.54-.38.87-.38.21 0 .41.07.6.19.2.13.34.3.44.52.06.14.1.38.12.72h-2.48c.04-.44.19-.8.45-1.05z" class="B"/><use xlink:href="#X" class="B"/><path d="M390.196 310.91c.12.13.27.2.46.2.4 0 .82-.3 1.25-.88v-.33l-.47.43c-.05.02-.1.04-.17.04a.22.22 0 0 1-.15-.06c-.05-.04-.08-.12-.1-.23-.02-.12-.03-.43-.03-.94v-1.83c0-.52-.03-.86-.1-1.03-.11-.25-.28-.44-.51-.57-.31-.16-.7-.24-1.17-.24-.63 0-1.11.15-1.45.43-.35.28-.52.59-.52.92 0 .18.05.32.14.42s.21.15.35.15c.15 0 .27-.05.37-.15.09-.09.13-.23.13-.41l-.01-.34a.63.63 0 0 1 .22-.46c.15-.13.34-.2.59-.2.32 0 .57.1.74.3s.26.57.26 1.1v.21c-.93.34-1.59.62-1.98.86-.4.23-.68.48-.84.75-.11.19-.17.42-.17.68 0 .41.12.75.36 1s.54.38.92.38a1.56 1.56 0 0 0 .67-.15c.14-.06.49-.31 1.04-.73 0 .32.06.54.17.68zm-1.35-.48c-.21 0-.41-.09-.58-.28-.16-.18-.25-.42-.25-.7 0-.22.07-.42.2-.61s.35-.37.66-.54c.18-.1.56-.26 1.15-.5v2.05c-.49.39-.88.58-1.18.58z" class="B"/><path d="M388.871 305.47h-.25l-1.62.66.09.21c.15-.06.28-.09.39-.09.1 0 .18.03.24.08s.11.15.14.29.04.53.04 1.17v2c0 .39-.05.65-.14.79-.1.14-.28.21-.55.21h-.12v.21h2.65v-.21c-.29 0-.48-.03-.58-.08s-.17-.14-.23-.25c-.04-.08-.06-.31-.06-.67v-2.83c.46-.51.92-.76 1.39-.76.3 0 .51.11.64.33s.19.57.19 1.06v2.2l-.02.55a.56.56 0 0 1-.21.33c-.1.08-.28.12-.53.12h-.11v.21h2.66v-.21c-.26 0-.44-.03-.53-.08-.1-.06-.17-.13-.21-.23-.06-.12-.08-.35-.08-.69v-2.29c0-.49-.05-.85-.13-1.08-.13-.34-.29-.58-.51-.73-.21-.14-.46-.22-.75-.22-.57 0-1.17.38-1.8 1.14v-1.14z" class="B"/><path d="M392.101 311.16h.27l1.59-.66-.07-.2c-.17.06-.31.1-.42.1a.31.31 0 0 1-.22-.09c-.07-.05-.11-.15-.14-.29-.03-.13-.05-.52-.05-1.15v-6.2h-.26l-1.6.65.08.21c.16-.06.3-.09.4-.09.09 0 .17.02.23.07.07.05.11.15.14.29s.05.52.05 1.13v.99c-.31-.3-.7-.45-1.18-.45-.76 0-1.38.32-1.87.96a3.43 3.43 0 0 0-.72 2.11c0 .77.22 1.4.65 1.89.44.49.95.73 1.54.73a1.99 1.99 0 0 0 .81-.17c.25-.12.5-.32.77-.59v.76zm-1.04-.64c-.42 0-.8-.21-1.14-.63-.35-.42-.52-1.02-.52-1.81 0-.78.18-1.38.53-1.79.27-.3.58-.46.92-.46.19 0 .38.06.57.17s.35.28.47.49c.11.22.18.47.21.73v2.77c-.34.35-.68.53-1.04.53z" class="B"/><use xlink:href="#Y" class="B"/><path d="M391.521 310.91c.12.13.27.2.46.2.4 0 .82-.3 1.25-.88v-.33l-.47.43c-.05.02-.1.04-.17.04a.22.22 0 0 1-.15-.06c-.05-.04-.08-.12-.1-.23-.02-.12-.03-.43-.03-.94v-1.83c0-.52-.03-.86-.1-1.03-.11-.25-.28-.44-.51-.57-.31-.16-.7-.24-1.17-.24-.63 0-1.11.15-1.45.43-.35.28-.52.59-.52.92 0 .18.05.32.14.42s.21.15.35.15c.15 0 .27-.05.37-.15.09-.09.13-.23.13-.41l-.01-.34a.63.63 0 0 1 .22-.46c.15-.13.34-.2.59-.2.32 0 .57.1.74.3s.26.57.26 1.1v.21c-.93.34-1.59.62-1.98.86-.4.23-.68.48-.84.75-.11.19-.17.42-.17.68 0 .41.12.75.36 1s.54.38.92.38a1.56 1.56 0 0 0 .67-.15c.14-.06.49-.31 1.04-.73 0 .32.06.54.17.68zm-1.35-.48c-.21 0-.41-.09-.58-.28-.16-.18-.25-.42-.25-.7 0-.22.07-.42.2-.61s.35-.37.66-.54c.18-.1.56-.26 1.15-.5v2.05c-.49.39-.88.58-1.18.58z" class="B"/><path d="M389.297 309.82c-.11.19-.17.35-.17.48 0 .12.04.23.13.33.08.09.23.2.43.32l-.6.64c-.21.25-.34.45-.41.6-.04.09-.06.19-.06.28 0 .21.14.41.44.61.52.34 1.15.51 1.91.51.98 0 1.77-.29 2.38-.86.42-.38.62-.8.62-1.24 0-.32-.11-.59-.32-.81-.22-.22-.51-.35-.87-.4-.24-.04-.76-.06-1.57-.08l-.82-.04c-.18-.03-.31-.08-.38-.14a.28.28 0 0 1-.09-.19c0-.08.03-.17.09-.29.06-.11.18-.24.35-.39a2.89 2.89 0 0 0 .81.12c.65 0 1.16-.18 1.54-.53.39-.36.58-.78.58-1.28 0-.44-.11-.8-.33-1.08h.7c.16 0 .26-.01.29-.02s.05-.03.06-.05c.02-.04.03-.11.03-.21 0-.09-.01-.15-.03-.19-.01-.02-.03-.04-.06-.05s-.13-.01-.29-.01h-1.14c-.38-.25-.82-.38-1.33-.38-.63 0-1.14.2-1.54.58s-.6.84-.6 1.37a1.83 1.83 0 0 0 .26.95c.18.29.43.51.76.67-.4.34-.66.6-.77.78zm2.56-3.68c.27.35.4.84.4 1.46 0 .48-.09.83-.29 1.05-.19.22-.43.33-.73.33-.31 0-.57-.12-.77-.38-.27-.34-.4-.82-.4-1.44 0-.47.1-.83.29-1.06.2-.23.44-.34.73-.34.31 0 .57.12.77.38zm.18 4.99c.6.02 1 .07 1.21.16.2.08.3.23.3.43 0 .28-.17.55-.51.79-.33.25-.85.38-1.55.38-.74 0-1.3-.12-1.69-.37-.23-.14-.34-.3-.34-.49 0-.14.04-.3.14-.47.09-.18.23-.36.41-.56.47.07 1.15.11 2.03.13z" class="B"/><path d="M394.247 307.65c0-.66-.2-1.19-.58-1.59-.39-.39-.88-.59-1.49-.59a2.31 2.31 0 0 0-1.77.77c-.47.51-.7 1.23-.7 2.15 0 .84.22 1.52.68 2.02s1.01.75 1.66.75a1.9 1.9 0 0 0 1.48-.66c.4-.43.63-.92.72-1.46l-.19-.11c-.17.46-.39.8-.65.99s-.56.29-.92.29c-.52 0-.98-.23-1.37-.68s-.59-1.08-.58-1.88h3.71zm-3.26-1.39c.25-.25.54-.38.87-.38.21 0 .41.07.6.19.2.13.34.3.44.52.06.14.1.38.12.72h-2.48c.04-.44.19-.8.45-1.05z" class="B"/><path d="M393.232 305.47c-.05.1-.09.16-.12.19-.04.02-.09.04-.15.04-.07 0-.2-.03-.4-.09-.3-.09-.55-.14-.77-.14-.48 0-.87.15-1.17.45s-.45.67-.45 1.11c0 .34.08.62.26.84.18.23.55.48 1.11.76.57.28.95.52 1.14.7s.28.41.28.68a.75.75 0 0 1-.25.57c-.17.16-.39.24-.66.24-.39 0-.73-.14-1.04-.42-.31-.27-.52-.69-.63-1.23h-.19v1.91h.19c.05-.1.12-.15.21-.15a1.1 1.1 0 0 1 .32.06c.42.12.8.17 1.13.17a1.93 1.93 0 0 0 1.23-.44 1.46 1.46 0 0 0 .56-1.18c0-.64-.4-1.15-1.19-1.53l-.86-.42c-.37-.18-.61-.35-.74-.51-.12-.16-.18-.34-.18-.56 0-.18.08-.34.25-.48.17-.15.39-.22.66-.22.36 0 .66.1.89.31s.42.6.57 1.17h.19v-1.83h-.19z" class="B"/><path d="M596.29 268.87c-.04.19-.1.31-.16.37s-.15.09-.25.09c-.09 0-.24-.05-.46-.15-.47-.2-.92-.31-1.34-.31-.68 0-1.24.21-1.67.62-.44.41-.66.9-.66 1.47 0 .33.07.63.22.91.15.27.37.52.66.75.28.22.77.53 1.45.91l1.24.75c.23.17.4.35.51.55.1.2.16.4.16.59 0 .36-.15.66-.43.92s-.67.38-1.16.38c-.42 0-.81-.09-1.16-.28-.35-.18-.62-.42-.79-.7-.17-.29-.31-.71-.41-1.28h-.21v2.72h.21c.03-.18.07-.3.13-.36a.3.3 0 0 1 .23-.09c.1 0 .34.06.72.19l.76.21a4.4 4.4 0 0 0 .65.05c.73 0 1.33-.22 1.8-.65.47-.44.7-.96.7-1.56a1.97 1.97 0 0 0-.22-.91 2.36 2.36 0 0 0-.63-.75c-.27-.21-.78-.52-1.52-.92-.91-.48-1.48-.87-1.73-1.17-.16-.2-.25-.42-.25-.66 0-.32.13-.6.4-.85a1.46 1.46 0 0 1 1.01-.37c.36 0 .7.09 1.04.28.34.18.6.43.78.74s.3.73.38 1.26h.21v-2.75h-.21z" class="B"/><use xlink:href="#Z" class="B"/><use xlink:href="#a" class="B"/><path d="M602.998 273.65c0-.66-.2-1.19-.58-1.59-.39-.39-.88-.59-1.49-.59a2.31 2.31 0 0 0-1.77.77c-.47.51-.7 1.23-.7 2.15 0 .84.22 1.52.68 2.02s1.01.75 1.66.75a1.9 1.9 0 0 0 1.48-.66c.4-.43.63-.92.72-1.46l-.19-.11c-.17.46-.39.8-.65.99s-.56.29-.92.29c-.52 0-.98-.23-1.37-.68s-.59-1.08-.58-1.88h3.71zm-3.26-1.39c.25-.25.54-.38.87-.38.21 0 .41.07.6.19.2.13.34.3.44.52.06.14.1.38.12.72h-2.48c.04-.44.19-.8.45-1.05z" class="B"/><path d="M598.064 271.82c-.39.24-.72.6-.96 1.08-.24.49-.37.98-.37 1.47 0 .67.21 1.28.61 1.83.47.64 1.12.96 1.93.96a2.54 2.54 0 0 0 1.35-.37c.4-.25.72-.62.95-1.11a3.45 3.45 0 0 0 .34-1.46c0-.69-.2-1.29-.62-1.82a2.39 2.39 0 0 0-1.96-.93c-.45 0-.87.12-1.27.35zm2.15.6c.41.54.61 1.29.61 2.25 0 .76-.12 1.3-.37 1.61-.24.31-.55.47-.93.47-.51 0-.92-.29-1.23-.85-.31-.57-.47-1.24-.47-2.02 0-.49.07-.88.2-1.19s.3-.53.5-.65a1.26 1.26 0 0 1 .63-.18c.43 0 .78.18 1.06.56z" class="B"/><path d="M601.194 272.05v-.42h-1.39v-.38c0-.84.03-1.36.08-1.56.06-.2.15-.35.27-.44.13-.1.28-.15.46-.15a.84.84 0 0 1 .41.11c.12.08.25.22.39.43.15.22.27.36.37.42s.19.1.28.1c.12 0 .23-.06.33-.16s.15-.21.15-.33c0-.22-.11-.42-.34-.59-.34-.27-.72-.4-1.13-.4-.44 0-.83.11-1.19.34-.35.23-.61.53-.79.9-.17.37-.25.83-.25 1.36v.35h-1.05v.42h1.05v3.53c0 .39-.03.64-.08.78-.05.13-.14.23-.26.31a.82.82 0 0 1-.43.12h-.24v.21h3.2v-.21h-.48c-.25 0-.44-.09-.58-.26-.11-.13-.17-.45-.17-.95v-3.53h1.39zm-5.332-2.18l-.37.81c-.18.28-.38.53-.6.73-.23.21-.45.35-.66.44v.19h.85v3.61c0 .39.04.68.12.86.08.19.21.33.38.43a1.04 1.04 0 0 0 .53.15c.26 0 .52-.1.77-.29.25-.2.44-.48.58-.87h-.23c-.06.16-.16.28-.28.36a.65.65 0 0 1-.37.12c-.16 0-.29-.06-.39-.18s-.15-.36-.15-.71v-3.48h1.26v-.41h-1.26v-1.76h-.18z" class="B"/><path d="M594.126 268.67l-1.6.65.08.21c.18-.06.31-.09.4-.09.1 0 .18.02.24.07s.11.15.13.29c.03.14.05.52.05 1.13v4.86c0 .33-.02.56-.07.67-.05.1-.11.18-.19.22-.14.07-.32.11-.56.11v.21h2.66v-.21c-.28 0-.47-.03-.58-.09a.51.51 0 0 1-.23-.23c-.04-.09-.06-.32-.06-.68v-2.84c.29-.31.54-.51.75-.61a1.22 1.22 0 0 1 .59-.16c.19 0 .35.05.48.14.14.09.23.23.29.41.06.19.09.57.09 1.16v1.9l-.01.55a.56.56 0 0 1-.21.33c-.1.08-.27.12-.52.12h-.12v.21h2.63v-.21c-.25 0-.42-.03-.51-.08-.1-.06-.16-.13-.2-.23-.06-.12-.08-.35-.08-.69v-1.9c0-.67-.04-1.12-.11-1.37-.11-.36-.27-.63-.49-.79a1.25 1.25 0 0 0-.79-.26c-.25 0-.5.07-.76.21-.25.13-.6.44-1.03.91v-3.92h-.27z" class="B"/><path d="M598.436 273.65c0-.66-.2-1.19-.58-1.59-.39-.39-.88-.59-1.49-.59a2.31 2.31 0 0 0-1.77.77c-.47.51-.7 1.23-.7 2.15 0 .84.22 1.52.68 2.02s1.01.75 1.66.75a1.9 1.9 0 0 0 1.48-.66c.4-.43.63-.92.72-1.46l-.19-.11c-.17.46-.39.8-.65.99s-.56.29-.92.29c-.52 0-.98-.23-1.37-.68s-.59-1.08-.58-1.88h3.71zm-3.26-1.39c.25-.25.54-.38.87-.38.21 0 .41.07.6.19.2.13.34.3.44.52.06.14.1.38.12.72h-2.48c.04-.44.19-.8.45-1.05z" class="B"/><path d="M595.742 271.47h-.25l-1.62.66.09.21c.15-.06.28-.09.39-.09.1 0 .18.03.24.08s.1.13.13.26c.03.18.05.56.05 1.15v2.05c0 .33-.02.55-.07.67a.51.51 0 0 1-.23.25c-.09.05-.27.08-.51.08v.21h2.65v-.21c-.29 0-.49-.03-.58-.08a.47.47 0 0 1-.22-.24c-.05-.1-.07-.33-.07-.68v-2.88c.17-.21.42-.41.75-.58.21-.11.41-.17.63-.17.3 0 .54.13.72.38.13.19.19.5.19.94v2.31c0 .32-.01.51-.03.58-.04.14-.12.24-.23.31s-.32.11-.61.11v.21h2.71v-.21c-.27 0-.47-.03-.58-.09a.51.51 0 0 1-.23-.23c-.04-.09-.06-.32-.06-.68v-2.56l-.02-.26.02-.06c.29-.28.55-.47.76-.58a1.38 1.38 0 0 1 .62-.15c.34 0 .58.12.73.37.11.18.16.49.16.93v2.31l-.02.57c-.04.13-.11.23-.2.29-.13.09-.31.14-.54.14h-.11v.21h2.65v-.21c-.24 0-.41-.03-.51-.09-.11-.06-.18-.14-.22-.22-.05-.13-.08-.36-.08-.69v-2.31c0-.49-.04-.84-.13-1.07-.13-.33-.3-.57-.52-.72-.22-.14-.47-.22-.76-.22s-.58.08-.85.22c-.28.15-.62.46-1.02.93-.09-.37-.25-.66-.49-.85-.24-.2-.53-.3-.87-.3a1.62 1.62 0 0 0-.6.13 2.1 2.1 0 0 0-.57.34c-.07.06-.3.29-.69.68v-1.15z" class="B"/><path d="M599.695 276.91c.12.13.27.2.46.2.4 0 .82-.3 1.25-.88v-.33l-.47.43c-.05.02-.1.04-.17.04a.22.22 0 0 1-.15-.06c-.05-.04-.08-.12-.1-.23-.02-.12-.03-.43-.03-.94v-1.83c0-.52-.03-.86-.1-1.03-.11-.25-.28-.44-.51-.57-.31-.16-.7-.24-1.17-.24-.63 0-1.11.15-1.45.43-.35.28-.52.59-.52.92 0 .18.05.32.14.42s.21.15.35.15c.15 0 .27-.05.37-.15.09-.09.13-.23.13-.41l-.01-.34a.63.63 0 0 1 .22-.46c.15-.13.34-.2.59-.2.32 0 .57.1.74.3s.26.57.26 1.1v.21c-.93.34-1.59.62-1.98.86-.4.23-.68.48-.84.75-.11.19-.17.42-.17.68 0 .41.12.75.36 1s.54.38.92.38a1.56 1.56 0 0 0 .67-.15c.14-.06.49-.31 1.04-.73 0 .32.06.54.17.68zm-1.35-.48c-.21 0-.41-.09-.58-.28-.16-.18-.25-.42-.25-.7 0-.22.07-.42.2-.61s.35-.37.66-.54c.18-.1.56-.26 1.15-.5v2.05c-.49.39-.88.58-1.18.58z" class="B"/><path d="M598.131 271.47l-1.62.66.05.21c.16-.06.29-.09.41-.09.11 0 .19.03.26.09.07.05.11.14.14.26s.04.49.04 1.11v2.08c0 .32-.01.51-.03.57-.04.14-.11.24-.21.3-.13.09-.33.13-.61.13v.21h2.75v-.21c-.24 0-.42-.04-.55-.11s-.22-.15-.27-.26c-.08-.15-.11-.38-.11-.67v-2.58c.18-.36.36-.63.54-.79.08-.08.16-.11.23-.11.08 0 .21.06.38.2.17.13.32.2.46.2s.26-.05.36-.16a.52.52 0 0 0 .15-.38c0-.18-.07-.33-.21-.46s-.32-.2-.53-.2c-.47 0-.94.41-1.38 1.21v-1.21h-.25z" class="B"/><path d="M600.417 273.65c0-.66-.2-1.19-.58-1.59-.39-.39-.88-.59-1.49-.59a2.31 2.31 0 0 0-1.77.77c-.47.51-.7 1.23-.7 2.15 0 .84.22 1.52.68 2.02s1.01.75 1.66.75a1.9 1.9 0 0 0 1.48-.66c.4-.43.63-.92.72-1.46l-.19-.11c-.17.46-.39.8-.65.99s-.56.29-.92.29c-.52 0-.98-.23-1.37-.68s-.59-1.08-.58-1.88h3.71zm-3.26-1.39c.25-.25.54-.38.87-.38.21 0 .41.07.6.19.2.13.34.3.44.52.06.14.1.38.12.72h-2.48c.04-.44.19-.8.45-1.05z" class="B"/><path d="M595.072 268.84c-.12.12-.18.26-.18.42s.06.3.18.42.26.18.42.18.3-.06.42-.18c.11-.12.17-.26.17-.42s-.06-.3-.17-.42c-.12-.11-.26-.17-.42-.17-.17 0-.31.06-.42.17zm.65 2.63l-1.62.66.08.21c.16-.06.29-.09.4-.09.1 0 .18.03.24.08s.1.13.13.26c.04.17.05.55.05 1.13v2.07c0 .33-.02.55-.08.67-.05.12-.12.2-.21.25s-.26.08-.53.08v.21h2.61v-.21c-.25 0-.43-.03-.52-.08-.1-.06-.17-.14-.22-.25s-.07-.34-.07-.67v-4.32h-.26z" class="B"/><path d="M594.056 271.47h-.25l-1.62.66.09.21c.15-.06.28-.09.39-.09.1 0 .18.03.24.08s.1.13.13.26c.03.18.05.56.05 1.15v2.05c0 .33-.02.55-.07.67a.51.51 0 0 1-.23.25c-.09.05-.27.08-.51.08v.21h2.65v-.21c-.29 0-.49-.03-.58-.08a.47.47 0 0 1-.22-.24c-.05-.1-.07-.33-.07-.68v-2.88c.17-.21.42-.41.75-.58.21-.11.41-.17.63-.17.3 0 .54.13.72.38.13.19.19.5.19.94v2.31c0 .32-.01.51-.03.58-.04.14-.12.24-.23.31s-.32.11-.61.11v.21h2.71v-.21c-.27 0-.47-.03-.58-.09a.51.51 0 0 1-.23-.23c-.04-.09-.06-.32-.06-.68v-2.56l-.02-.26.02-.06c.29-.28.55-.47.76-.58a1.38 1.38 0 0 1 .62-.15c.34 0 .58.12.73.37.11.18.16.49.16.93v2.31l-.02.57c-.04.13-.11.23-.2.29-.13.09-.31.14-.54.14h-.11v.21h2.65v-.21c-.24 0-.41-.03-.51-.09-.11-.06-.18-.14-.22-.22-.05-.13-.08-.36-.08-.69v-2.31c0-.49-.04-.84-.13-1.07-.13-.33-.3-.57-.52-.72-.22-.14-.47-.22-.76-.22s-.58.08-.85.22c-.28.15-.62.46-1.02.93-.09-.37-.25-.66-.49-.85-.24-.2-.53-.3-.87-.3a1.62 1.62 0 0 0-.6.13 2.1 2.1 0 0 0-.57.34c-.07.06-.3.29-.69.68v-1.15z" class="B"/><path d="M596.48 272.35c.14-.05.26-.08.36-.08.11 0 .21.02.27.07.07.05.12.12.15.21.03.1.05.32.05.66v5.08c0 .39-.02.63-.06.73a.51.51 0 0 1-.17.21c-.16.08-.34.12-.55.12h-.15v.22h2.81v-.22c-.29 0-.49-.03-.6-.09-.12-.06-.19-.14-.24-.24-.04-.1-.07-.33-.07-.7v-1.63c.2.18.37.29.53.35.21.08.46.12.75.12.66 0 1.22-.24 1.65-.74.53-.61.8-1.37.8-2.3 0-.83-.22-1.5-.66-2.01-.36-.42-.81-.64-1.35-.64-.31 0-.6.1-.88.29s-.56.52-.84.99v-1.25h-.22l-1.65.67.07.18zm2.5.11c.18-.09.37-.14.56-.14.34 0 .64.16.89.46.36.44.54 1.07.54 1.89 0 .73-.16 1.29-.48 1.69a1.16 1.16 0 0 1-.95.45c-.32 0-.59-.08-.8-.26-.22-.17-.35-.37-.4-.59-.04-.14-.06-.42-.06-.86v-2c.33-.35.56-.56.7-.64z" class="B"/><path d="M599.12 271.47l-1.62.66.05.21c.16-.06.29-.09.41-.09.11 0 .19.03.26.09.07.05.11.14.14.26s.04.49.04 1.11v2.08c0 .32-.01.51-.03.57-.04.14-.11.24-.21.3-.13.09-.33.13-.61.13v.21h2.75v-.21c-.24 0-.42-.04-.55-.11s-.22-.15-.27-.26c-.08-.15-.11-.38-.11-.67v-2.58c.18-.36.36-.63.54-.79.08-.08.16-.11.23-.11.08 0 .21.06.38.2.17.13.32.2.46.2s.26-.05.36-.16a.52.52 0 0 0 .15-.38c0-.18-.07-.33-.21-.46s-.32-.2-.53-.2c-.47 0-.94.41-1.38 1.21v-1.21h-.25z" class="B"/><path d="M601.406 273.65c0-.66-.2-1.19-.58-1.59-.39-.39-.88-.59-1.49-.59a2.31 2.31 0 0 0-1.77.77c-.47.51-.7 1.23-.7 2.15 0 .84.22 1.52.68 2.02s1.01.75 1.66.75a1.9 1.9 0 0 0 1.48-.66c.4-.43.63-.92.72-1.46l-.19-.11c-.17.46-.39.8-.65.99s-.56.29-.92.29c-.52 0-.98-.23-1.37-.68s-.59-1.08-.58-1.88h3.71zm-3.26-1.39c.25-.25.54-.38.87-.38.21 0 .41.07.6.19.2.13.34.3.44.52.06.14.1.38.12.72h-2.48c.04-.44.19-.8.45-1.05z" class="B"/><path d="M600.391 271.47c-.05.1-.09.16-.12.19-.04.02-.09.04-.15.04-.07 0-.2-.03-.4-.09-.3-.09-.55-.14-.77-.14-.48 0-.87.15-1.17.45s-.45.67-.45 1.11c0 .34.08.62.26.84.18.23.55.48 1.11.76.57.28.95.52 1.14.7s.28.41.28.68a.75.75 0 0 1-.25.57c-.17.16-.39.24-.66.24-.39 0-.73-.14-1.04-.42-.31-.27-.52-.69-.63-1.23h-.19v1.91h.19c.05-.1.12-.15.21-.15a1.1 1.1 0 0 1 .32.06c.42.12.8.17 1.13.17a1.93 1.93 0 0 0 1.23-.44 1.46 1.46 0 0 0 .56-1.18c0-.64-.4-1.15-1.19-1.53l-.86-.42c-.37-.18-.61-.35-.74-.51-.12-.16-.18-.34-.18-.56 0-.18.08-.34.25-.48.17-.15.39-.22.66-.22.36 0 .66.1.89.31s.42.6.57 1.17h.19v-1.83h-.19z" class="B"/><path d="M600.062 271.47c-.05.1-.09.16-.12.19-.04.02-.09.04-.15.04-.07 0-.2-.03-.4-.09-.3-.09-.55-.14-.77-.14-.48 0-.87.15-1.17.45s-.45.67-.45 1.11c0 .34.08.62.26.84.18.23.55.48 1.11.76.57.28.95.52 1.14.7s.28.41.28.68a.75.75 0 0 1-.25.57c-.17.16-.39.24-.66.24-.39 0-.73-.14-1.04-.42-.31-.27-.52-.69-.63-1.23h-.19v1.91h.19c.05-.1.12-.15.21-.15a1.1 1.1 0 0 1 .32.06c.42.12.8.17 1.13.17a1.93 1.93 0 0 0 1.23-.44 1.46 1.46 0 0 0 .56-1.18c0-.64-.4-1.15-1.19-1.53l-.86-.42c-.37-.18-.61-.35-.74-.51-.12-.16-.18-.34-.18-.56 0-.18.08-.34.25-.48.17-.15.39-.22.66-.22.36 0 .66.1.89.31s.42.6.57 1.17h.19v-1.83h-.19z" class="B"/><path d="M601.072 273.65c0-.66-.2-1.19-.58-1.59-.39-.39-.88-.59-1.49-.59a2.31 2.31 0 0 0-1.77.77c-.47.51-.7 1.23-.7 2.15 0 .84.22 1.52.68 2.02s1.01.75 1.66.75a1.9 1.9 0 0 0 1.48-.66c.4-.43.63-.92.72-1.46l-.19-.11c-.17.46-.39.8-.65.99s-.56.29-.92.29c-.52 0-.98-.23-1.37-.68s-.59-1.08-.58-1.88h3.71zm-3.26-1.39c.25-.25.54-.38.87-.38.21 0 .41.07.6.19.2.13.34.3.44.52.06.14.1.38.12.72h-2.48c.04-.44.19-.8.45-1.05z" class="B"/><path d="M600.578 277.16h.27l1.59-.66-.07-.2c-.17.06-.31.1-.42.1a.31.31 0 0 1-.22-.09c-.07-.05-.11-.15-.14-.29-.03-.13-.05-.52-.05-1.15v-6.2h-.26l-1.6.65.08.21c.16-.06.3-.09.4-.09.09 0 .17.02.23.07.07.05.11.15.14.29s.05.52.05 1.13v.99c-.31-.3-.7-.45-1.18-.45-.76 0-1.38.32-1.87.96a3.43 3.43 0 0 0-.72 2.11c0 .77.22 1.4.65 1.89.44.49.95.73 1.54.73a1.99 1.99 0 0 0 .81-.17c.25-.12.5-.32.77-.59v.76zm-1.04-.64c-.42 0-.8-.21-1.14-.63-.35-.42-.52-1.02-.52-1.81 0-.78.18-1.38.53-1.79.27-.3.58-.46.92-.46.19 0 .38.06.57.17s.35.28.47.49c.11.22.18.47.21.73v2.77c-.34.35-.68.53-1.04.53z" class="B"/><path d="M595.488 271.85c.23.05.4.13.51.23.11.09.22.29.34.57l1.72 4.51h.22l1.56-3.42 1.34 3.42h.24l1.79-4.62c.16-.41.41-.64.75-.69v-.22h-1.69v.22c.22.01.37.04.45.1s.11.12.11.2c0 .12-.04.29-.11.5l-1.13 2.97-1.22-3.08c-.03-.08-.05-.16-.05-.24 0-.14.04-.24.12-.3.11-.09.31-.14.59-.15v-.22h-2.55v.22c.23.01.39.04.48.1.15.09.28.25.37.49l.3.79-1.15 2.51-1.15-3.09c-.06-.17-.1-.32-.1-.44 0-.11.03-.19.1-.25.06-.06.2-.09.41-.11v-.22h-2.25v.22z" class="B"/><path d="M600.394 268.84c-.12.12-.18.26-.18.42s.06.3.18.42.26.18.42.18.3-.06.42-.18c.11-.12.17-.26.17-.42s-.06-.3-.17-.42c-.12-.11-.26-.17-.42-.17-.17 0-.31.06-.42.17zm.65 2.63l-1.62.66.08.21c.16-.06.29-.09.4-.09.1 0 .18.03.24.08s.1.13.13.26c.04.17.05.55.05 1.13v2.07c0 .33-.02.55-.08.67-.05.12-.12.2-.21.25s-.26.08-.53.08v.21h2.61v-.21c-.25 0-.43-.03-.52-.08-.1-.06-.17-.14-.22-.25s-.07-.34-.07-.67v-4.32h-.26z" class="B"/><path d="M599.158 269.87l-.37.81c-.18.28-.38.53-.6.73-.23.21-.45.35-.66.44v.19h.85v3.61c0 .39.04.68.12.86.08.19.21.33.38.43a1.04 1.04 0 0 0 .53.15c.26 0 .52-.1.77-.29.25-.2.44-.48.58-.87h-.23c-.06.16-.16.28-.28.36a.65.65 0 0 1-.37.12c-.16 0-.29-.06-.39-.18s-.15-.36-.15-.71v-3.48h1.26v-.41h-1.26v-1.76h-.18z" class="B"/><path d="M597.421 268.67l-1.6.65.08.21c.18-.06.31-.09.4-.09.1 0 .18.02.24.07s.11.15.13.29c.03.14.05.52.05 1.13v4.86c0 .33-.02.56-.07.67-.05.1-.11.18-.19.22-.14.07-.32.11-.56.11v.21h2.66v-.21c-.28 0-.47-.03-.58-.09a.51.51 0 0 1-.23-.23c-.04-.09-.06-.32-.06-.68v-2.84c.29-.31.54-.51.75-.61a1.22 1.22 0 0 1 .59-.16c.19 0 .35.05.48.14.14.09.23.23.29.41.06.19.09.57.09 1.16v1.9l-.01.55a.56.56 0 0 1-.21.33c-.1.08-.27.12-.52.12h-.12v.21h2.63v-.21c-.25 0-.42-.03-.51-.08-.1-.06-.16-.13-.2-.23-.06-.12-.08-.35-.08-.69v-1.9c0-.67-.04-1.12-.11-1.37-.11-.36-.27-.63-.49-.79a1.25 1.25 0 0 0-.79-.26c-.25 0-.5.07-.76.21-.25.13-.6.44-1.03.91v-3.92h-.27z" class="B"/><path d="M594.811 271.85c.2.05.34.1.43.16.07.05.15.14.24.28.13.18.23.33.29.45l1.92 4.05-.38.93c-.14.35-.28.58-.42.7s-.26.19-.38.19c-.04 0-.14-.03-.29-.09-.23-.09-.4-.13-.53-.13-.19 0-.34.05-.44.15-.11.1-.16.23-.16.39a.58.58 0 0 0 .22.46c.15.13.34.2.57.2.31 0 .64-.13.98-.4.35-.26.62-.66.83-1.18l2.19-5.35.2-.45c.09-.13.18-.22.26-.27.07-.04.19-.07.33-.09v-.22h-1.75v.22c.17 0 .29.01.36.04.06.02.11.06.14.1s.04.09.04.16a1.17 1.17 0 0 1-.1.47l-1.2 2.97-1.3-2.71c-.13-.27-.2-.48-.2-.63 0-.12.05-.21.13-.29.09-.07.22-.11.4-.11h.12v-.22h-2.5v.22z" class="B"/><path d="M597.471 271.82c-.39.24-.72.6-.96 1.08-.24.49-.37.98-.37 1.47 0 .67.21 1.28.61 1.83.47.64 1.12.96 1.93.96a2.54 2.54 0 0 0 1.35-.37c.4-.25.72-.62.95-1.11a3.45 3.45 0 0 0 .34-1.46c0-.69-.2-1.29-.62-1.82a2.39 2.39 0 0 0-1.96-.93c-.45 0-.87.12-1.27.35zm2.15.6c.41.54.61 1.29.61 2.25 0 .76-.12 1.3-.37 1.61-.24.31-.55.47-.93.47-.51 0-.92-.29-1.23-.85-.31-.57-.47-1.24-.47-2.02 0-.49.07-.88.2-1.19s.3-.53.5-.65a1.26 1.26 0 0 1 .63-.18c.43 0 .78.18 1.06.56z" class="B"/><use xlink:href="#b" class="B"/><path d="M599.441 271.47l-1.62.66.05.21c.16-.06.29-.09.41-.09.11 0 .19.03.26.09.07.05.11.14.14.26s.04.49.04 1.11v2.08c0 .32-.01.51-.03.57-.04.14-.11.24-.21.3-.13.09-.33.13-.61.13v.21h2.75v-.21c-.24 0-.42-.04-.55-.11s-.22-.15-.27-.26c-.08-.15-.11-.38-.11-.67v-2.58c.18-.36.36-.63.54-.79.08-.08.16-.11.23-.11.08 0 .21.06.38.2.17.13.32.2.46.2s.26-.05.36-.16a.52.52 0 0 0 .15-.38c0-.18-.07-.33-.21-.46s-.32-.2-.53-.2c-.47 0-.94.41-1.38 1.21v-1.21h-.25z" class="B"/><path d="M594.797 272.35c.14-.05.26-.08.36-.08.11 0 .21.02.27.07.07.05.12.12.15.21.03.1.05.32.05.66v5.08c0 .39-.02.63-.06.73a.51.51 0 0 1-.17.21c-.16.08-.34.12-.55.12h-.15v.22h2.81v-.22c-.29 0-.49-.03-.6-.09-.12-.06-.19-.14-.24-.24-.04-.1-.07-.33-.07-.7v-1.63c.2.18.37.29.53.35.21.08.46.12.75.12.66 0 1.22-.24 1.65-.74.53-.61.8-1.37.8-2.3 0-.83-.22-1.5-.66-2.01-.36-.42-.81-.64-1.35-.64-.31 0-.6.1-.88.29s-.56.52-.84.99v-1.25h-.22l-1.65.67.07.18zm2.5.11c.18-.09.37-.14.56-.14.34 0 .64.16.89.46.36.44.54 1.07.54 1.89 0 .73-.16 1.29-.48 1.69a1.16 1.16 0 0 1-.95.45c-.32 0-.59-.08-.8-.26-.22-.17-.35-.37-.4-.59-.04-.14-.06-.42-.06-.86v-2c.33-.35.56-.56.7-.64z" class="B"/><path d="M597.437 271.47l-1.62.66.05.21c.16-.06.29-.09.41-.09.11 0 .19.03.26.09.07.05.11.14.14.26s.04.49.04 1.11v2.08c0 .32-.01.51-.03.57-.04.14-.11.24-.21.3-.13.09-.33.13-.61.13v.21h2.75v-.21c-.24 0-.42-.04-.55-.11s-.22-.15-.27-.26c-.08-.15-.11-.38-.11-.67v-2.58c.18-.36.36-.63.54-.79.08-.08.16-.11.23-.11.08 0 .21.06.38.2.17.13.32.2.46.2s.26-.05.36-.16a.52.52 0 0 0 .15-.38c0-.18-.07-.33-.21-.46s-.32-.2-.53-.2c-.47 0-.94.41-1.38 1.21v-1.21h-.25z" class="B"/><path d="M596.463 271.82c-.39.24-.72.6-.96 1.08-.24.49-.37.98-.37 1.47 0 .67.21 1.28.61 1.83.47.64 1.12.96 1.93.96a2.54 2.54 0 0 0 1.35-.37c.4-.25.72-.62.95-1.11a3.45 3.45 0 0 0 .34-1.46c0-.69-.2-1.29-.62-1.82a2.39 2.39 0 0 0-1.96-.93c-.45 0-.87.12-1.27.35zm2.15.6c.41.54.61 1.29.61 2.25 0 .76-.12 1.3-.37 1.61-.24.31-.55.47-.93.47-.51 0-.92-.29-1.23-.85-.31-.57-.47-1.24-.47-2.02 0-.49.07-.88.2-1.19s.3-.53.5-.65a1.26 1.26 0 0 1 .63-.18c.43 0 .78.18 1.06.56z" class="B"/><path d="M599.903 277.16h.27l1.59-.66-.07-.2c-.17.06-.31.1-.42.1a.31.31 0 0 1-.22-.09c-.07-.05-.11-.15-.14-.29-.03-.13-.05-.52-.05-1.15v-6.2h-.26l-1.6.65.08.21c.16-.06.3-.09.4-.09.09 0 .17.02.23.07.07.05.11.15.14.29s.05.52.05 1.13v.99c-.31-.3-.7-.45-1.18-.45-.76 0-1.38.32-1.87.96a3.43 3.43 0 0 0-.72 2.11c0 .77.22 1.4.65 1.89.44.49.95.73 1.54.73a1.99 1.99 0 0 0 .81-.17c.25-.12.5-.32.77-.59v.76zm-1.04-.64c-.42 0-.8-.21-1.14-.63-.35-.42-.52-1.02-.52-1.81 0-.78.18-1.38.53-1.79.27-.3.58-.46.92-.46.19 0 .38.06.57.17s.35.28.47.49c.11.22.18.47.21.73v2.77c-.34.35-.68.53-1.04.53z" class="B"/><path d="M599.983 271.63v.22c.35.01.58.07.7.17.11.11.16.32.16.62v3.04c-.29.3-.54.5-.76.61-.21.1-.4.15-.57.15a.91.91 0 0 1-.63-.23c-.17-.16-.26-.49-.26-.99v-3.59h-1.88v.22c.28 0 .48.02.58.07a.62.62 0 0 1 .25.23c.05.1.08.27.08.53v2.39c0 .5.04.89.13 1.16.08.28.24.5.46.67.22.18.48.26.78.26.27 0 .53-.06.77-.19s.59-.44 1.05-.94v1.13h.27l1.6-.66-.08-.2c-.15.06-.29.1-.41.1-.09 0-.16-.03-.23-.09-.06-.05-.11-.15-.14-.29-.03-.13-.04-.51-.04-1.14v-3.25h-1.83z" class="B"/><path d="M602.493 274.88c-.2.47-.41.8-.62.98-.31.26-.65.39-1.03.39-.54 0-.96-.25-1.28-.74-.31-.49-.47-1.05-.47-1.69 0-.63.16-1.14.47-1.52.24-.29.56-.43.95-.43.24 0 .43.06.57.17.13.12.21.3.23.53s.07.39.13.47c.12.15.3.22.53.22.17 0 .3-.04.4-.14a.49.49 0 0 0 .14-.36c0-.3-.17-.59-.51-.87s-.77-.42-1.3-.42c-.7 0-1.31.27-1.81.8-.5.52-.75 1.21-.75 2.05 0 .87.23 1.56.68 2.08.45.51.98.76 1.59.76.52 0 .98-.19 1.4-.57.43-.38.71-.92.85-1.63l-.17-.08z" class="B"/><path d="M599.809 269.87l-.37.81c-.18.28-.38.53-.6.73-.23.21-.45.35-.66.44v.19h.85v3.61c0 .39.04.68.12.86.08.19.21.33.38.43a1.04 1.04 0 0 0 .53.15c.26 0 .52-.1.77-.29.25-.2.44-.48.58-.87h-.23c-.06.16-.16.28-.28.36a.65.65 0 0 1-.37.12c-.16 0-.29-.06-.39-.18s-.15-.36-.15-.71v-3.48h1.26v-.41h-1.26v-1.76h-.18z" class="B"/><path d="M597.982 276.91c.12.13.27.2.46.2.4 0 .82-.3 1.25-.88v-.33l-.47.43c-.05.02-.1.04-.17.04a.22.22 0 0 1-.15-.06c-.05-.04-.08-.12-.1-.23-.02-.12-.03-.43-.03-.94v-1.83c0-.52-.03-.86-.1-1.03-.11-.25-.28-.44-.51-.57-.31-.16-.7-.24-1.17-.24-.63 0-1.11.15-1.45.43-.35.28-.52.59-.52.92 0 .18.05.32.14.42s.21.15.35.15c.15 0 .27-.05.37-.15.09-.09.13-.23.13-.41l-.01-.34a.63.63 0 0 1 .22-.46c.15-.13.34-.2.59-.2.32 0 .57.1.74.3s.26.57.26 1.1v.21c-.93.34-1.59.62-1.98.86-.4.23-.68.48-.84.75-.11.19-.17.42-.17.68 0 .41.12.75.36 1s.54.38.92.38a1.56 1.56 0 0 0 .67-.15c.14-.06.49-.31 1.04-.73 0 .32.06.54.17.68zm-1.35-.48c-.21 0-.41-.09-.58-.28-.16-.18-.25-.42-.25-.7 0-.22.07-.42.2-.61s.35-.37.66-.54c.18-.1.56-.26 1.15-.5v2.05c-.49.39-.88.58-1.18.58z" class="B"/><path d="M596.658 271.47h-.25l-1.62.66.09.21c.15-.06.28-.09.39-.09.1 0 .18.03.24.08s.11.15.14.29.04.53.04 1.17v2c0 .39-.05.65-.14.79-.1.14-.28.21-.55.21h-.12v.21h2.65v-.21c-.29 0-.48-.03-.58-.08s-.17-.14-.23-.25c-.04-.08-.06-.31-.06-.67v-2.83c.46-.51.92-.76 1.39-.76.3 0 .51.11.64.33s.19.57.19 1.06v2.2l-.02.55a.56.56 0 0 1-.21.33c-.1.08-.28.12-.53.12h-.11v.21h2.66v-.21c-.26 0-.44-.03-.53-.08-.1-.06-.17-.13-.21-.23-.06-.12-.08-.35-.08-.69v-2.29c0-.49-.05-.85-.13-1.08-.13-.34-.29-.58-.51-.73-.21-.14-.46-.22-.75-.22-.57 0-1.17.38-1.8 1.14v-1.14z" class="B"/><path d="M599.888 277.16h.27l1.59-.66-.07-.2c-.17.06-.31.1-.42.1a.31.31 0 0 1-.22-.09c-.07-.05-.11-.15-.14-.29-.03-.13-.05-.52-.05-1.15v-6.2h-.26l-1.6.65.08.21c.16-.06.3-.09.4-.09.09 0 .17.02.23.07.07.05.11.15.14.29s.05.52.05 1.13v.99c-.31-.3-.7-.45-1.18-.45-.76 0-1.38.32-1.87.96a3.43 3.43 0 0 0-.72 2.11c0 .77.22 1.4.65 1.89.44.49.95.73 1.54.73a1.99 1.99 0 0 0 .81-.17c.25-.12.5-.32.77-.59v.76zm-1.04-.64c-.42 0-.8-.21-1.14-.63-.35-.42-.52-1.02-.52-1.81 0-.78.18-1.38.53-1.79.27-.3.58-.46.92-.46.19 0 .38.06.57.17s.35.28.47.49c.11.22.18.47.21.73v2.77c-.34.35-.68.53-1.04.53z" class="B"/><path d="M596.568 268.67h-.27l-1.61.65.08.21c.17-.06.3-.09.41-.09a.38.38 0 0 1 .24.07c.06.05.11.15.13.29.03.14.05.51.05 1.12v5.56a3.89 3.89 0 0 0 .99.51 2.69 2.69 0 0 0 .95.17c.67 0 1.27-.25 1.81-.75.64-.58.95-1.35.95-2.3 0-.81-.2-1.46-.61-1.93s-.89-.71-1.44-.71c-.6 0-1.16.37-1.68 1.09v-3.89zm.59 3.79c.21-.1.42-.15.62-.15.4 0 .74.18 1.05.55s.46.9.46 1.59c0 .74-.15 1.31-.46 1.7s-.64.59-.99.59a1.55 1.55 0 0 1-.66-.15c-.21-.1-.42-.25-.61-.45v-3.21c.24-.23.44-.39.59-.47z" class="B"/><path d="M598.968 271.63v.22c.35.01.58.07.7.17.11.11.16.32.16.62v3.04c-.29.3-.54.5-.76.61-.21.1-.4.15-.57.15a.91.91 0 0 1-.63-.23c-.17-.16-.26-.49-.26-.99v-3.59h-1.88v.22c.28 0 .48.02.58.07a.62.62 0 0 1 .25.23c.05.1.08.27.08.53v2.39c0 .5.04.89.13 1.16.08.28.24.5.46.67.22.18.48.26.78.26.27 0 .53-.06.77-.19s.59-.44 1.05-.94v1.13h.27l1.6-.66-.08-.2c-.15.06-.29.1-.41.1-.09 0-.16-.03-.23-.09-.06-.05-.11-.15-.14-.29-.03-.13-.04-.51-.04-1.14v-3.25h-1.83z" class="B"/><path d="M596.788 271.85c.2.05.34.1.43.16.07.05.15.14.24.28.13.18.23.33.29.45l1.92 4.05-.38.93c-.14.35-.28.58-.42.7s-.26.19-.38.19c-.04 0-.14-.03-.29-.09-.23-.09-.4-.13-.53-.13-.19 0-.34.05-.44.15-.11.1-.16.23-.16.39a.58.58 0 0 0 .22.46c.15.13.34.2.57.2.31 0 .64-.13.98-.4.35-.26.62-.66.83-1.18l2.19-5.35.2-.45c.09-.13.18-.22.26-.27.07-.04.19-.07.33-.09v-.22h-1.75v.22c.17 0 .29.01.36.04.06.02.11.06.14.1s.04.09.04.16a1.17 1.17 0 0 1-.1.47l-1.2 2.97-1.3-2.71c-.13-.27-.2-.48-.2-.63 0-.12.05-.21.13-.29.09-.07.22-.11.4-.11h.12v-.22h-2.5v.22z" class="B"/><path d="M597.038 268.84c-.12.12-.18.26-.18.42s.06.3.18.42.26.18.42.18.3-.06.42-.18c.11-.12.17-.26.17-.42s-.06-.3-.17-.42c-.12-.11-.26-.17-.42-.17-.17 0-.31.06-.42.17zm.65 2.63l-1.62.66.08.21c.16-.06.29-.09.4-.09.1 0 .18.03.24.08s.1.13.13.26c.04.17.05.55.05 1.13v2.07c0 .33-.02.55-.08.67-.05.12-.12.2-.21.25s-.26.08-.53.08v.21h2.61v-.21c-.25 0-.43-.03-.52-.08-.1-.06-.17-.14-.22-.25s-.07-.34-.07-.67v-4.32h-.26z" class="B"/><path d="M595.802 269.87l-.37.81c-.18.28-.38.53-.6.73-.23.21-.45.35-.66.44v.19h.85v3.61c0 .39.04.68.12.86.08.19.21.33.38.43a1.04 1.04 0 0 0 .53.15c.26 0 .52-.1.77-.29.25-.2.44-.48.58-.87h-.23c-.06.16-.16.28-.28.36a.65.65 0 0 1-.37.12c-.16 0-.29-.06-.39-.18s-.15-.36-.15-.71v-3.48h1.26v-.41h-1.26v-1.76h-.18z" class="B"/><g class="D"><path d="M997.856 271.558c0-1.179-.956-2.136-2.136-2.136s-2.136.957-2.136 2.136.957 2.136 2.136 2.136 2.136-.956 2.136-2.136z"/></g><g class="E F G H I"><path d="M995.72 255.584v10.672"/></g><g class="D"><path d="M1001.648 245.799a5.93 5.93 0 0 0-5.928-5.928 5.93 5.93 0 0 0-5.928 5.928 5.93 5.93 0 0 0 5.928 5.928 5.93 5.93 0 0 0 5.928-5.928z"/></g><g class="J"><path d="M998.22 245.799a2.5 2.5 0 1 0-5 0 2.5 2.5 0 1 0 5 0z"/></g><path d="M894.73 280.19c-.3-.28-.64-.5-1.04-.66-.39-.15-.83-.22-1.31-.22-.43 0-.81.06-1.14.19-.33.14-.61.31-.83.53s-.4.47-.51.76c-.12.28-.18.58-.18.88 0 .38.06.7.18.96.11.26.27.47.46.64s.41.31.66.42a6.83 6.83 0 0 0 .75.29l.76.24a3.36 3.36 0 0 1 .66.28 1.43 1.43 0 0 1 .46.42c.12.17.18.38.18.64 0 .23-.04.45-.12.64a1.46 1.46 0 0 1-.35.5c-.15.13-.33.24-.54.32-.22.07-.47.11-.74.11-.33 0-.62-.04-.85-.13s-.42-.19-.58-.3a4.43 4.43 0 0 1-.41-.3c-.11-.09-.2-.13-.29-.13-.05 0-.1.01-.15.04s-.08.07-.12.11l-.33.55c.32.35.71.62 1.17.82.46.21.97.31 1.52.31.46 0 .86-.07 1.22-.21a2.73 2.73 0 0 0 .91-.58 2.51 2.51 0 0 0 .56-.86 2.85 2.85 0 0 0 .19-1.06c0-.36-.06-.66-.18-.9-.11-.24-.27-.45-.46-.62-.2-.17-.42-.3-.66-.41l-.76-.3-.76-.26c-.24-.08-.46-.18-.66-.29-.19-.11-.35-.24-.46-.4-.12-.16-.18-.36-.18-.6a1.27 1.27 0 0 1 .1-.52 1.19 1.19 0 0 1 .3-.43c.14-.12.31-.21.51-.28a2.08 2.08 0 0 1 .69-.11c.27 0 .51.04.7.1.19.07.36.15.5.23s.25.16.34.22c.09.07.17.11.24.11.06 0 .11-.02.15-.05a.51.51 0 0 0 .12-.13l.28-.56z" class="B"/><path d="M892.45 282.06c-.35.15-.65.36-.89.63s-.43.59-.56.96-.2.76-.2 1.19c0 .52.08.99.22 1.39a2.87 2.87 0 0 0 .6 1.02c.26.27.57.48.92.62a3.11 3.11 0 0 0 1.16.21c.22 0 .44-.02.67-.05.22-.04.44-.1.65-.17.21-.08.41-.18.59-.29a2.11 2.11 0 0 0 .47-.42l-.3-.39c-.04-.07-.11-.1-.2-.1-.07 0-.15.03-.24.09l-.35.2c-.14.07-.31.14-.51.2a2.31 2.31 0 0 1-.69.09c-.29 0-.55-.04-.78-.14a1.56 1.56 0 0 1-.6-.42c-.17-.19-.3-.43-.39-.71-.1-.29-.15-.62-.16-1.01h4.04c.1 0 .17-.02.21-.08.03-.06.05-.17.05-.34 0-.43-.06-.81-.19-1.15-.12-.34-.3-.62-.52-.85-.23-.23-.49-.41-.8-.53a2.75 2.75 0 0 0-1.01-.18c-.44 0-.83.07-1.19.23zm1.87.68c.19.08.35.19.48.34s.23.33.3.54c.07.2.1.43.1.68h-3.3c.07-.53.25-.94.55-1.24.29-.3.7-.45 1.22-.45a1.51 1.51 0 0 1 .65.13z" class="B"/><path d="M893.738 282.06c-.35.15-.65.36-.89.63s-.43.59-.56.96-.2.76-.2 1.19c0 .52.08.99.22 1.39a2.87 2.87 0 0 0 .6 1.02c.26.27.57.48.92.62a3.11 3.11 0 0 0 1.16.21c.22 0 .44-.02.67-.05.22-.04.44-.1.65-.17.21-.08.41-.18.59-.29a2.11 2.11 0 0 0 .47-.42l-.3-.39c-.04-.07-.11-.1-.2-.1-.07 0-.15.03-.24.09l-.35.2c-.14.07-.31.14-.51.2a2.31 2.31 0 0 1-.69.09c-.29 0-.55-.04-.78-.14a1.56 1.56 0 0 1-.6-.42c-.17-.19-.3-.43-.39-.71-.1-.29-.15-.62-.16-1.01h4.04c.1 0 .17-.02.21-.08.03-.06.05-.17.05-.34 0-.43-.06-.81-.19-1.15-.12-.34-.3-.62-.52-.85-.23-.23-.49-.41-.8-.53a2.75 2.75 0 0 0-1.01-.18c-.44 0-.83.07-1.19.23zm1.87.68c.19.08.35.19.48.34s.23.33.3.54c.07.2.1.43.1.68h-3.3c.07-.53.25-.94.55-1.24.29-.3.7-.45 1.22-.45a1.51 1.51 0 0 1 .65.13z" class="B"/><use xlink:href="#c" class="B"/><path d="M891.668 288v-4.48c.24-.26.49-.46.76-.61a1.74 1.74 0 0 1 .89-.23c.43 0 .75.13.96.38s.32.61.32 1.07V288h1.06v-3.87c0-.34-.04-.66-.13-.94a2.04 2.04 0 0 0-.39-.73 1.74 1.74 0 0 0-.63-.47c-.26-.11-.55-.16-.88-.16-.41 0-.78.08-1.09.25a3.04 3.04 0 0 0-.87.66v-3.58h-1.06V288h1.06z" class="B"/><path d="M893.49 282.06c-.35.15-.65.36-.89.63s-.43.59-.56.96-.2.76-.2 1.19c0 .52.08.99.22 1.39a2.87 2.87 0 0 0 .6 1.02c.26.27.57.48.92.62a3.11 3.11 0 0 0 1.16.21c.22 0 .44-.02.67-.05.22-.04.44-.1.65-.17.21-.08.41-.18.59-.29a2.11 2.11 0 0 0 .47-.42l-.3-.39c-.04-.07-.11-.1-.2-.1-.07 0-.15.03-.24.09l-.35.2c-.14.07-.31.14-.51.2a2.31 2.31 0 0 1-.69.09c-.29 0-.55-.04-.78-.14a1.56 1.56 0 0 1-.6-.42c-.17-.19-.3-.43-.39-.71-.1-.29-.15-.62-.16-1.01h4.04c.1 0 .17-.02.21-.08.03-.06.05-.17.05-.34 0-.43-.06-.81-.19-1.15-.12-.34-.3-.62-.52-.85-.23-.23-.49-.41-.8-.53a2.75 2.75 0 0 0-1.01-.18c-.44 0-.83.07-1.19.23zm1.87.68c.19.08.35.19.48.34s.23.33.3.54c.07.2.1.43.1.68h-3.3c.07-.53.25-.94.55-1.24.29-.3.7-.45 1.22-.45a1.51 1.51 0 0 1 .65.13z" class="B"/><path d="M891.604 288c.15 0 .25-.08.28-.23l.05-.55c.21.27.44.48.72.64.27.15.61.22 1 .22.41 0 .77-.08 1.1-.24a2.53 2.53 0 0 0 .83-.66c.22-.29.4-.62.52-1.01a4.15 4.15 0 0 0 .18-1.25c0-.5-.06-.95-.17-1.33a2.65 2.65 0 0 0-.46-.97c-.2-.27-.44-.46-.72-.6-.29-.13-.61-.19-.96-.19-.42 0-.79.09-1.12.26-.32.18-.61.42-.86.71v-3.64h-1.08V288h.69zm2.68-5.2a1.23 1.23 0 0 1 .48.4c.14.19.24.42.31.7.07.29.1.63.1 1.02 0 .75-.15 1.33-.45 1.73-.31.4-.74.61-1.31.61-.29 0-.55-.06-.79-.17-.23-.1-.44-.29-.63-.55v-2.94c.22-.3.46-.52.72-.68s.57-.24.91-.24a1.69 1.69 0 0 1 .66.12z" class="B"/><path d="M892.442 281.92v3.88c0 .34.04.66.13.94s.22.53.39.73a1.67 1.67 0 0 0 .64.46c.25.11.54.17.88.17.42 0 .8-.09 1.12-.27a3.17 3.17 0 0 0 .89-.71l.09.66a.26.26 0 0 0 .28.22h.64v-6.08h-1.07v4.48c-.23.27-.48.47-.76.62s-.57.22-.88.22c-.43 0-.75-.12-.96-.37-.21-.26-.32-.61-.32-1.07v-3.88h-1.07z" class="B"/><use xlink:href="#d" class="B"/><path d="M895.528 281.92V288h1.06v-6.08h-1.06zm1.24-2.2a.74.74 0 0 0-.17-.25c-.07-.07-.15-.12-.24-.16s-.19-.06-.29-.06a.73.73 0 0 0-.3.06c-.09.04-.17.09-.24.16s-.12.15-.16.25c-.04.09-.06.19-.06.29a.73.73 0 0 0 .06.3c.04.09.09.17.16.24s.15.12.24.16a.73.73 0 0 0 .3.06c.1 0 .2-.02.29-.06s.17-.09.24-.16.13-.15.17-.24a.73.73 0 0 0 .06-.3c0-.1-.02-.2-.06-.29z" class="B"/><use xlink:href="#e" class="B"/><path d="M896.262 281.96a2.08 2.08 0 0 0-.72.39c-.21.17-.37.38-.48.62-.12.24-.17.51-.17.81 0 .37.08.69.25.97s.41.5.71.67c-.13.06-.24.14-.34.22-.09.09-.18.17-.24.27a.85.85 0 0 0-.15.28c-.03.09-.05.18-.05.27 0 .22.05.4.16.54.1.13.24.24.41.32-.33.12-.6.29-.79.5s-.28.46-.28.76a1.21 1.21 0 0 0 .16.61c.11.19.28.37.5.51.22.15.5.27.83.36s.72.13 1.17.13c.44 0 .84-.06 1.19-.17.35-.12.65-.27.9-.46.24-.19.43-.4.56-.65a1.55 1.55 0 0 0 .19-.75c0-.28-.06-.51-.17-.69a1.3 1.3 0 0 0-.46-.41 2.56 2.56 0 0 0-.66-.22l-.75-.09-.74-.04c-.25-.01-.46-.03-.66-.06-.19-.03-.34-.08-.46-.16-.11-.07-.17-.18-.17-.33 0-.08.03-.17.1-.27a.92.92 0 0 1 .29-.25c.25.06.52.1.8.1.33 0 .64-.05.92-.14.27-.09.51-.22.72-.4.2-.17.36-.37.47-.62a1.91 1.91 0 0 0 .17-.8 1.92 1.92 0 0 0-.2-.87l.69-.1c.17-.04.25-.12.25-.25v-.4h-1.65a2.51 2.51 0 0 0-.63-.25c-.23-.06-.47-.09-.74-.09a3.12 3.12 0 0 0-.93.14zm2.7 6.81c-.08.13-.2.24-.36.34a1.8 1.8 0 0 1-.58.22c-.23.05-.49.08-.77.08-.3 0-.56-.03-.78-.08a1.9 1.9 0 0 1-.54-.2c-.14-.09-.25-.19-.32-.31-.07-.11-.1-.24-.1-.38 0-.21.07-.4.21-.55.14-.16.33-.29.55-.4l.62.07.64.03.59.05a2.18 2.18 0 0 1 .5.11c.14.05.26.12.34.21.09.1.13.22.13.37 0 .16-.04.31-.13.44zm-2.33-3.83c-.17-.06-.3-.14-.42-.25-.11-.11-.19-.24-.25-.39s-.09-.31-.09-.49c0-.38.11-.67.34-.89s.55-.33.98-.33.76.11.99.33c.22.22.34.51.34.89 0 .18-.03.34-.09.49-.05.15-.14.28-.25.39s-.25.19-.42.25c-.16.06-.35.09-.57.09-.21 0-.4-.03-.56-.09z" class="B"/><path d="M894.66 290.06v-2.69c.21.23.44.4.71.53.26.12.59.18.96.18.41 0 .78-.08 1.1-.24a2.43 2.43 0 0 0 .83-.66 3.2 3.2 0 0 0 .51-1.01 4.15 4.15 0 0 0 .18-1.25c0-.5-.05-.95-.16-1.34-.11-.38-.26-.71-.46-.97s-.44-.46-.73-.59c-.28-.14-.6-.21-.94-.21-.44 0-.83.1-1.16.29s-.63.45-.89.76l-.09-.72a.28.28 0 0 0-.29-.22h-.63v8.14h1.06zm2.3-7.26a1.23 1.23 0 0 1 .48.4c.13.19.23.42.3.7.07.29.11.63.11 1.02 0 .75-.15 1.33-.46 1.73-.3.4-.73.61-1.3.61-.29 0-.55-.06-.78-.17-.24-.1-.45-.29-.65-.55v-2.94a2.45 2.45 0 0 1 .73-.68c.26-.16.56-.24.91-.24.25 0 .46.04.66.12z" class="B"/><path d="M899.684 284.11c0-.34-.05-.65-.14-.93-.09-.29-.23-.53-.41-.73a1.85 1.85 0 0 0-.66-.47 2.38 2.38 0 0 0-.91-.17c-.47 0-.9.08-1.29.24s-.75.41-1.08.73l.19.34c.03.06.07.11.13.14.05.04.11.06.19.06.09 0 .18-.03.27-.1l.34-.22a2.19 2.19 0 0 1 .46-.22c.18-.07.4-.1.66-.1.4 0 .69.12.9.36.2.24.3.6.3 1.07v.48c-.69.01-1.27.08-1.75.19-.47.11-.86.25-1.15.42-.3.17-.51.37-.64.59s-.2.45-.2.69c0 .28.05.52.14.72s.21.37.36.5.33.23.54.3c.2.06.42.1.66.1.23 0 .44-.02.63-.06s.37-.1.54-.18a2.36 2.36 0 0 0 .48-.29 5.09 5.09 0 0 0 .47-.39l.12.57c.02.1.06.17.12.2.07.03.15.05.26.05h.47v-3.89zm-3.16 3.19c-.12-.04-.23-.09-.31-.17a.74.74 0 0 1-.21-.28c-.06-.12-.08-.26-.08-.42a.8.8 0 0 1 .14-.45c.1-.14.26-.26.48-.36.21-.1.49-.18.84-.24.34-.06.76-.1 1.25-.12v1.27a2.92 2.92 0 0 1-.37.34c-.13.1-.26.19-.4.26-.13.07-.28.12-.44.16-.15.04-.32.06-.51.06a1.6 1.6 0 0 1-.39-.05z" class="B"/><path d="M898.948 287.95c.26-.1.48-.23.67-.41l-.31-.51c-.05-.06-.1-.1-.15-.1-.04 0-.07.02-.12.05-.04.03-.09.06-.15.1l-.21.1c-.08.03-.18.04-.29.04-.2 0-.36-.06-.48-.19-.13-.12-.19-.31-.19-.57v-3.64h1.74v-.78h-1.74v-2.09h-.54c-.07 0-.12.02-.17.06-.04.03-.07.08-.07.14l-.25 1.88-1 .13v.42c0 .08.03.14.07.18s.1.06.16.06h.73v3.72c0 .5.13.89.39 1.15.26.27.63.41 1.11.41.27 0 .54-.05.8-.15z" class="B"/><path d="M898.424 287.95c.26-.1.48-.23.67-.41l-.31-.51c-.05-.06-.1-.1-.15-.1-.04 0-.07.02-.12.05-.04.03-.09.06-.15.1l-.21.1c-.08.03-.18.04-.29.04-.2 0-.36-.06-.48-.19-.13-.12-.19-.31-.19-.57v-3.64h1.74v-.78h-1.74v-2.09h-.54c-.07 0-.12.02-.17.06-.04.03-.07.08-.07.14l-.25 1.88-1 .13v.42c0 .08.03.14.07.18s.1.06.16.06h.73v3.72c0 .5.13.89.39 1.15.26.27.63.41 1.11.41.27 0 .54-.05.8-.15z" class="B"/><path d="M896.47 282.06c-.35.15-.65.36-.89.63s-.43.59-.56.96-.2.76-.2 1.19c0 .52.08.99.22 1.39a2.87 2.87 0 0 0 .6 1.02c.26.27.57.48.92.62a3.11 3.11 0 0 0 1.16.21c.22 0 .44-.02.67-.05.22-.04.44-.1.65-.17.21-.08.41-.18.59-.29a2.11 2.11 0 0 0 .47-.42l-.3-.39c-.04-.07-.11-.1-.2-.1-.07 0-.15.03-.24.09l-.35.2c-.14.07-.31.14-.51.2a2.31 2.31 0 0 1-.69.09c-.29 0-.55-.04-.78-.14a1.56 1.56 0 0 1-.6-.42c-.17-.19-.3-.43-.39-.71-.1-.29-.15-.62-.16-1.01h4.04c.1 0 .17-.02.21-.08.03-.06.05-.17.05-.34 0-.43-.06-.81-.19-1.15-.12-.34-.3-.62-.52-.85-.23-.23-.49-.41-.8-.53a2.75 2.75 0 0 0-1.01-.18c-.44 0-.83.07-1.19.23zm1.87.68c.19.08.35.19.48.34s.23.33.3.54c.07.2.1.43.1.68h-3.3c.07-.53.25-.94.55-1.24.29-.3.7-.45 1.22-.45a1.51 1.51 0 0 1 .65.13z" class="B"/><use xlink:href="#f" class="B"/><path d="M897.444 288v-4.48c.24-.26.49-.46.76-.61a1.74 1.74 0 0 1 .89-.23c.43 0 .75.13.96.38s.32.61.32 1.07V288h1.06v-3.87c0-.34-.04-.66-.13-.94a2.04 2.04 0 0 0-.39-.73 1.74 1.74 0 0 0-.63-.47c-.26-.11-.55-.16-.88-.16-.43 0-.81.09-1.13.27a3.48 3.48 0 0 0-.89.7l-.08-.66a.28.28 0 0 0-.29-.22h-.63V288h1.06z" class="B"/><path d="M896.622 282.05a2.56 2.56 0 0 0-.91.63 2.7 2.7 0 0 0-.58.99c-.14.38-.21.81-.21 1.29s.07.91.21 1.29a2.7 2.7 0 0 0 .58.99 2.56 2.56 0 0 0 .91.63c.36.14.76.21 1.21.21.44 0 .84-.07 1.2-.21a2.56 2.56 0 0 0 .91-.63c.25-.27.44-.6.58-.99a3.97 3.97 0 0 0 .2-1.29 3.97 3.97 0 0 0-.2-1.29c-.14-.39-.33-.72-.58-.99a2.56 2.56 0 0 0-.91-.63 3.09 3.09 0 0 0-1.2-.22c-.45 0-.85.07-1.21.22zm.41 5.04c-.22-.1-.41-.25-.56-.44a1.99 1.99 0 0 1-.33-.72c-.08-.28-.11-.61-.11-.97s.03-.68.11-.96c.07-.29.18-.53.33-.73a1.64 1.64 0 0 1 .56-.45c.23-.1.49-.15.8-.15.6 0 1.04.2 1.34.6.3.41.44.97.44 1.69s-.14 1.29-.44 1.69-.74.6-1.34.6c-.31 0-.57-.05-.8-.16z" class="B"/><path d="M898.354 288v-5.18h1.72v-.78h-1.76v-.56c0-.26.03-.47.09-.65s.14-.32.25-.43a1.09 1.09 0 0 1 .39-.23 1.55 1.55 0 0 1 .5-.07h.18a.91.91 0 0 0 .27-.03c.07-.01.1-.06.11-.14l.02-.53c-.23-.08-.48-.12-.76-.12-.32 0-.6.04-.86.14s-.48.24-.66.42c-.18.19-.32.42-.42.69s-.14.58-.14.92v.59h-.96v.44c0 .08.02.14.08.18a.42.42 0 0 0 .2.1l.68.07V288h1.07z" class="B"/><path d="M898.574 281.92h-.85c-.07 0-.14.02-.19.07-.06.04-.1.09-.13.15l-1.57 3.83a2.95 2.95 0 0 0-.1.27 1.73 1.73 0 0 0-.08.27c-.02-.1-.05-.19-.07-.27l-.1-.27-1.62-3.83c-.03-.05-.06-.1-.12-.15a.33.33 0 0 0-.21-.07h-.93l2.51 5.73-1.11 2.41h.79c.12 0 .2-.03.25-.07.06-.05.1-.12.14-.2l3.39-7.87z" class="B"/><path d="M895.798 282.05a2.56 2.56 0 0 0-.91.63 2.7 2.7 0 0 0-.58.99c-.14.38-.21.81-.21 1.29s.07.91.21 1.29a2.7 2.7 0 0 0 .58.99 2.56 2.56 0 0 0 .91.63c.36.14.76.21 1.21.21.44 0 .84-.07 1.2-.21a2.56 2.56 0 0 0 .91-.63c.25-.27.44-.6.58-.99a3.97 3.97 0 0 0 .2-1.29 3.97 3.97 0 0 0-.2-1.29c-.14-.39-.33-.72-.58-.99a2.56 2.56 0 0 0-.91-.63 3.09 3.09 0 0 0-1.2-.22c-.45 0-.85.07-1.21.22zm.41 5.04c-.22-.1-.41-.25-.56-.44a1.99 1.99 0 0 1-.33-.72c-.08-.28-.11-.61-.11-.97s.03-.68.11-.96c.07-.29.18-.53.33-.73a1.64 1.64 0 0 1 .56-.45c.23-.1.49-.15.8-.15.6 0 1.04.2 1.34.6.3.41.44.97.44 1.69s-.14 1.29-.44 1.69-.74.6-1.34.6c-.31 0-.57-.05-.8-.16z" class="B"/><path d="M896.07 281.92v3.88c0 .34.04.66.13.94s.22.53.39.73a1.67 1.67 0 0 0 .64.46c.25.11.54.17.88.17.42 0 .8-.09 1.12-.27a3.17 3.17 0 0 0 .89-.71l.09.66a.26.26 0 0 0 .28.22h.64v-6.08h-1.07v4.48c-.23.27-.48.47-.76.62s-.57.22-.88.22c-.43 0-.75-.12-.96-.37-.21-.26-.32-.61-.32-1.07v-3.88h-1.07z" class="B"/><path d="M898.952 288v-3.87c.17-.41.38-.73.63-.94.25-.22.56-.33.93-.33.21 0 .37.02.49.06s.2.06.26.06c.09 0 .16-.05.18-.15l.14-.8c-.11-.07-.24-.12-.38-.16-.13-.04-.28-.06-.45-.06-.41 0-.77.12-1.08.36s-.56.57-.77.99l-.07-.94c-.02-.11-.05-.19-.09-.23-.05-.05-.13-.07-.24-.07h-.61V288h1.06z" class="B"/><path d="M899.464 282.62c-.25-.25-.54-.45-.87-.59-.32-.13-.7-.2-1.12-.2-.46 0-.87.07-1.23.23-.35.16-.65.37-.9.65a2.98 2.98 0 0 0-.55.99c-.12.39-.19.81-.19 1.26 0 .49.07.94.21 1.32.14.39.33.72.57.99.24.26.52.46.85.6a2.64 2.64 0 0 0 1.06.21 3.5 3.5 0 0 0 1.25-.22 2.29 2.29 0 0 0 .99-.71l-.3-.39c-.04-.07-.11-.1-.2-.1-.08 0-.15.03-.22.09s-.16.13-.28.21c-.11.07-.25.14-.42.2-.16.07-.38.1-.64.1-.27 0-.52-.05-.73-.16-.22-.1-.41-.25-.56-.44s-.27-.43-.35-.72c-.09-.29-.13-.61-.13-.98 0-.35.04-.67.12-.96.08-.28.19-.52.35-.72a1.51 1.51 0 0 1 .57-.46c.23-.11.49-.16.79-.16.22 0 .41.03.56.08.16.05.29.1.4.16l.26.17c.07.05.14.07.2.07s.1-.01.14-.04a.3.3 0 0 0 .09-.1l.28-.38z" class="B"/><path d="M895.498 281.92v3.88c0 .34.04.66.13.94s.22.53.39.73a1.67 1.67 0 0 0 .64.46c.25.11.54.17.88.17.42 0 .8-.09 1.12-.27a3.17 3.17 0 0 0 .89-.71l.09.66a.26.26 0 0 0 .28.22h.64v-6.08h-1.07v4.48c-.23.27-.48.47-.76.62s-.57.22-.88.22c-.43 0-.75-.12-.96-.37-.21-.26-.32-.61-.32-1.07v-3.88h-1.07z" class="B"/><use xlink:href="#g" class="B"/><path d="M900.168 287.95c.26-.1.48-.23.67-.41l-.31-.51c-.05-.06-.1-.1-.15-.1-.04 0-.07.02-.12.05-.04.03-.09.06-.15.1l-.21.1c-.08.03-.18.04-.29.04-.2 0-.36-.06-.48-.19-.13-.12-.19-.31-.19-.57v-3.64h1.74v-.78h-1.74v-2.09h-.54c-.07 0-.12.02-.17.06-.04.03-.07.08-.07.14l-.25 1.88-1 .13v.42c0 .08.03.14.07.18s.1.06.16.06h.73v3.72c0 .5.13.89.39 1.15.26.27.63.41 1.11.41.27 0 .54-.05.8-.15z" class="B"/><path d="M898.254 282.05a2.56 2.56 0 0 0-.91.63 2.7 2.7 0 0 0-.58.99c-.14.38-.21.81-.21 1.29s.07.91.21 1.29a2.7 2.7 0 0 0 .58.99 2.56 2.56 0 0 0 .91.63c.36.14.76.21 1.21.21.44 0 .84-.07 1.2-.21a2.56 2.56 0 0 0 .91-.63c.25-.27.44-.6.58-.99a3.97 3.97 0 0 0 .2-1.29 3.97 3.97 0 0 0-.2-1.29c-.14-.39-.33-.72-.58-.99a2.56 2.56 0 0 0-.91-.63 3.09 3.09 0 0 0-1.2-.22c-.45 0-.85.07-1.21.22zm.41 5.04c-.22-.1-.41-.25-.56-.44a1.99 1.99 0 0 1-.33-.72c-.08-.28-.11-.61-.11-.97s.03-.68.11-.96c.07-.29.18-.53.33-.73a1.64 1.64 0 0 1 .56-.45c.23-.1.49-.15.8-.15.6 0 1.04.2 1.34.6.3.41.44.97.44 1.69s-.14 1.29-.44 1.69-.74.6-1.34.6c-.31 0-.57-.05-.8-.16z" class="B"/><path d="M899.736 288v-4.53c.19-.24.4-.44.62-.58.23-.14.48-.21.74-.21.38 0 .66.12.86.36.19.24.29.6.29 1.09V288h1.07v-3.87c0-.24.03-.45.1-.63a1.34 1.34 0 0 1 .29-.46c.12-.12.26-.21.42-.27.15-.06.32-.09.5-.09.39 0 .7.12.9.37.21.24.32.6.32 1.08V288h1.06v-3.87c0-.37-.04-.69-.13-.98-.1-.29-.23-.53-.4-.72-.18-.2-.39-.35-.64-.45a2.26 2.26 0 0 0-.85-.15 2.46 2.46 0 0 0-.6.07c-.19.05-.37.12-.54.23-.18.1-.33.23-.47.39s-.25.35-.33.57c-.11-.39-.3-.69-.55-.92-.26-.23-.59-.34-1-.34a1.74 1.74 0 0 0-.97.26c-.28.18-.53.4-.75.68l-.08-.63a.28.28 0 0 0-.29-.22h-.63V288h1.06z" class="B"/><path d="M904.738 282.06c-.35.15-.65.36-.89.63s-.43.59-.56.96-.2.76-.2 1.19c0 .52.08.99.22 1.39a2.87 2.87 0 0 0 .6 1.02c.26.27.57.48.92.62a3.11 3.11 0 0 0 1.16.21c.22 0 .44-.02.67-.05.22-.04.44-.1.65-.17.21-.08.41-.18.59-.29a2.11 2.11 0 0 0 .47-.42l-.3-.39c-.04-.07-.11-.1-.2-.1-.07 0-.15.03-.24.09l-.35.2c-.14.07-.31.14-.51.2a2.31 2.31 0 0 1-.69.09c-.29 0-.55-.04-.78-.14a1.56 1.56 0 0 1-.6-.42c-.17-.19-.3-.43-.39-.71-.1-.29-.15-.62-.16-1.01h4.04c.1 0 .17-.02.21-.08.03-.06.05-.17.05-.34 0-.43-.06-.81-.19-1.15-.12-.34-.3-.62-.52-.85-.23-.23-.49-.41-.8-.53a2.75 2.75 0 0 0-1.01-.18c-.44 0-.83.07-1.19.23zm1.87.68c.19.08.35.19.48.34s.23.33.3.54c.07.2.1.43.1.68h-3.3c.07-.53.25-.94.55-1.24.29-.3.7-.45 1.22-.45a1.51 1.51 0 0 1 .65.13z" class="B"/><path d="M905.876 288v-3.87c.17-.41.38-.73.63-.94.25-.22.56-.33.93-.33.21 0 .37.02.49.06s.2.06.26.06c.09 0 .16-.05.18-.15l.14-.8c-.11-.07-.24-.12-.38-.16-.13-.04-.28-.06-.45-.06-.41 0-.77.12-1.08.36s-.56.57-.77.99l-.07-.94c-.02-.11-.05-.19-.09-.23-.05-.05-.13-.07-.24-.07h-.61V288h1.06z" class="B"/><path d="M908.372 282.53c-.24-.22-.51-.39-.83-.51-.32-.13-.68-.19-1.08-.19-.34 0-.65.04-.91.14a2.13 2.13 0 0 0-.68.39c-.19.16-.33.35-.42.56-.1.22-.15.44-.15.67 0 .26.05.48.14.66.09.19.21.34.36.46.14.13.31.23.5.31l.58.22.59.18c.19.06.36.13.5.21.15.08.27.17.36.28s.14.25.14.42c0 .13-.03.26-.08.38a.9.9 0 0 1-.23.32c-.1.09-.23.16-.39.22a1.82 1.82 0 0 1-.55.08c-.24 0-.44-.03-.61-.09a1.74 1.74 0 0 1-.41-.18l-.29-.19c-.08-.05-.16-.08-.23-.08s-.13.01-.17.04c-.05.03-.08.07-.12.12l-.25.41a3.03 3.03 0 0 0 .88.53 3.02 3.02 0 0 0 1.15.21c.37 0 .7-.05.98-.15a2.09 2.09 0 0 0 .72-.41c.2-.18.35-.38.45-.62s.15-.5.15-.78c0-.24-.05-.45-.14-.63-.09-.17-.21-.32-.35-.44a2.14 2.14 0 0 0-.51-.3l-.58-.22-.58-.18a4.73 4.73 0 0 1-.5-.2c-.15-.08-.27-.17-.36-.27-.09-.11-.13-.24-.13-.39 0-.13.02-.24.08-.35a.86.86 0 0 1 .23-.28 1.29 1.29 0 0 1 .37-.19 1.87 1.87 0 0 1 .49-.07c.21 0 .39.03.54.07l.39.15.28.15a.48.48 0 0 0 .2.07c.1 0 .18-.05.23-.14l.24-.39z" class="B"/></g></g></svg>