<?xml version="1.0" encoding="utf-8"?>
<!-- Generator: Adobe Illustrator 19.0.0, SVG Export Plug-In . SVG Version: 6.00 Build 0)  -->
<svg version="1.1" id="Warstwa_1" xmlns="http://www.w3.org/2000/svg" xmlns:xlink="http://www.w3.org/1999/xlink" x="0px" y="0px"
	 viewBox="0 0 1920 1080" style="enable-background:new 0 0 1920 1080;" xml:space="preserve">
<style type="text/css">
	.st0{fill:#FDDB00;stroke:#736357;stroke-miterlimit:10;}
	.st1{font-family:'Lato-Bold';}
	.st2{font-size:72px;}
	.st3{fill:#FFFFFF;}
	.st4{font-size:130px;}
	.st5{opacity:0.12;fill:#420000;enable-background:new    ;}
	.st6{fill:url(#XMLID_8_);}
</style>
<rect id="XMLID_1_" x="-0.9" y="-0.4" class="st0" width="1925.4" height="1085"/>
<text id="XMLID_12_" transform="matrix(1 0 0 1 133.5468 119)" class="st1 st2">CASE STUDY IN PRACTICE</text>
<rect id="XMLID_4_" x="836.2" y="477" transform="matrix(0.5647 -0.8253 0.8253 0.5647 212.8984 1499.682)" class="st3" width="1383.8" height="142"/>
<text id="XMLID_16_" transform="matrix(1 0 0 1 1337.6436 288.5291)"><tspan x="0" y="0" class="st1 st4">HOW </tspan><tspan x="-12.3" y="156" class="st1 st4">TRAIL </tspan><tspan x="-48.1" y="312" class="st1 st4">RASIED</tspan><tspan x="-17.6" y="468" class="st1 st4">SALES </tspan><tspan x="-120.9" y="624" class="st1 st4">BY 200% ?</tspan></text>
<circle id="XMLID_35_" class="st3" cx="574.7" cy="449.8" r="225"/>
<path id="XMLID_32_" class="st3" d="M389.1,505.8c-24.9,0-47.7-9.2-65.1-24.3c-1.1-1.3-2.2-2.6-3.3-4L389.1,505.8z M399,515.7
	c54.9,0,99.3-44.5,99.3-99.3c0-27.4-11.1-52.3-29.1-70.2l-9.8-9.8c0,0-0.1-0.1-0.1-0.1c-18-18-42.8-29.1-70.2-29.1
	c-23.8,0-45.7,8.4-62.8,22.4c-22.3,18.2-36.5,45.9-36.5,76.9c0,27.4,11.1,52.3,29.1,70.2c0,0,0.1,0,0.1,0.1l0,0l9.8,9.8
	C346.8,504.6,371.6,515.7,399,515.7z"/>
<path id="XMLID_28_" class="st3" d="M227.7,762.2l-39.7-6.4c4-16.2,16.8-27.4,30.2-25.2c2.2,0.4,4.3,1.1,6.2,2.1
	c3.9,6.7,5.5,15.6,4,24.9L227.7,762.2z M601.6,754l-42.4,6.9c-0.1-15.3,8.4-28.3,20.8-30.3c5.2-0.8,10.4,0.4,14.9,3.2
	c2.9,4.4,4.9,9.7,5.9,15.6L601.6,754z M686.8,933.5c2.7-0.4,5.1-1.9,6.6-4.2c1.5-2.2,2.1-5,1.5-7.7l-33.4-156.4
	c-0.4-1.9-1.4-3.6-2.7-4.9l-9.9-9.9c-2.2-2.2-5.3-3.3-8.6-2.8l-14.5,2.4c-2.6-9.3-7.4-17.4-13.6-23.6l-9.9-9.9
	c-0.9-0.9-1.7-1.7-2.6-2.5c4.9-5.6,7.8-12.4,8.3-19.9c0.6-9.6-2.6-19.5-9.1-28.1l-64.1-84.6c-4.5-5.9-9.1-11.2-13.7-15.8
	c0,0-9.9-9.9-9.9-9.9c-31.5-31.5-65.5-34.4-98-34.4H365c-29.3,0-59.9,2.4-88.7,25.9c-7.8,6.4-15.5,14.4-23.1,24.3l-64.1,84.6
	c-6.5,8.5-9.7,18.5-9.1,28.1c0.5,8.4,4.2,15.9,10.1,21.8l0.4,0.4c-4,1.6-7.7,3.9-11.2,6.7c-9.4,7.7-16.4,19.4-18.6,33.4l-0.8,4.7
	l-22.3-3.6c-2.9-0.5-5.7,0.4-7.9,2.1c-1.7,1.4-2.9,3.3-3.4,5.6L93.2,911.8c-0.6,2.6,0,5.4,1.5,7.7c0.3,0.5,0.7,1,1.2,1.4l9.9,9.9
	c1.5,1.5,3.4,2.4,5.4,2.8c1.6,0.3,144.4,23.3,155.8,14.7l17.6-158.9c0.3-3.1-0.8-6-2.8-8.1l-9.9-9.9c-1.4-1.4-3.3-2.4-5.4-2.8
	l-11.2-1.8c1.3-13.1-1.9-25.5-8.2-35c-1.6-2.5-3.5-4.7-5.5-6.8l-0.4-0.4c6.9-2.6,13-7.1,17.6-13.2l50.4-66v295.3
	c0,7.7,2.3,14.9,6.3,20.9c1.4,2.1,3,4.1,4.8,5.9l9.9,9.9c6.8,6.8,16.3,11.1,26.8,11.1c20.7,0,37.5-16.6,37.8-37.2
	c1.8,6.2,5.1,11.8,9.6,16.2l0,0l9.9,9.9c6.8,6.8,16.3,11.1,26.8,11.1c20.9,0,37.8-16.9,37.8-37.8V749c0-0.1,0-0.2,0-0.3l0-113.3
	l50.4,66c1.1,1.5,2.3,2.8,3.5,4.1l9.9,9.9c0.6,0.6,1.2,1.2,1.8,1.7c-9.3,10.7-14,26.5-11.3,43.1l0.8,4.7l-22.2,3.6
	c-1.8,0.3-3.4,1-4.7,2.1c-2.5,2.1-4,5.3-3.6,8.8l17.6,158.9c0.3,2.2,1.3,4.3,2.8,5.9l9.9,9.9c0.3,0.3,0.7,0.6,1,0.9
	c1.7,1.3,3.9,2,6,2c0.5,0,1,0,1.6-0.1L686.8,933.5z"/>
<g id="XMLID_17_">
	<g id="XMLID_26_">
		<path id="XMLID_27_" d="M389.1,505.8c54.8,0,99.3-44.6,99.3-99.3c0-54.8-44.6-99.3-99.3-99.3c-54.8,0-99.3,44.6-99.3,99.3
			C289.8,461.3,334.4,505.8,389.1,505.8z"/>
	</g>
	<g id="XMLID_18_">
		<path id="XMLID_20_" d="M685.1,911.8l-33.4-156.4c-1.1-5.1-6.1-8.6-11.3-7.7l-22.2,3.6l-0.8-4.7c-3.1-19-15-34-29.9-40.1
			c6.2-6,10-13.7,10.6-22.3c0.6-9.6-2.6-19.5-9.1-28.1L525,571.7c-35.1-46.4-74.4-50.2-111.7-50.2H365c-37.3,0-76.6,3.9-111.7,50.2
			l-64.1,84.6c-6.5,8.5-9.7,18.5-9.1,28.1c0.6,8.6,4.4,16.3,10.5,22.3c-14.8,6-26.8,21-29.8,40.1l-0.8,4.7l-22.3-3.6
			c-5.1-0.8-10.2,2.5-11.3,7.7L93.2,911.8c-0.6,2.6,0,5.4,1.5,7.7c1.5,2.2,3.9,3.7,6.6,4.2L245.7,947c0.5,0.1,1,0.1,1.6,0.1
			c2.2,0,4.3-0.7,6-2c2.1-1.6,3.5-4.1,3.9-6.8l17.6-158.9c0.6-5.3-3-10-8.3-10.9l-22.3-3.6l0.8-4.7c2.9-17.9-2.8-35-13.7-45.6
			c6.9-2.6,13-7.1,17.6-13.2l60.3-79v318.1c0,20.9,16.9,37.8,37.8,37.8h0c20.9,0,37.8-16.9,37.8-37.8V770.3c0-2.3,1.9-4.2,4.2-4.2
			c2.3,0,4.2,1.9,4.2,4.2v170.4c0,20.9,16.9,37.8,37.8,37.8c20.9,0,37.8-16.9,37.8-37.8V739.1c0-0.1,0-0.2,0-0.3l0-116.3l60.3,79
			c4.7,6.2,10.9,10.6,17.6,13.2c-10.9,10.6-16.6,27.7-13.7,45.6l0.8,4.7l-22.2,3.6c-5.2,0.8-8.8,5.6-8.3,10.9l17.6,158.9
			c0.3,2.7,1.7,5.2,3.9,6.8c1.7,1.3,3.9,2,6,2c0.5,0,1,0,1.6-0.1l144.4-23.4c2.7-0.4,5.1-2,6.6-4.2
			C685.1,917.2,685.6,914.4,685.1,911.8z M228.4,757.6l-0.8,4.7l-51-8.3l0.8-4.7c2.9-18.1,16.6-31,30.9-28.6
			C222.3,723,231.3,739.5,228.4,757.6z M550.6,762.2l-0.8-4.7c-2.9-18.1,6.1-34.6,20.3-36.9c14.2-2.3,27.8,10.6,30.7,28.6l0.8,4.7
			L550.6,762.2z"/>
	</g>
</g>
<path id="Triangle" class="st3" d="M967.7,574.2l70.1-36.3l-70.1-36.6V574.2z"/>
<path id="The_Sharpness" class="st5" d="M967.7,501.3l61.5,41l8.6-4.5L967.7,501.3z"/>
<g id="Lozenge">
	<g id="XMLID_5_">
		
			<linearGradient id="XMLID_8_" gradientUnits="userSpaceOnUse" x1="994.5186" y1="808.3" x2="994.5186" y2="990.8" gradientTransform="matrix(1 0 0 1 0 -359)">
			<stop  offset="0" style="stop-color:#E52D27"/>
			<stop  offset="1" style="stop-color:#BF171D"/>
		</linearGradient>
		<path id="XMLID_6_" class="st6" d="M1121.6,488.7c0,0-2.5-17.9-10.3-25.8c-9.9-10.3-20.9-10.4-26-11c-36.3-2.6-90.8-2.6-90.8-2.6
			h-0.1c0,0-54.5,0-90.8,2.6c-5.1,0.6-16.1,0.7-26,11c-7.8,7.9-10.3,25.8-10.3,25.8s-2.6,21-2.6,42v19.7c0,21,2.6,42,2.6,42
			s2.5,17.9,10.3,25.8c9.9,10.3,22.8,10,28.6,11.1c20.8,2,88.2,2.6,88.2,2.6s54.5-0.1,90.8-2.7c5.1-0.6,16.1-0.7,26-11
			c7.8-7.9,10.3-25.8,10.3-25.8s2.6-21,2.6-42v-19.7C1124.2,509.7,1121.6,488.7,1121.6,488.7z M967.7,574.2v-72.9l70.1,36.6
			L967.7,574.2z"/>
	</g>
</g>
</svg>
