<?xml version="1.0" encoding="utf-8"?>
<!-- Generator: Adobe Illustrator 19.0.0, SVG Export Plug-In . SVG Version: 6.00 Build 0)  -->
<svg version="1.1" id="Warstwa_1" xmlns="http://www.w3.org/2000/svg" xmlns:xlink="http://www.w3.org/1999/xlink" x="0px" y="0px"
	 viewBox="250 -346 600 712" style="enable-background:new 250 -346 600 712;" xml:space="preserve">
<style type="text/css">
	.st0{fill:#E6E7E8;}
	.st1{fill:#00002A;}
	.st2{fill:#0078A2;}
	.st3{fill:#00B2F0;}
	.st4{fill:#008DBE;}
	.st5{fill:#00244A;}
	.st6{fill:#00315B;}
	.st7{fill:#001D43;}
	.st8{fill:#FAB89B;}
	.st9{fill:#004B7F;}
	.st10{fill:#FBC4A7;}
	.st11{fill:#A0D5EC;}
	.st12{fill:#00538B;}
	.st13{fill:#003A67;}
	.st14{fill:#8B0417;}
	.st15{fill:#DE3A25;}
	.st16{fill:#E4F5FD;}
	.st17{fill:#A0A1A3;}
	.st18{fill:#001237;}
	.st19{fill:#D09A83;}
	.st20{fill:#ADAFB2;}
	.st21{fill:#888A8C;}
	.st22{fill:#7D7E81;}
	.st23{fill:#4A4B4C;}
	.st24{fill:#BCBEC0;}
	.st25{fill:#A5A7AA;}
	.st26{fill:#0D2B58;}
	.st27{fill:#193C6F;}
	.st28{fill:#011E48;}
	.st29{fill:#1A2D57;}
	.st30{fill:#67686B;}
</style>
<g id="g3_5_" transform="matrix(0.9486962,0,0,0.9486962,2.4834364,1.8361818)">
	<path id="path5_4_" class="st0" d="M699,50.4c30.6-5.6,58.2,5.5,61.7,24.8c3.5,19.2-18.4,39.4-49,45c-9.6,1.7-18.9,1.9-27.3,0.6
		c-14.5,8.1-33.9,22-33.9,22s12.6-9.6,16.7-19.2c1-2.5,1.5-5,1.5-7.2c-10.2-4.5-17.2-11.8-18.8-20.9C646.5,76.1,668.4,56,699,50.4"
		/>
</g>
<g id="XMLID_9_">
	<g id="XMLID_83_">
		<polygon id="XMLID_63_" class="st1" points="742.4,-74 757.1,-27.6 748.1,-75.4 		"/>
		<polygon id="XMLID_62_" class="st1" points="722.9,-82 737.7,-35.6 728.7,-83.5 		"/>
		<polygon id="XMLID_61_" class="st1" points="706.4,-75.4 697.4,-27.6 712,-74 		"/>
		<polygon id="XMLID_60_" class="st1" points="700.4,-90 691.4,-42.1 706,-88.5 		"/>
		<polygon id="XMLID_59_" class="st2" points="765.4,-158.1 755,-158.1 721.1,-163.3 736.4,-162.6 		"/>
		<polygon id="XMLID_58_" class="st3" points="755,-158.1 765.4,-158.1 757.1,-80.2 746.6,-80.2 		"/>
		<polygon id="XMLID_57_" class="st4" points="755,-158.1 722.6,-163.3 721.9,-80.2 746.6,-80.2 		"/>
		<path id="XMLID_56_" class="st3" d="M706.1-73h43.7c4,0,7.3-3.2,7.3-7.3l0,0c0-4-3.2-7.3-7.3-7.3h-43.7c-4,0-7.3,3.2-7.3,7.3l0,0
			C698.8-76.2,702.1-73,706.1-73z"/>
		<g id="XMLID_84_">
			<path id="XMLID_55_" class="st5" d="M723.8-110.2c-25.3,5-52.7,11.4-58.4,15c-5.3,3.2,3.1,12.1,3.1,12.1s49.1-1.9,57.3-2
				C730.3-85.2,728.7-111.2,723.8-110.2z"/>
			<path id="XMLID_54_" class="st5" d="M677.8-40.6c0.1-11.1-3-56.3-3-56.3s-11.3-1.4-12.7,6.4c-0.8,4,6.2,38.6,9.1,50.3L677.8-40.6
				z"/>
			<path id="XMLID_53_" class="st1" d="M654.8-35.1l16.3-5l6.8-0.3l0.4,7.3l-11.5,0.7C653.2-31.9,654.8-35.1,654.8-35.1z"/>
			<path id="XMLID_52_" class="st6" d="M738.3-108.6c-24.4,8.3-48.2,19.9-53.4,24.2c-4.8,3.9,4.7,11.5,4.7,11.5s42.1-8.8,49.5-12.1
				C752.4-90.9,743-110.2,738.3-108.6z"/>
			<path id="XMLID_51_" class="st6" d="M699.9-31.8c-0.3-11-4.7-55.7-4.7-55.7S684-87.7,682.8-80c-0.6,4.1,7.4,37.9,10.6,49.1
				L699.9-31.8z"/>
			<path id="XMLID_50_" class="st1" d="M677.1-24.2l16.2-6.6l6.8-1l0.7,7.2l-11.6,1.7C675.6-20.9,677.1-24.2,677.1-24.2z"/>
			<g id="XMLID_125_">
				<path id="XMLID_49_" class="st7" d="M684.6-133.7c0,0-0.8,4.8,3.6,9.6C688.2-124.3,691.4-130.7,684.6-133.7z"/>
				<g id="XMLID_126_">
					<path id="XMLID_48_" class="st8" d="M684.6-129.6c0,0-4.6,1-7.8,3.4c-1.8,1.3-2.7,4-1.3,6c1,1.5,3.1,2.1,4.7,1.4
						c0.6-0.3,1.2-0.7,1.2-1.4c0-0.3-0.1-0.5-0.1-0.7c-0.1-1,0.7-1.9,1.5-2.3c0.9-0.5,2.2-0.6,3.1-1.3c0.4-0.3,1.5-1.7,1.3-2.3
						C687.1-127.1,684.6-129.6,684.6-129.6z"/>
					<g id="XMLID_129_">
						<g id="XMLID_314_">
							<path id="XMLID_315_" class="st8" d="M721.9-138c0.6-1.9,1.5-1.2-0.8-2.9c-2-1.5-6-3.8-6-3.8c-10.8,5.9-18.7,8-26.3,12.1
								c-11.9,6.5-2.8,6.9-2.8,6.9C699.4-132.3,708.8-131.2,721.9-138z"/>
						</g>
					</g>
					<g id="XMLID_127_">
						<path id="XMLID_46_" class="st9" d="M684.6-133.7c3.7,1.5,4.6,7.8,3.6,9.6c12.1-5.1,26.3-9,38.2-14.1c0.8-1.8-0.4-1.4-2.6-3.3
							c-1.9-1.6-6.5-4.2-6.5-4.2C707.1-141.3,693.6-136.5,684.6-133.7z"/>
					</g>
				</g>
			</g>
			<polygon id="XMLID_45_" class="st10" points="709.7,-191.7 721.9,-194.5 726,-181.1 713.5,-178.9 			"/>
			<path id="XMLID_44_" class="st10" d="M706.1-124.3l32.1-2.9c-0.9-14.6-0.6-50.5-4.2-53c-9.3-6.5-18.8-5.6-25.8,0.1
				C705.4-177.9,705.3-139.5,706.1-124.3z"/>
			<path id="XMLID_43_" class="st8" d="M708.9-138.6"/>
			<path id="XMLID_42_" class="st11" d="M707-109.8c-1.9-19.4-7.7-55.8-3.5-64.6c1.5-3.1,4.5-7.8,9.1-9c-0.2,0.1-0.3,0.2-0.4,0.2
				c-0.8,2,0.5,4.8,4.5,4.4c1.8-0.2,4.2-1,6.7-3.2c1.1-1,1.3-2.5,1.5-2.8c3.8,0.5,12,2.1,14.5,4.7c2.9,2.8,4.4,53.1,5.3,70.6
				l-22.7,2.6C710.3-106.8,709.2-108.3,707-109.8z"/>
			<path id="XMLID_41_" class="st12" d="M708.9-138.6c0.8,9.8,2.1,22.1,3.2,31.2c-4.3,0.6-3.5,0.9-6.4,1.7c-0.5,0.2-0.9-0.7-1-1.2
				c-2.5-21.9-6.1-56.6-2.1-67.3c1.5-3.9,4.3-6.2,7.6-8.1C710.3-182.3,707.6-154.6,708.9-138.6z"/>
			<path id="XMLID_40_" class="st13" d="M709.4-132c-1.9-3.1-6.2-13.3-6.2-13.3l3.5-13.5l-1.5-19.6l4-3.2c0,0,0.7-0.4,1-0.6
				c0,0-2.7,27.7-1.5,43.7C709-136.5,709.3-134.3,709.4-132z"/>
			<path id="XMLID_39_" class="st12" d="M725.9-180.3c0.3-1.3,0.4-2.7-0.3-3.8l-0.1-0.5c4,0.7,12.7,0.7,14,5.2
				c1.3,4.1,7.7,63.9,8.8,83.4l-25.1,2.1l-3.7-41.9l-0.3-24.4L725.9-180.3z"/>
			<path id="XMLID_38_" class="st14" d="M738.3-110.2"/>
			<path id="XMLID_37_" class="st15" d="M714.6-177.4L714.6-177.4c-1.1-0.1-2.1,0.3-2.7,1.3l-0.8,1.2c0,0,0.5,3.4,1.5,3.8
				c0.4,0.1,0.9,0.2,1.2,0.1c0.7-0.1,1.3-0.4,1.7-0.9l2-2.7l-0.8-1.3C716.2-176.8,715.4-177.3,714.6-177.4z"/>
			<path id="XMLID_36_" class="st15" d="M711.6-122.9l0.7-49.2l2.7-0.3l3.6,48.9l-1.8,9.1c-0.3,1.8-2.1,1.8-2.6,0L711.6-122.9z"/>
			<g id="XMLID_112_">
				<path id="XMLID_35_" class="st16" d="M711.7-185l1.8,4.6L711-175c0,0-2.5-5.1-2-6.6C709-181.5,710-183.9,711.7-185z"/>
				<polygon id="XMLID_34_" class="st17" points="713.5,-180.3 714.2,-179 711,-174.9 				"/>
			</g>
			<path id="XMLID_33_" class="st13" d="M726.5-185.8l6.7,2.3L721.9-162l1.5,18.1l-3.4,13.3c0,0-3.4-15.6-1.8-28.3
				C719.8-171.5,721-179,726.5-185.8z"/>
			<path id="XMLID_32_" class="st16" d="M724.6-188l3.3,3.8c0,0-5.8,7.4-10.3,10.7l-3.3-6.6C714.2-180.1,718.9-183.3,724.6-188z"/>
			<g id="XMLID_31_">
				<path id="XMLID_169_" class="st10" d="M707-218.8c3.8-0.6,7.7,0,9.9,1.7c5.4,4.2,3.9,10.9,4.7,17.2c0.1,1.1,0.3,4,0.9,7.7
					c0.1,0.7-0.9-0.7-1.5-0.5c-4.9,1.9-7.8,4.7-12.7,6.6c-1.3,0.5-3.4,1.8-4.4,0.9c-0.6-0.5-0.9-1.6-1.2-2.3c-1.2-4.1-3.2-9-4-12.7
					c-0.6-2.6-1.2-5-1.4-7.7c-0.2-2.1,0-4.4,1-6.2C699.9-216.7,703.4-218.2,707-218.8z"/>
			</g>
			<g id="XMLID_30_">
				<path id="XMLID_168_" class="st18" d="M722.6-196.8c-0.3,0.2-0.8,0.1-1.4-0.3c-0.8-0.5-1.8-1.5-2.1-2.4
					c-0.3-1.2,0.5-2.7,0.5-3.9c0-0.9-0.2-1.8-0.8-2.5c-0.6-0.6-1.8-0.8-2.3-0.1c-0.4,0.4-0.4,1.2-0.9,1.5c-0.4,0.3-1.1,0.2-1.5-0.1
					c-0.4-0.3-0.8-0.8-1.2-1.2c-0.9-1.1-2.3-1.9-3.7-2c-0.8-0.1-1.6,0.1-2.4,0.2c-2.3,0.3-4.7-0.3-6.8-1.3c-2.7-1.5-5.6-3.8-5.8-7.1
					c1.7,0.8,3.7-0.3,5.2-1.2c2.2-1.3,4.4-2.5,6.9-3c2.5-0.5,6.2-0.8,8.2,0.7c0.4,0.3,0.9,0.7,1.4,0.9c1.1,0.5,1.5,0.7,2.7,1
					c1.7,0.5,2.7,2.3,3.3,4c1.2,3.2,1.8,6.6,2,10C723.8-202.3,724.1-197.5,722.6-196.8z"/>
			</g>
			<path id="XMLID_29_" class="st10" d="M698.6-202.4c-0.3,3.6-0.4,4.9-0.9,7.2c-0.1,0.5,0.3,1,0.9,1.1c1,0,2.1-0.1,3-0.2"/>
			<path id="XMLID_28_" class="st19" d="M715.8-198.4c0,0,0.9,6.2,0.3,7.1c-0.6,0.9-6.1,4.3-6.1,4.3s4.7-1.8,6.8-4.1
				C718.1-192.6,715.8-198.4,715.8-198.4z"/>
			<g id="XMLID_85_">
				<g id="XMLID_86_">
					<path id="XMLID_27_" class="st7" d="M708.2-137.6c0,0-2.5,4.1-0.3,10.2C707.8-127.4,713.3-132.1,708.2-137.6z"/>
					<path id="XMLID_26_" class="st8" d="M706.7-133.7c0,0-4.6-0.8-8.5,0.2c-2.1,0.5-3.9,2.7-3.4,5c0.3,1.7,2.1,3.1,3.8,3.1
						c0.6,0,1.4-0.3,1.6-0.8c0.1-0.3,0.1-0.5,0.2-0.7c0.3-0.9,1.4-1.5,2.3-1.5c1-0.1,2.3,0.3,3.3,0c0.5-0.1,2.1-1,2.1-1.6
						C708-130.5,706.7-133.7,706.7-133.7z"/>
					<g id="XMLID_95_">
						<g id="XMLID_317_">
							<path id="XMLID_318_" class="st8" d="M744.3-127.3c1.3-1.5,1.9-0.5,0.4-3c-1.3-2.1-4.1-5.8-4.1-5.8
								c-12.1,1.4-20.4,0.3-29,1.2c-13.5,1.5-5.2,5.3-5.2,5.3C721.4-130.6,729.6-126,744.3-127.3z"/>
						</g>
					</g>
					<g id="XMLID_93_">
						<path id="XMLID_22_" class="st8" d="M742.6-129.8c-0.7,0.6-0.8,0.9-3.1,0.8c-1.8-0.2-2.1-1.7-2.7-3.1
							c-7.2-21.3-5.2-43.1-3.6-42.7c5.9,1.3,8.4,9.5,8.4,9.5s2.8,10.1,4.2,22c0.3,2.2,1.2,14.7-0.3,16
							C745.6-127.5,742.6-129.8,742.6-129.8z"/>
					</g>
					<g id="XMLID_91_">
						<path id="XMLID_20_" class="st9" d="M708.2-137.6c2.9,2.7,1.4,9-0.3,10.2c13.2-0.1,27.7,1.8,40.7,1.5c1.4-1.5,0.2-1.5-1.1-4
							c-1.1-2.2-4.8-8.5-4.8-8.5C731.5-138.1,717.6-136.7,708.2-137.6z"/>
					</g>
					<g id="XMLID_87_">
						<path id="XMLID_19_" class="st9" d="M742.6-129.8c-0.7,0.6-0.8,0.9-3.1,0.8c-1.8-0.2-2.3,0.5-2.8-0.9
							c-9.7-20.2-6.6-54.7,1.6-52.1c5.7,1.9,8.2,22.1,9.6,34c0.3,2.2,2.3,21.2,0.9,22.5C748.7-125.6,742.6-129.8,742.6-129.8z"/>
					</g>
				</g>
			</g>
		</g>
	</g>
	<g id="XMLID_21_">
		<g id="XMLID_75_">
			<rect id="XMLID_16_" x="771" y="-110.7" class="st20" width="4.3" height="92"/>
			<polygon id="XMLID_15_" class="st21" points="771,-18.8 768.9,-22.7 768.9,-110.7 771,-110.7 			"/>
		</g>
		<g id="XMLID_66_">
			<rect id="XMLID_13_" x="644.9" y="-110.7" class="st20" width="4.3" height="92"/>
			<polygon id="XMLID_11_" class="st21" points="644.9,-18.8 642.8,-22.7 642.8,-110.7 644.9,-110.7 			"/>
		</g>
		<rect id="XMLID_7_" x="617.2" y="-116" class="st20" width="184" height="7"/>
		<polygon id="XMLID_6_" class="st22" points="608.1,-120 791.6,-119.9 801.2,-116 617.2,-116 		"/>
		<polygon id="XMLID_5_" class="st23" points="617.2,-116 617.2,-109 608.1,-114.3 608.1,-120 		"/>
	</g>
	<g id="XMLID_10_">
		<polygon id="XMLID_4_" class="st10" points="672.3,-118.3 680.6,-115.4 708.9,-115.4 708.9,-119.6 673.3,-119.6 		"/>
		<polygon id="XMLID_3_" class="st24" points="666.3,-144.6 680.6,-115.4 680.5,-115.4 658.2,-117.9 643,-149.1 		"/>
		<polygon id="XMLID_2_" class="st25" points="668.7,-144.6 645.8,-149.7 643,-149.1 666.3,-144.1 		"/>
		<polygon id="XMLID_1_" class="st10" points="680.6,-115.4 666.3,-144.1 668.7,-144.6 683.1,-115.4 		"/>
	</g>
</g>
<g id="XMLID_12_">
	<g id="XMLID_170_">
		<path id="XMLID_100_" class="st26" d="M445.5,42.2c-5.6-7.7-14.8-11.8-24.1-13.8c-9.2-2-18.8-2.1-28.1-3.4
			c-2.6-0.3-5.2-0.9-7.4-2.2c-2.8-1.8-4.6-4.9-5.7-8c-2.5-6.9-1.8-14.4-2.4-21.6c-0.4-5.5-1.6-11.1-4.9-15.6
			c-10.7-14.7-41-15-54.1-3.8c-4,3.5-6.7,8.3-8.6,13.3c-8.2,20.5-4.5,44.1,5.6,63.2c11.3,21.1,32.3,35,54.8,41.6
			c21.6,6.4,50.3,9.2,68.2-7.4c1.7-1.6,3.2-3.3,4.7-5.2C451.7,68.8,453.4,53,445.5,42.2z"/>
	</g>
	<g id="XMLID_167_">
		<path id="XMLID_115_" class="st27" d="M375.6-17.4c-0.7-1.8-1.5-3.4-2.7-5c-3.8-5.2-10-8.6-17.1-10.3c-4.9-0.9-10-1.3-15-1.3
			c-0.6,0-1.2,0.1-1.8,0.2c-4.6,2.5-9.8,3.9-14,7.1c-2.8,2.1-5.8,7-1.7,9.4c3.2,1.8,7.7,1.5,11.2,1.2c3.6-0.3,7.1-0.9,10.7-1.5
			c6.8-1,14.3-1.8,20.8,1c2.2,0.9,3.9,2.7,5.9,4.1c0.6,0.4,2.1,1,2.6,1.6c0-0.1,0.1-0.1,0.1-0.2c0.1-1,0.7-2.3,0.9-3.2
			C375.5-15.2,375.6-16.4,375.6-17.4z"/>
	</g>
	<g id="XMLID_164_">
		<path id="XMLID_116_" class="st28" d="M445.5,42.2c-5.6-7.7-14.8-11.8-24.1-13.8c-9.2-2-18.8-2.1-28.1-3.4
			c-2.6-0.3-5.1-0.9-7.4-2.2c-8,2.7-17.3,2.9-23,9.6c-3.5,4-4.9,8.1-1.8,12.8c0.3,0.5,0.7,1,1.1,1.5c4,5.1,10.1,8.2,16.5,9
			c0.9,0.1,1.8,0.2,2.7,0.3c8.1,0.9,18.1,2.1,23.6,9.1c6.3,8,2.6,19.8-1.5,27.9c-0.7,1.4-1.5,2.7-2.2,4.1c13.9,0.2,27.4-3,37.6-12.4
			c1.7-1.6,3.2-3.3,4.7-5.2C451.7,68.8,453.4,53,445.5,42.2z"/>
	</g>
	<g id="XMLID_14_">
		<path id="XMLID_163_" class="st5" d="M394.5,26.8c23.4,1.7,47.8,2.2,53.4,4.8c5.1,2.4-1.5,11.2-1.5,11.2s-44.6,3.8-52.1,4.6
			C390.3,47.9,390,26.5,394.5,26.8z"/>
		<path id="XMLID_162_" class="st5" d="M438.9,85c-0.3-10.8,1.3-54.4,1.3-54.4s10.3-1.5,11.7,6c0.8,3.8-4.7,37.4-6.9,48.6L438.9,85z
			"/>
		<path id="XMLID_161_" class="st1" d="M460,90l-15-4.7l-6.2-0.3l-0.3,7l10.6,0.4C461.7,93.1,460,90,460,90z"/>
		<path id="XMLID_160_" class="st6" d="M382.1,26.1c22.2,7.5,45.7,14.1,50.5,18c4.4,3.6-4.3,10.5-4.3,10.5s-40.6-5-47.5-8
			C368.7,41.4,377.9,24.7,382.1,26.1z"/>
		<path id="XMLID_159_" class="st6" d="M412.4,90.7c2-9.9,12.9-49.3,12.9-49.3s10.3,1.5,10.1,8.7c-0.1,3.8-12.6,32.9-17.2,42.5
			L412.4,90.7z"/>
		<path id="XMLID_158_" class="st1" d="M431.7,101l-13.6-8.5l-5.9-2l-1.7,6.3l10.2,3.3C432.7,104.3,431.7,101,431.7,101z"/>
		<g id="XMLID_147_">
			<path id="XMLID_157_" class="st7" d="M433.8,12.4c0,0,0.7,4.4-3.2,8.7C430.5,21.1,427.5,15.3,433.8,12.4z"/>
			<g id="XMLID_148_">
				<path id="XMLID_156_" class="st8" d="M433.7,16.2c0,0,4.2,0.9,7.1,3.1c1.6,1.2,2.4,3.7,1.2,5.5c-0.9,1.3-2.7,1.9-4.3,1.3
					c-0.5-0.3-1.1-0.7-1.1-1.2c0-0.3,0.1-0.4,0.1-0.7c0.1-0.9-0.6-1.7-1.5-2.1c-0.9-0.4-2.1-0.6-2.8-1.1c-0.3-0.3-1.4-1.5-1.2-2.1
					C431.5,18.5,433.7,16.2,433.7,16.2z"/>
				<g id="XMLID_151_">
					<g id="XMLID_299_">
						<path id="XMLID_305_" class="st8" d="M399.7,8.5c-0.5-1.7-1.5-1.1,0.7-2.7c1.8-1.4,5.5-3.5,5.5-3.5c9.8,5.4,17.1,7.4,24,11.1
							c10.9,5.9,2.6,6.3,2.6,6.3C420.2,13.8,411.6,14.8,399.7,8.5z"/>
					</g>
				</g>
				<g id="XMLID_149_">
					<path id="XMLID_150_" class="st9" d="M433.8,12.4c-3.3,1.3-4.3,7.1-3.2,8.7c-11-4.6-24-8.1-34.9-12.9c-0.7-1.7,0.3-1.3,2.4-3
						c1.7-1.5,5.9-3.8,5.9-3.8C413.2,5.6,425.6,10,433.8,12.4z"/>
				</g>
			</g>
		</g>
		<polygon id="XMLID_146_" class="st10" points="408.1,-46.5 396.9,-49 393.1,-36.8 404.5,-34.7 		"/>
		<path id="XMLID_145_" class="st10" d="M411.3,15.1l-29.2-2.7c0.8-13.3,0.6-46.1,3.8-48.4c8.5-6,17.2-5,23.6,0.1
			C411.9-33.8,412,1.2,411.3,15.1z"/>
		<path id="XMLID_144_" class="st8" d="M408.7,1.9"/>
		<path id="XMLID_143_" class="st11" d="M410.4,28.3c1.7-17.7,7-51,3.2-58.9c-1.4-2.8-4.1-7.1-8.4-8.2c0.1,0.1,0.3,0.1,0.3,0.2
			c0.7,1.8-0.5,4.4-4.1,4.1c-1.6-0.2-3.8-0.9-6.1-3c-1-0.9-1.2-2.2-1.3-2.6c-3.4,0.4-10.9,2-13.3,4.3c-2.7,2.6-3.9,48.5-4.9,64.5
			l20.8,2.3C407.5,31,408.5,29.6,410.4,28.3z"/>
		<path id="XMLID_142_" class="st12" d="M408.7,1.9c-0.7,9-2,20.1-3,28.5c3.9-0.9,5-2.5,7.1-4.4c2.3-19.9,5.2-46.7,1.5-56.6
			c-1.4-3.6-3.9-5.6-6.9-7.4C407.5-37.9,409.8-12.6,408.7,1.9z"/>
		<path id="XMLID_141_" class="st13" d="M408.2,8c1.7-2.7,5.6-12.2,5.6-12.2l-3.2-12.3l1.5-17.9l-3.7-3c0,0-0.6-0.4-0.9-0.6
			c0,0,2.5,25.3,1.3,39.8C408.6,3.9,408.4,6,408.2,8z"/>
		<path id="XMLID_140_" class="st12" d="M393.3-36c-0.3-1.2-0.4-2.5,0.3-3.4V-40c-3.7,0.6-11.5,0.6-12.8,4.8c-1.2,3.8-7,58.3-8,76.2
			l23,1.9L399,4.7l0.2-22.2L393.3-36z"/>
		<path id="XMLID_139_" class="st14" d="M381.9,27.9"/>
		<path id="XMLID_138_" class="st15" d="M403.6-33.4L403.6-33.4c1-0.1,2,0.3,2.5,1.2l0.8,1.1c0,0-0.4,3.2-1.5,3.4
			c-0.3,0.1-0.8,0.1-1.1,0.1c-0.6-0.1-1.2-0.4-1.5-0.9l-1.8-2.5l0.7-1.2C402.1-32.8,402.8-33.3,403.6-33.4z"/>
		<path id="XMLID_137_" class="st15" d="M406.3,16.4l-0.6-45l-2.4-0.2L400,15.9l1.6,8.4c0.3,1.6,1.9,1.6,2.3,0L406.3,16.4z"/>
		<g id="XMLID_134_">
			<path id="XMLID_136_" class="st16" d="M406.1-40.3l-1.6,4.3l2.4,5c0,0,2.3-4.6,1.8-6C408.6-37.1,407.8-39.3,406.1-40.3z"/>
			<polygon id="XMLID_135_" class="st17" points="404.5,-36.1 403.9,-34.8 406.9,-31.1 			"/>
		</g>
		<path id="XMLID_133_" class="st13" d="M392.7-41.1l-6.1,2.1l10.3,19.7l-1.4,16.5l3.2,12.2c0,0,3.1-14.2,1.6-25.8
			C398.8-28.1,397.7-34.8,392.7-41.1z"/>
		<path id="XMLID_132_" class="st16" d="M394.4-43l-3,3.4c0,0,5.3,6.7,9.5,9.7l3.1-6.1C403.9-35.9,399.6-38.8,394.4-43z"/>
		<g id="XMLID_128_">
			<path id="XMLID_152_" class="st10" d="M410.4-71.2c-3.4-0.5-7,0-9.1,1.5c-5,3.8-3.6,10-4.3,15.6c-0.1,1-0.3,3.7-0.9,7
				c-0.1,0.6,0.9-0.7,1.4-0.4c4.4,1.7,7.1,4.3,11.5,6c1.2,0.4,3.1,1.6,4,0.8c0.5-0.4,0.9-1.5,1-2.1c1.1-3.8,2.8-8.2,3.7-11.6
				c0.5-2.3,1.1-4.6,1.3-7c0.2-1.9,0-3.9-0.9-5.6C416.9-69.3,413.8-70.6,410.4-71.2z"/>
		</g>
		<g id="XMLID_122_">
			<path id="XMLID_166_" class="st18" d="M396.2-51.2c0.3,0.2,0.7,0.1,1.2-0.3c0.7-0.4,1.6-1.4,1.9-2.1c0.3-1.1-0.4-2.4-0.4-3.6
				c0-0.8,0.2-1.6,0.8-2.2c0.6-0.6,1.6-0.7,2.1-0.1c0.3,0.4,0.4,1.1,0.9,1.5c0.4,0.3,1,0.2,1.5-0.1c0.4-0.3,0.7-0.7,1-1.1
				c0.9-0.9,2.1-1.7,3.4-1.8c0.8-0.1,1.5,0.1,2.2,0.2c2.1,0.3,4.3-0.2,6.2-1.2c2.5-1.3,5-3.5,5.3-6.5c-1.5,0.7-3.3-0.3-4.8-1.1
				c-2-1.2-4.1-2.3-6.3-2.7c-2.3-0.4-5.6-0.7-7.4,0.7c-0.4,0.3-0.8,0.6-1.2,0.9c-1,0.4-1.4,0.6-2.4,0.9c-1.5,0.4-2.5,2.1-3,3.7
				c-1.1,2.9-1.6,6-1.8,9.1C395.1-56.1,394.9-51.8,396.2-51.2z"/>
		</g>
		<path id="XMLID_121_" class="st10" d="M418.1-56.2c0.2,3.2,0.4,4.4,0.9,6.6c0.1,0.5-0.3,0.9-0.8,1c-0.9,0-2-0.1-2.7-0.2"/>
		<path id="XMLID_120_" class="st19" d="M402.5-52.6c0,0-0.9,5.6-0.3,6.5s5.5,3.9,5.5,3.9s-4.3-1.6-6.2-3.8
			C400.4-47.2,402.5-52.6,402.5-52.6z"/>
		<g id="XMLID_98_">
			<g id="XMLID_101_">
				<path id="XMLID_119_" class="st7" d="M410.4,20.6c0,0,0.4,4.4-3.7,8.5C406.7,29.1,403.9,23.1,410.4,20.6z"/>
				<path id="XMLID_118_" class="st8" d="M410,24.4c0,0,4.1,1.1,6.9,3.5c1.5,1.3,2.2,3.8,0.9,5.5c-0.9,1.3-2.8,1.7-4.3,1
					c-0.5-0.3-1-0.7-1-1.3c0-0.3,0.1-0.4,0.2-0.7c0.2-0.9-0.5-1.7-1.3-2.2c-0.9-0.5-2-0.7-2.7-1.3c-0.3-0.3-1.3-1.6-1.1-2.1
					C407.7,26.6,410,24.4,410,24.4z"/>
				<g id="XMLID_113_">
					<g id="XMLID_310_">
						<path id="XMLID_313_" class="st8" d="M376.5,14.9c-0.4-1.7-1.4-1.1,0.9-2.7c1.9-1.3,5.6-3.2,5.6-3.2
							c9.5,5.9,16.7,8.2,23.4,12.3c10.5,6.4,2.2,6.4,2.2,6.4C396.7,21.3,388.1,21.9,376.5,14.9z"/>
					</g>
				</g>
				<g id="XMLID_110_">
					<path id="XMLID_111_" class="st8" d="M378,10c0.6,0.6,0.7,0.9,2.8,0.7c1.7-0.2,2-1.5,2.4-2.8c6.5-19.4,4.8-39.2,3.2-39
						c-5.4,1.2-7.7,8.6-7.7,8.6s-2.6,9.1-3.8,20c-0.3,2-1.1,13.4,0.3,14.6C375.3,12.1,378,10,378,10z"/>
				</g>
				<g id="XMLID_108_">
					<path id="XMLID_109_" class="st9" d="M410.4,20.6c-3.4,1.1-4.6,6.8-3.7,8.5c-10.8-5.2-23.5-9.4-34.2-14.7
						c-0.6-1.7,0.4-1.2,2.6-2.9c1.8-1.4,7.3-5.1,7.3-5.1C391.3,11.1,402.2,17.7,410.4,20.6z"/>
				</g>
				<g id="XMLID_104_">
					<path id="XMLID_105_" class="st9" d="M378,10c0.6,0.6,0.7,0.9,2.8,0.7c1.7-0.2,2.1,0.4,2.7-0.9c8.8-18.4,6-49.9-1.5-47.5
						c-5.2,1.7-7.5,20.2-8.8,31c-0.3,2-2.1,19.3-0.8,20.5L378,10z"/>
				</g>
			</g>
		</g>
		<polygon id="XMLID_25_" class="st10" points="434.4,35.9 426.9,38.4 401,38.4 401,34.7 433.5,34.7 		"/>
		<polygon id="XMLID_24_" class="st24" points="439.9,11.8 426.9,38.4 426.9,38.4 448.8,32.9 461.2,7.7 		"/>
		<polygon id="XMLID_18_" class="st25" points="437.7,11.8 458.6,7.2 461.2,7.7 439.9,12.3 		"/>
		<polygon id="XMLID_17_" class="st10" points="426.9,38.4 439.9,12.3 437.7,11.8 424.6,38.4 		"/>
	</g>
</g>
<g id="XMLID_96_">
	<ellipse id="XMLID_271_" class="st29" cx="651.3" cy="269.2" rx="106.3" ry="22"/>
	<g id="XMLID_353_">
		<g id="XMLID_354_">
			<g id="XMLID_370_">
				<polygon id="XMLID_270_" class="st1" points="595.1,230 583.8,265.7 590.7,228.9 				"/>
				<polygon id="XMLID_269_" class="st1" points="610.1,223.8 598.8,259.6 605.6,222.7 				"/>
				<polygon id="XMLID_268_" class="st1" points="622.9,228.9 629.8,265.7 618.5,230 				"/>
				<polygon id="XMLID_267_" class="st1" points="627.5,217.7 634.4,254.5 623.1,218.8 				"/>
				<polygon id="XMLID_266_" class="st2" points="577.3,165.2 585.4,165.2 611.5,161.2 599.7,161.7 				"/>
				<polygon id="XMLID_265_" class="st3" points="585.4,165.2 577.3,165.2 583.8,225.2 591.9,225.2 				"/>
				<polygon id="XMLID_264_" class="st4" points="585.4,165.2 610.3,161.2 610.9,225.2 591.9,225.2 				"/>
				<path id="XMLID_263_" class="st3" d="M623.1,230.8h-33.7c-3.1,0-5.6-2.5-5.6-5.6l0,0c0-3.1,2.5-5.6,5.6-5.6h33.7
					c3.1,0,5.6,2.5,5.6,5.6l0,0C628.6,228.3,626.2,230.8,623.1,230.8z"/>
				<g id="XMLID_371_">
					<path id="XMLID_262_" class="st5" d="M609.4,202.1c19.5,3.8,40.5,8.8,45,11.5c4,2.6-2.4,9.2-2.4,9.2s-37.8-1.5-44.1-1.5
						C604.4,221.3,605.7,201.3,609.4,202.1z"/>
					<path id="XMLID_261_" class="st5" d="M644.9,255.7c0-8.6,2.3-43.3,2.3-43.3s8.6-1,9.7,5c0.6,3.1-4.8,29.8-6.9,38.6L644.9,255.7
						z"/>
					<path id="XMLID_260_" class="st1" d="M662.6,259.9L650,256l-5.2-0.3l-0.3,5.6l8.9,0.5C663.9,262.4,662.6,259.9,662.6,259.9z"/>
					<path id="XMLID_259_" class="st6" d="M598.3,203.3c18.8,6.4,37.1,15.3,41.1,18.6c3.7,3.1-3.6,8.9-3.6,8.9s-32.4-6.8-38.1-9.3
						C587.3,217,594.7,202.1,598.3,203.3z"/>
					<path id="XMLID_258_" class="st6" d="M627.8,262.5c0.3-8.6,3.6-42.8,3.6-42.8s8.7-0.2,9.7,5.8c0.5,3.2-5.7,29.2-8.1,37.8
						L627.8,262.5z"/>
					<path id="XMLID_257_" class="st1" d="M645.4,268.3l-12.5-5l-5.2-0.8l-0.5,5.6l8.9,1.3C646.6,270.8,645.4,268.3,645.4,268.3z"/>
					<g id="XMLID_412_">
						<path id="XMLID_256_" class="st7" d="M639.7,184c0,0,0.6,3.7-2.7,7.4C636.9,191.2,634.4,186.4,639.7,184z"/>
						<g id="XMLID_413_">
							<path id="XMLID_255_" class="st8" d="M639.6,187.1c0,0,3.5,0.8,6,2.7c1.4,1,2.1,3.1,1,4.6c-0.8,1.1-2.3,1.5-3.6,1.1
								c-0.4-0.2-0.9-0.5-0.9-1c0-0.2,0.1-0.3,0.1-0.6c0.1-0.8-0.5-1.5-1.2-1.8c-0.7-0.3-1.7-0.5-2.3-0.9c-0.3-0.3-1.1-1.3-1-1.7
								C637.7,189.1,639.6,187.1,639.6,187.1z"/>
							<g id="XMLID_416_">
								<g id="XMLID_312_">
									<path id="XMLID_319_" class="st8" d="M610.9,180.6c-0.4-1.5-1.2-0.9,0.6-2.2c1.5-1.1,4.6-2.9,4.6-2.9
										c8.3,4.5,14.4,6.2,20.3,9.3c9.1,5,2.1,5.3,2.1,5.3C628.2,185.1,620.9,185.9,610.9,180.6z"/>
								</g>
							</g>
							<g id="XMLID_414_">
								<path id="XMLID_253_" class="st9" d="M639.7,184c-2.8,1.1-3.6,6-2.7,7.4c-9.3-3.9-20.3-6.8-29.4-10.9c-0.6-1.5,0.3-1,2-2.6
									c1.5-1.3,5-3.2,5-3.2C622.2,178.2,632.7,181.8,639.7,184z"/>
							</g>
						</g>
					</g>
					<polygon id="XMLID_252_" class="st10" points="620.3,139.3 610.9,137.2 607.7,147.5 617.3,149.3 					"/>
					<path id="XMLID_251_" class="st10" d="M623,191.2l-24.7-2.2c0.7-11.3,0.5-38.9,3.2-40.8c7.2-5,14.4-4.3,19.9,0.1
						C623.6,150,623.7,179.5,623,191.2z"/>
					<path id="XMLID_250_" class="st8" d="M620.9,180.2"/>
					<path id="XMLID_249_" class="st11" d="M622.3,202.4c1.5-15,5.9-43,2.7-49.7c-1.1-2.3-3.4-6-7-6.9c0.1,0.1,0.2,0.1,0.3,0.2
						c0.6,1.5-0.4,3.7-3.5,3.4c-1.4-0.1-3.2-0.8-5.1-2.5c-0.9-0.8-1-1.9-1.1-2.1c-2.9,0.3-9.2,1.6-11.2,3.6
						c-2.2,2.2-3.3,40.9-4.1,54.4l17.5,2C619.8,204.7,620.7,203.5,622.3,202.4z"/>
					<path id="XMLID_248_" class="st12" d="M620.9,180.2c-0.6,7.6-1.6,16.9-2.5,24c3.3,0.4,2.7,0.7,4.9,1.3c0.4,0.1,0.7-0.5,0.8-0.9
						c2-16.8,4.7-43.6,1.5-51.8c-1.1-3.1-3.3-4.8-5.8-6.2C619.8,146.6,621.9,167.9,620.9,180.2z"/>
					<path id="XMLID_247_" class="st13" d="M620.4,185.3c1.5-2.3,4.8-10.3,4.8-10.3l-2.7-10.3l1.2-15l-3.1-2.5c0,0-0.5-0.3-0.9-0.5
						c0,0,2.1,21.3,1.1,33.6C620.8,181.8,620.6,183.5,620.4,185.3z"/>
					<path id="XMLID_246_" class="st12" d="M607.9,148.1c-0.3-1-0.3-2.1,0.3-2.9v-0.4c-3.1,0.5-9.7,0.5-10.9,4
						c-0.9,3.2-5.9,49.2-6.8,64.3l19.4,1.6l2.8-32.2l0.2-18.8L607.9,148.1z"/>
					<path id="XMLID_245_" class="st14" d="M598.3,202.1"/>
					<path id="XMLID_244_" class="st15" d="M616.6,150.4L616.6,150.4c0.9-0.1,1.6,0.3,2.1,0.9l0.6,0.9c0,0-0.3,2.7-1.2,2.9
						c-0.3,0.1-0.7,0.1-0.9,0.1c-0.5-0.1-1-0.3-1.3-0.8l-1.5-2.1l0.6-1C615.2,150.9,615.9,150.5,616.6,150.4z"/>
					<path id="XMLID_243_" class="st15" d="M618.8,192.3l-0.5-37.9l-2.1-0.2l-2.7,37.6l1.4,7c0.3,1.4,1.5,1.4,2,0L618.8,192.3z"/>
					<g id="XMLID_399_">
						<path id="XMLID_242_" class="st16" d="M618.7,144.6l-1.4,3.6l2,4.2c0,0,2-3.9,1.5-5C620.8,147.2,620.1,145.4,618.7,144.6z"/>
						<polygon id="XMLID_241_" class="st17" points="617.3,148.1 616.8,149.2 619.3,152.2 						"/>
					</g>
					<path id="XMLID_240_" class="st13" d="M607.4,143.9l-5.1,1.8l8.6,16.6l-1.1,13.9l2.7,10.3c0,0,2.6-12,1.4-21.8
						C612.6,154.8,611.6,149.1,607.4,143.9z"/>
					<path id="XMLID_239_" class="st16" d="M608.8,142.2l-2.6,2.9c0,0,4.4,5.6,8,8.2l2.6-5C616.8,148.2,613.2,145.8,608.8,142.2z"/>
					<g id="XMLID_238_">
						<path id="XMLID_281_" class="st10" d="M622.4,118.5c-2.9-0.4-5.9,0-7.7,1.3c-4.2,3.2-3.1,8.5-3.6,13.3
							c-0.1,0.9-0.3,3.1-0.8,5.9c-0.1,0.5,0.7-0.5,1.2-0.3c3.8,1.5,6,3.6,9.7,5c1,0.4,2.7,1.4,3.4,0.6c0.4-0.4,0.7-1.3,0.9-1.8
							c0.9-3.2,2.4-6.9,3.1-9.8c0.4-2,0.9-3.9,1.1-5.9c0.1-1.6,0-3.3-0.9-4.7C627.8,120.1,625.1,118.9,622.4,118.5z"/>
					</g>
					<g id="XMLID_237_">
						<path id="XMLID_277_" class="st18" d="M610.3,135.3c0.3,0.1,0.6,0.1,1-0.3c0.6-0.4,1.4-1.1,1.6-1.8c0.3-0.9-0.3-2.1-0.3-3
							c0-0.7,0.2-1.4,0.6-1.9c0.5-0.5,1.4-0.6,1.8-0.1c0.3,0.3,0.3,0.9,0.8,1.2c0.3,0.3,0.9,0.2,1.2-0.1c0.3-0.3,0.6-0.6,0.9-0.9
							c0.8-0.9,1.8-1.5,2.8-1.5c0.6,0,1.2,0.1,1.9,0.2c1.8,0.2,3.6-0.2,5.2-1c2.1-1.1,4.3-2.9,4.4-5.5c-1.3,0.6-2.8-0.2-4-0.9
							c-1.7-1-3.4-2-5.4-2.3c-1.9-0.4-4.7-0.6-6.3,0.5c-0.3,0.3-0.7,0.5-1,0.7c-0.9,0.3-1.1,0.5-2.1,0.8c-1.4,0.3-2.1,1.8-2.6,3.1
							c-0.9,2.5-1.4,5-1.5,7.7C609.5,131.1,609.1,134.8,610.3,135.3z"/>
					</g>
					<path id="XMLID_236_" class="st10" d="M628.8,131c0.2,2.7,0.3,3.8,0.7,5.6c0.1,0.4-0.2,0.9-0.6,0.9c-0.8,0-1.7-0.1-2.3-0.1"/>
					<path id="XMLID_235_" class="st19" d="M615.6,134.1c0,0-0.7,4.8-0.3,5.5s4.6,3.3,4.6,3.3s-3.6-1.4-5.2-3.2
						C613.9,138.7,615.6,134.1,615.6,134.1z"/>
					<g id="XMLID_372_">
						<g id="XMLID_373_">
							<path id="XMLID_234_" class="st7" d="M621.5,181c0,0,2,3.2,0.3,7.9C621.7,188.8,617.5,185.2,621.5,181z"/>
							<path id="XMLID_233_" class="st8" d="M622.6,184c0,0,3.6-0.6,6.5,0.2c1.6,0.4,3.1,2.1,2.7,3.8c-0.3,1.3-1.5,2.4-2.9,2.4
								c-0.5,0-1-0.2-1.2-0.6c-0.1-0.2-0.1-0.3-0.2-0.5c-0.2-0.8-1-1.1-1.8-1.2c-0.8-0.1-1.8,0.2-2.6,0c-0.3-0.1-1.5-0.8-1.6-1.2
								C621.6,186.4,622.6,184,622.6,184z"/>
							<g id="XMLID_382_">
								<g id="XMLID_304_">
									<path id="XMLID_306_" class="st8" d="M593.6,188.8c-0.9-1.2-1.5-0.3-0.3-2.3c0.9-1.6,3.2-4.4,3.2-4.4
										c9.4,1,15.7,0.2,22.3,0.9c10.3,1.1,4,4.1,4,4.1C611.3,186.4,605,190,593.6,188.8z"/>
								</g>
							</g>
							<g id="XMLID_380_">
								<path id="XMLID_231_" class="st8" d="M595,187c0.5,0.5,0.6,0.8,2.4,0.6c1.5-0.1,1.6-1.3,2.1-2.4c5.6-16.4,4-33.2,2.7-32.8
									c-4.5,1-6.5,7.3-6.5,7.3s-2.1,7.8-3.2,16.9c-0.2,1.7-0.9,11.4,0.2,12.3C592.6,188.8,595,187,595,187z"/>
							</g>
							<g id="XMLID_378_">
								<path id="XMLID_230_" class="st9" d="M621.5,181c-2.2,2.1-1,6.8,0.3,7.9c-10.1-0.1-21.4,1.4-31.4,1.1
									c-1-1.1-0.1-1.1,0.9-3.1c0.9-1.7,3.7-6.5,3.7-6.5C603.5,180.6,614.3,181.7,621.5,181z"/>
							</g>
							<g id="XMLID_374_">
								<path id="XMLID_229_" class="st9" d="M595,187c0.5,0.5,0.6,0.8,2.4,0.6c1.5-0.1,1.8,0.3,2.2-0.7c7.4-15.5,5-42.2-1.3-40.1
									c-4.4,1.5-6.3,17-7.4,26.2c-0.2,1.7-1.8,16.3-0.6,17.3C590.3,190.2,595,187,595,187z"/>
							</g>
						</g>
					</g>
				</g>
			</g>
			<g id="XMLID_360_">
				<g id="XMLID_367_">
					<rect id="XMLID_228_" x="569.8" y="201.7" class="st20" width="3.2" height="70.8"/>
					<polygon id="XMLID_227_" class="st21" points="573.2,272.5 574.7,269.5 574.7,201.7 573.2,201.7 					"/>
				</g>
				<g id="XMLID_364_">
					<rect id="XMLID_226_" x="666.9" y="201.7" class="st20" width="3.2" height="70.8"/>
					<polygon id="XMLID_225_" class="st21" points="670.2,272.5 671.7,269.5 671.7,201.7 670.2,201.7 					"/>
				</g>
				<rect id="XMLID_224_" x="549.8" y="197.6" class="st20" width="141.7" height="5.4"/>
				<polygon id="XMLID_223_" class="st22" points="698.5,194.5 557.2,194.6 549.8,197.6 691.6,197.6 				"/>
				<polygon id="XMLID_222_" class="st23" points="691.6,197.6 691.6,203 698.5,198.9 698.5,194.5 				"/>
			</g>
			<g id="XMLID_355_">
				<polygon id="XMLID_221_" class="st30" points="649,195.9 642.7,198.1 620.9,198.1 620.9,194.9 648.3,194.9 				"/>
				<polygon id="XMLID_220_" class="st24" points="653.7,175.6 642.7,198.1 642.7,198.1 659.9,196.1 671.6,172.1 				"/>
				<polygon id="XMLID_219_" class="st25" points="651.8,175.6 669.4,171.7 671.6,172.1 653.7,175.9 				"/>
				<polygon id="XMLID_218_" class="st30" points="642.7,198.1 653.7,175.9 651.8,175.6 640.8,198.1 				"/>
			</g>
		</g>
	</g>
	<g id="XMLID_102_">
		<g id="XMLID_103_">
			<g id="XMLID_180_">
				<g id="XMLID_335_">
					<path id="XMLID_217_" class="st7" d="M689.7,146.3c0,0-4.5,3.7-3.5,8.3C686.2,154.5,689.7,151.9,689.7,146.3z"/>
					<g id="XMLID_336_">
						<path id="XMLID_216_" class="st8" d="M687.1,149.8c0,0-0.1-3.4-6.3-4.2c0,0-0.4,0.8,1.7,2c1.5,0.9,2.8,1.6,3.7,2
							C686.6,149.6,687,149.8,687.1,149.8z"/>
						<path id="XMLID_215_" class="st8" d="M685.8,152.4c0,0-3.4-0.1-6.1-1.5c-2.7-1.3-2.9-2.8-2.9-3.7c0-0.6,0.1-2.4,1-1.8
							c0.9,0.6,5.7,1.8,6.9,2.2c1.2,0.4,2.5,2,2.5,2.2C687.3,150.4,685.8,152.4,685.8,152.4z"/>
						<g id="XMLID_345_">
							<g id="XMLID_320_">
								<path id="XMLID_321_" class="st8" d="M712.4,158.8c1.1-0.9,1.5-0.1,0.7-2.1c-0.6-1.7-2.1-4.8-2.1-4.8
									c-9-0.8-17.9-0.9-23.9-3.1c-6.7-2.5-3.4,2.7-3.4,2.7C690.7,155.4,701.6,157.7,712.4,158.8z"/>
							</g>
						</g>
						<g id="XMLID_343_">
							<path id="XMLID_213_" class="st8" d="M712.3,155.1c-0.6,0.3-0.7,0.5-2.3-0.1c-1.3-0.5-1.1-1.6-1.2-2.7
								c-0.7-16.5,5.2-31.4,6.3-30.8c3.8,2.1,3.9,8.4,3.9,8.4s-0.1,7.7-1.6,16.3c-0.3,1.6-2.2,10.6-3.5,11.2L712.3,155.1z"/>
						</g>
						<g id="XMLID_341_">
							<path id="XMLID_212_" class="st9" d="M689.7,146.3c-0.4,1.5-2.1,7.5-3.5,8.3c6.9,3.1,19.9,4.5,29.4,5.6
								c1.1-0.9,0.3-1.7-0.3-3.8c-0.6-1.7-2.6-5-2.6-5C704.5,150.5,695.6,147.9,689.7,146.3z"/>
						</g>
						<g id="XMLID_337_">
							<path id="XMLID_211_" class="st9" d="M712.3,155.1c-0.6,0.3-0.7,0.5-2.3-0.1c-1.3-0.5-1.7-0.2-1.8-1.3
								c-1.3-13.3,5.8-38.8,11-35.3c3.7,2.5,0.7,12.3,0.7,12.3s0.3,6.8-1.2,15.5c-0.3,1.6-1.5,12.7-2.7,13.3
								C715.9,159.5,712.3,155.1,712.3,155.1z"/>
						</g>
					</g>
				</g>
				<rect id="XMLID_210_" x="723.7" y="105.9" class="st10" width="10.1" height="10.8"/>
				<path id="XMLID_209_" class="st5" d="M715.7,175.8c-3.8,20.9-4,42.7-3.1,48.1c0.9,5,6.6,0.7,6.6,0.7s8.7-36.6,11.1-42.8
					C731.8,178.3,716.5,171.8,715.7,175.8z"/>
				<path id="XMLID_208_" class="st6" d="M724.7,176.4c4.5,25.9,7,42.4,8,47.9c0.9,5,8.9,2.6,8.9,2.6s-1.3-43.7,1.2-49.9
					C744.2,173.5,724,172.4,724.7,176.4z"/>
				<path id="XMLID_207_" class="st10" d="M714.8,162.1l26.5-0.2c0.3-12.1,2.9-41.6,0.2-43.9c-7.2-6-15-5.8-21.2-1.7
					C717.9,118,715.2,149.5,714.8,162.1z"/>
				<path id="XMLID_206_" class="st8" d="M718.1,150.5"/>
				<path id="XMLID_205_" class="st11" d="M716.1,120.8c1.5-2.4,4.2-6.1,8.1-6.8c-0.1,0-0.3,0.1-0.3,0.2c-0.8,1.5,0.1,3.9,3.4,3.9
					c1.5,0,3.5-0.5,5.7-2.2c1-0.8,1.2-2,1.4-2.2c3.1,0.7,9.7,2.6,11.6,4.8c2.2,2.6-0.1,43.9-0.4,58.4h-31
					C714.7,161.9,711.8,128.1,716.1,120.8z"/>
				<path id="XMLID_204_" class="st12" d="M715.4,120.8c1.5-3.2,3.9-4.8,6.8-6.2c0,0-4.1,22.6-4.1,35.7c-0.1,15.2,1,37.1,1,37.1
					h-6.2C713,172.6,709.9,132.4,715.4,120.8z"/>
				<path id="XMLID_203_" class="st13" d="M718.1,155.9c-1.3-2.7-4.2-11.4-4.2-11.4l3.8-10.9v-16.2l3.5-2.4c0,0,0.6-0.3,0.9-0.4
					c0,0-4.1,22.6-4.1,35.7C718.1,152.2,718.1,154,718.1,155.9z"/>
				<path id="XMLID_202_" class="st12" d="M734.8,117.4c0.3-1,0.5-2.2,0-3.1v-0.4c3.2,0.9,10.3,1.5,11.2,5.3c0.8,3.5,2,53,1.5,69.2
					h-20.9l-0.2-34.6l1.5-20L734.8,117.4z"/>
				<path id="XMLID_201_" class="st14" d="M743.6,173.6"/>
				<path id="XMLID_200_" class="st6" d="M741.7,263c0.4-8.3-0.1-36.1-0.1-36.1s-8.6-7.5-9.1-3.4c-0.3,3.1,2.3,30.4,3.5,39.2
					L741.7,263z"/>
				<path id="XMLID_199_" class="st5" d="M723,261.9c0.6-8.3-2.7-42.8-2.7-42.8s-7.2,0.9-7.7,5c-0.3,3.1,3.2,29.1,4.9,37.8
					L723,261.9L723,261.9z"/>
				<path id="XMLID_198_" class="st1" d="M703.8,264.9l13.8-3.1h5.6v5.5h-9.6C702.3,267.2,703.8,264.9,703.8,264.9z"/>
				<path id="XMLID_197_" class="st1" d="M727.2,267.5l6.1-2.6c1.1-0.4,2.3-1,2.6-2.2c0-0.1,0-0.1,0-0.2h5.8v4.5
					c-4.9,2.1-10.3,2.7-15.6,1.8C725.9,268.3,726.6,267.8,727.2,267.5z"/>
				<path id="XMLID_196_" class="st15" d="M725.3,119L725.3,119c-0.9-0.2-1.8,0.2-2.3,0.9l-0.8,0.9c0,0,0.2,2.8,1,3.2
					c0.3,0.2,0.7,0.2,1,0.2c0.6,0,1.1-0.3,1.5-0.7l1.8-2.1l-0.5-1.1C726.7,119.6,726,119.2,725.3,119z"/>
				<path id="XMLID_195_" class="st15" d="M719.2,163.6l3.9-40.4h2.2l-0.4,40.4l-2.1,7.4c-0.4,1.5-1.8,1.4-2.1-0.2L719.2,163.6z"/>
				<g id="XMLID_316_">
					<path id="XMLID_194_" class="st16" d="M723.5,112.6l1.2,3.9l-2.5,4.3c0,0-1.7-4.4-1.2-5.5C721.1,115.3,722,113.3,723.5,112.6z"
						/>
					<polygon id="XMLID_193_" class="st17" points="724.7,116.5 725.2,117.6 722.3,120.8 					"/>
				</g>
				<path id="XMLID_192_" class="st13" d="M735.7,112.9l5.3,2.3l-10.7,16.9v15l-3.8,10.8c0,0-1.7-13,0.4-23.3
					C729.2,124.1,730.7,118.1,735.7,112.9z"/>
				<path id="XMLID_191_" class="st16" d="M734.3,111l2.5,3.2c0,0-5.3,5.6-9.2,8.1l-2.3-5.6C725.3,116.8,729.4,114.5,734.3,111z"/>
				<g id="XMLID_188_">
					<path id="XMLID_280_" class="st10" d="M731.7,82.3c3,0.9,5.7,2.8,6.7,5c2.4,5.1-0.5,9.7-2.3,14.6c-0.3,0.9-1.8,2.2-2.3,4.9
						c-0.1,0.5-0.9,0.1-1.4,0c-4.3-0.4-7.4,0.6-11.8,0.2c-1.1-0.1-3.2,0.1-3.6-1c-0.3-0.6-0.1-1.5,0-2.1c0.6-3.4,1-7.8,1.7-10.9
						c0.5-2.1,1-4.2,1.8-6.2c0.7-1.6,1.5-3.2,3.1-4.1C725.7,81.3,728.8,81.4,731.7,82.3z"/>
				</g>
				<g id="XMLID_187_">
					<path id="XMLID_275_" class="st18" d="M735.1,104.3c-0.3,0-0.6-0.3-0.9-0.8c-0.3-0.7-0.8-1.8-0.7-2.6c0.2-1,1.4-1.8,1.8-2.7
						c0.3-0.7,0.5-1.4,0.3-2.1c-0.3-0.7-1-1.2-1.7-0.9c-0.5,0.2-0.8,0.7-1.3,0.8c-0.4,0.1-0.9-0.3-1.1-0.7c-0.3-0.4-0.3-0.9-0.4-1.3
						c-0.3-1.1-1-2.2-2.1-2.8c-0.6-0.3-1.2-0.5-1.9-0.8c-1.8-0.7-3.3-1.9-4.4-3.4c-1.5-2.1-2.7-4.9-1.7-7.4c0.9,1.2,2.8,1.1,4.4,1
						c2.1-0.2,4.2-0.2,6.2,0.3c2.1,0.5,4.8,1.7,5.7,3.6c0.2,0.4,0.3,0.9,0.7,1.2c0.6,0.8,0.9,1,1.5,1.7c1.1,1,1.1,2.7,0.9,4.2
						c-0.3,2.8-1.1,5.6-2.3,8C737.9,100.7,736.5,104.4,735.1,104.3z"/>
				</g>
				<path id="XMLID_185_" class="st10" d="M719.4,91.3c-1.5,2.6-2.1,3.4-3.3,5c-0.3,0.3-0.2,0.9,0.2,1.1c0.7,0.4,1.6,0.8,2.2,0.9"/>
				<path id="XMLID_184_" class="st19" d="M730.6,100.6c0,0-1.6,4.9-2.4,5.4c-0.8,0.5-6.1,0.9-6.1,0.9s4.1,0.4,6.5-0.5
					C730.1,105.8,730.6,100.6,730.6,100.6z"/>
				<g id="XMLID_182_">
					<path id="XMLID_181_" class="st7" d="M718.3,155.3c0,0-4.1,5-2,9.9C716.3,165.2,719.6,161.6,718.3,155.3z"/>
					<g id="XMLID_183_">
						<path id="XMLID_178_" class="st8" d="M716.4,159.8c0,0-0.9-3.8-7.9-3.2c0,0-0.3,0.9,2.3,1.8c1.9,0.6,3.5,1.1,4.5,1.4
							C715.8,159.8,716.1,159.8,716.4,159.8z"/>
						<path id="XMLID_175_" class="st8" d="M715.5,163c0,0-3.8,0.7-7-0.2c-3.2-0.9-3.8-2.4-4-3.3c-0.1-0.6-0.4-2.7,0.8-2.2
							c1.2,0.4,6.8,0.6,8.1,0.9c1.4,0.3,3.2,1.6,3.2,1.9C716.6,160.4,715.5,163,715.5,163z"/>
						<g id="XMLID_298_">
							<g id="XMLID_289_">
								<path id="XMLID_290_" class="st8" d="M746.2,164c1-1.3,1.5-0.4,0.3-2.5c-1-1.7-3.4-4.8-3.4-4.8c-10,1.2-19.8,3.1-26.9,2.1
									c-7.9-1.2-3.2,3.7-3.2,3.7C721.5,165.2,734.1,165.2,746.2,164z"/>
							</g>
						</g>
						<g id="XMLID_296_">
							<path id="XMLID_88_" class="st8" d="M745.2,159.9c-0.6,0.5-0.7,0.8-2.6,0.4c-1.5-0.3-1.6-1.5-2-2.7
								c-4.4-18-1.4-35.7-0.1-35.3c4.7,1.5,6.2,8.4,6.2,8.4s1.6,8.5,2,18.3c0.1,1.8,0,12.1-1.3,13.2
								C747.4,162.1,745.2,159.9,745.2,159.9z"/>
						</g>
						<g id="XMLID_294_">
							<path id="XMLID_82_" class="st9" d="M718.3,155.3c-0.1,1.6-0.7,8.7-2,9.9c8.3,1.8,23,0.4,33.6-0.6c1-1.3,0-2-1.3-4
								c-1-1.7-4-5-4-5C735.5,156.7,725.2,155.8,718.3,155.3z"/>
						</g>
						<g id="XMLID_186_">
							<path id="XMLID_81_" class="st9" d="M745.2,159.9c-0.6,0.5-0.7,0.8-2.6,0.4c-1.5-0.3-2,0.3-2.3-0.9
								c-6.6-17.2-1.7-45.4,4.9-42.7c4.6,1.9,5.3,18.7,5.6,28.6c0.1,1.8,0.7,17.8-0.6,18.7C750.1,164,745.2,159.9,745.2,159.9z"/>
						</g>
					</g>
				</g>
			</g>
			<g id="XMLID_107_">
				<polygon id="XMLID_73_" class="st30" points="692.9,154.3 700.3,156.9 725.9,156.9 725.9,153.2 693.7,153.2 				"/>
				<polygon id="XMLID_70_" class="st24" points="687.4,130.4 700.3,156.9 700.3,156.9 678.6,151.4 666.3,126.4 				"/>
				<polygon id="XMLID_64_" class="st25" points="689.6,130.4 669,125.9 666.3,126.4 687.5,131 				"/>
				<polygon id="XMLID_8_" class="st30" points="700.3,156.9 687.5,131 689.6,130.4 702.6,156.9 				"/>
			</g>
		</g>
	</g>
</g>
<g id="g3_1_" transform="matrix(0.9486962,0,0,0.9486962,2.4834364,1.8361818)">
	<path id="path5_1_" class="st0" d="M651.9-293.1c38.9,0,70.5,18,70.5,40.1c0,10.4-7,19.9-18.5,27c0.6,2.6,1.7,5.2,3.6,7.7
		c7.3,9.9,24.9,18,24.9,18s-27-11.5-46.8-17.5c-10,3.1-21.5,4.9-33.7,4.9c-38.9,0-70.5-18-70.5-40.1S613-293.1,651.9-293.1"/>
</g>
<g id="g3_2_" transform="matrix(0.9486962,0,0,0.9486962,2.4834364,1.8361818)">
	<path id="path5_2_" class="st0" d="M518.6-143.5c36.6,0,66.3,18,66.3,40.1s-29.7,40.1-66.3,40.1c-11.5,0-22.2-1.8-31.7-4.9
		c-18.6,6.1-43.9,17.5-43.9,17.5s16.5-8.1,23.3-18c1.7-2.6,2.7-5.1,3.3-7.7c-10.8-7.1-17.4-16.6-17.4-27
		C452.3-125.5,482-143.5,518.6-143.5"/>
</g>
<g id="g3_3_" transform="matrix(0.9486962,0,0,0.9486962,2.4834364,1.8361818)">
</g>
</svg>
